<?xml version='1.0' encoding='UTF-8' standalone='no'?>
<svg baseProfile="tiny" xmlns:xlink="http://www.w3.org/1999/xlink" width="137.837mm" xmlns="http://www.w3.org/2000/svg" xmlns:cc="http://creativecommons.org/ns#" version="1.2" height="120.142mm" viewBox="0 0 1628 1419">
 <defs/>
 <g stroke="black" fill="none" fill-rule="evenodd" stroke-linejoin="bevel" stroke-linecap="square" stroke-width="1">
  <g stroke="#000000" font-family="MS Shell Dlg 2" fill="none" font-weight="400" stroke-opacity="1" stroke-linejoin="bevel" stroke-linecap="square" stroke-width="1" transform="matrix(1,0,0,1,0,0)" font-size="34.375" font-style="normal"/>
  <g stroke="#000000" font-family="MS Shell Dlg 2" fill="none" font-weight="400" stroke-opacity="1" stroke-linejoin="bevel" stroke-linecap="square" stroke-width="1" transform="matrix(1,0,0,1,0,0)" font-size="34.375" font-style="normal"/>
  <g stroke="#000000" font-family="MS Shell Dlg 2" fill="none" font-weight="400" stroke-opacity="1" stroke-linejoin="bevel" stroke-linecap="square" stroke-width="1" transform="matrix(11.8046,0,0,11.8046,0,0)" font-size="34.375" font-style="normal"/>
  <g stroke="#000000" font-family="MS Shell Dlg 2" fill="none" font-weight="400" stroke-opacity="1" stroke-linejoin="bevel" stroke-linecap="square" stroke-width="1" transform="matrix(0.999456,0,0,0.999456,0,0)" font-size="34.375" font-style="normal"/>
  <g stroke="none" font-family="MS Shell Dlg 2" fill="#ffffff" font-weight="400" transform="matrix(0.999456,0,0,0.999456,0,0)" font-size="34.375" fill-opacity="1" font-style="normal">
   <path fill-rule="evenodd" vector-effect="none" d="M-2,-2 L1631,-2 L1631,1422 L-2,1422 L-2,-2"/>
  </g>
  <g stroke="#000000" font-family="MS Shell Dlg 2" fill="none" font-weight="400" stroke-opacity="1" stroke-linejoin="bevel" stroke-linecap="square" stroke-width="1" transform="matrix(0.999456,0,0,0.999456,0,0)" font-size="34.375" font-style="normal"/>
  <g stroke="#000000" font-family="MS Shell Dlg 2" fill="none" font-weight="400" stroke-opacity="1" stroke-linejoin="bevel" stroke-linecap="square" stroke-width="1" transform="matrix(11.8046,0,0,11.8046,0,0)" font-size="34.375" font-style="normal"/>
  <g stroke="#000000" font-family="MS Shell Dlg 2" fill="none" font-weight="400" stroke-opacity="1" stroke-linejoin="bevel" stroke-linecap="square" stroke-width="1" transform="matrix(11.8046,0,0,11.8046,0,0)" font-size="34.375" font-style="normal"/>
  <g stroke="#000000" font-family="MS Shell Dlg 2" fill="none" font-weight="400" stroke-opacity="1" stroke-linejoin="bevel" stroke-linecap="square" stroke-width="1" transform="matrix(11.8046,0,0,11.8046,0,0)" font-size="34.375" font-style="normal"/>
  <g stroke="#000000" font-family="MS Shell Dlg 2" fill="none" font-weight="400" stroke-opacity="1" stroke-linejoin="bevel" stroke-linecap="square" stroke-width="1" transform="matrix(11.8046,0,0,11.8046,0,0)" font-size="34.375" font-style="normal"/>
  <g stroke="#000000" font-family="MS Shell Dlg 2" fill="none" font-weight="400" stroke-opacity="1" stroke-linejoin="bevel" stroke-linecap="square" stroke-width="1" transform="matrix(11.8046,0,0,11.8046,0,0)" font-size="34.375" font-style="normal"/>
  <g stroke="#000000" font-family="MS Shell Dlg 2" fill="none" font-weight="400" stroke-opacity="1" stroke-linejoin="bevel" stroke-linecap="square" stroke-width="1" transform="matrix(11.8046,0,0,11.8046,0,0)" font-size="34.375" font-style="normal"/>
  <g stroke="none" font-family="MS Shell Dlg 2" fill="#000000" font-weight="400" transform="matrix(0.999456,0,0,0.999456,0,0)" font-size="34.375" fill-opacity="0" font-style="normal">
   <rect x="0" y="0" width="1629" height="1420"/>
  </g>
  <g stroke="#232323" font-family="MS Shell Dlg 2" fill="#0000ff" font-weight="400" stroke-opacity="1" stroke-linejoin="bevel" stroke-linecap="square" stroke-width="3.07087" transform="matrix(0.999456,0,0,0.999456,0,0)" font-size="34.375" fill-opacity="1" font-style="normal">
   <path fill-rule="evenodd" vector-effect="none" d="M834.682,1030.13 L839.386,1030.8 L840.887,1028.97 L841.296,1027.98 L842.074,1026.1 L847.674,1026.54 L848.861,1026.69 L855.721,1027.55 L859.336,1027.89 L860.442,1030.58 L864.698,1029.46 L867.032,1027.39 L871.68,1026.59 L875.719,1027.72 L877.976,1026.93 L881.287,1028.82 L884.412,1030.61 L888.914,1029.64 L888.961,1029.65 L893.415,1029.96 L895.344,1026.11 L900.81,1024.82 L902.643,1025.11 L908.849,1026.11 L913.077,1022.87 L914.315,1021.93 L920.745,1022.89 L923.971,1023.54 L930.391,1024.82 L932.611,1023.56 L937.787,1020.64 L943.253,1020.64 L955.149,1019.03 L960.615,1020 L966.082,1028.36 L966.881,1032.94 L967.792,1037.02 L968.136,1040.49 L968.777,1042.33 L969.092,1045.23 L968.985,1046.66 L969.409,1050.13 L969.632,1051.84 L970.227,1053.47 L971.204,1053.84 L972.974,1053.45 L975.538,1053.04 L979.086,1053.26 L982.32,1053.3 L983.974,1052.1 L984.277,1050.46 L983.647,1048.84 L983.197,1048.02 L982.096,1048.32 L981.149,1048.65 L979.39,1047.99 L979.037,1046.89 L979.756,1046.05 L980.362,1045.69 L982.346,1044.27 L982.993,1042.76 L982.603,1041.8 L982.08,1038.73 L982.882,1037.51 L985.109,1037.08 L985.911,1036.92 L986.312,1036.65 L986.746,1036.34 L987.502,1032.96 L987.412,1030.7 L987.569,1028.99 L987.627,1027.11 L988.761,1025.91 L991.277,1025.83 L992.752,1025.18 L995.087,1025.88 L1003.06,1026.43 L1013.99,1028.68 L1018.17,1027.39 L1031.35,1042.18 L1046.79,1062.44 L1045.67,1069.73 L1054.44,1085.12 L1055.23,1087.25 L1061.9,1087.2 L1065.76,1087.84 L1069.42,1088.37 L1070.5,1086.75 L1071.37,1085.88 L1072.52,1086.29 L1086.01,1087.52 L1093.28,1089.39 L1093.44,1089.18 L1095.3,1087.15 L1097.09,1085.17 L1098.21,1084 L1096.13,1081.47 L1093.57,1079.19 L1091.84,1076.97 L1091.25,1075.41 L1091.79,1074.35 L1093.07,1073.04 L1087.94,1067.9 L1095.98,1066.3 L1106.59,1061.15 L1114.31,1058.9 L1120.1,1054.72 L1127.85,1049.76 L1128.13,1049.58 L1131.67,1047.65 L1133.92,1043.79 L1138.75,1041.54 L1143.57,1043.79 L1148.14,1046.96 L1151.93,1049.58 L1156.75,1053.76 L1155.54,1058.34 L1152.32,1063.31 L1146.83,1066.42 L1146.85,1071.68 L1149.47,1078.48 L1150.77,1081.57 L1152.99,1084.29 L1151.93,1091.7 L1152.25,1098.13 L1155.14,1107.13 L1154.5,1112.92 L1155.79,1123.21 L1160.95,1123.01 L1165.16,1124.23 L1169.04,1124.84 L1172.94,1129.16 L1177.5,1139.05 L1178.81,1143.68 L1183.69,1149.86 L1188.23,1154.17 L1201.07,1173.41 L1210.01,1191.28 L1212.91,1195.87 L1209.63,1197.37 L1212.77,1202.2 L1215.91,1208.96 L1217.6,1214.99 L1216.88,1221.75 L1214.46,1228.51 L1211.08,1234.31 L1211.08,1240.1 L1209.63,1251.21 L1206.98,1258.21 L1205.29,1269.8 L1204.08,1277.53 L1204.81,1293.71 L1206.25,1299.5 L1209.39,1306.5 L1211.81,1316.4 L1217.12,1325.82 L1220.02,1333.3 L1220.98,1338.13 L1218.33,1340.55 L1216.1,1341.06 L1208.25,1339.57 L1195.7,1331.1 L1191.5,1332.33 L1187.4,1333.54 L1174.45,1326.83 L1166.22,1322.95 L1161.66,1322.63 L1156.14,1326.14 L1138.21,1326.54 L1133.73,1323.37 L1132.67,1322.63 L1127.62,1318.07 L1120.78,1313.67 L1112.8,1311.88 L1103.19,1312.69 L1097.81,1315.95 L1094.72,1320.84 L1087.61,1323.59 L1080.21,1323.59 L1076.16,1322.53 L1073.77,1321.85 L1067.45,1321.94 L1055.08,1324.32 L1044.46,1322.63 L1039.53,1320.34 L1032.09,1318.74 L1027.51,1318.05 L1021.89,1320.57 L1012.05,1323.55 L1003.8,1327.32 L994.065,1333.74 L990.858,1334.2 L983.414,1335.62 L977.158,1337.86 L964.552,1346.91 L953.867,1352.57 L952.836,1354.17 L951.347,1355.21 L951.004,1352.8 L949.629,1351.77 L947.568,1352.91 L945.277,1357.5 L942.3,1357.72 L937.833,1356.35 L934.417,1352.42 L931.108,1348.16 L929.072,1345.55 L926.171,1336.69 L923.914,1314.93 L924.773,1312.27 L927.865,1311.66 L928.275,1309.53 L928.294,1309.43 L925.116,1301.1 L923.388,1295.95 L920.736,1288.04 L914.981,1279.45 L914.466,1276.79 L915.239,1275.42 L913.693,1273.87 L908.968,1272.07 L907.852,1269.58 L908.539,1267.94 L908.797,1265.71 L905.103,1256.44 L903.729,1250.68 L899.95,1238.66 L898.661,1221.82 L903.495,1217.58 L903.557,1217.53 L902.698,1199.83 L903.471,1197 L903.557,1192.96 L901.881,1188.76 L900.976,1185.68 L893.37,1183.87 L891.016,1189.66 L887.924,1193.99 L882.868,1198.18 L877.979,1200.71 L873.995,1201.44 L864.941,1198.18 L854.62,1192.56 L846.471,1186.77 L843.574,1182.6 L837.779,1178.44 L832.89,1175.36 L834.241,1178.96 L833.976,1181.34 L837.417,1184.78 L839.047,1187.13 L837.236,1189.12 L833.071,1189.48 L828.001,1188.94 L823.474,1186.23 L820.214,1183.33 L815.774,1177.16 L812.338,1173.89 L811.127,1174.36 L808.559,1175.35 L806.412,1174.75 L807.099,1172.95 L807.544,1172.59 L809.16,1171.31 L805.909,1170.83 L801.563,1169.38 L800.114,1166.12 L800.477,1162.32 L803.193,1158.16 L806.633,1153.45 L810.62,1151.13 L808.817,1149.76 L808.625,1146.93 L809.892,1144.94 L809.892,1142.4 L808.263,1140.05 L806.995,1136.43 L803.192,1134.43 L799.752,1133.35 L796.13,1125.74 L790.516,1120.49 L787.981,1113.61 L786.714,1107.82 L786.351,1102.38 L787.981,1093.69 L789.067,1088.26 L791.294,1077.52 L794.644,1072.62 L796.036,1065.21 L799.546,1050.21 L800.237,1049.73 L802.738,1047.97 L809.236,1045.23 L813.118,1043.59 L817.101,1041.91 L818.897,1033.64 L820.292,1027.23 L820.293,1027.23 L822.527,1018.61 L822.983,1018.54 L828.591,1017.65 L830.936,1022.91 L832.336,1025.2 L834.682,1030.13"/>
   <path fill-rule="evenodd" vector-effect="none" d="M1179.91,1335.01 L1187.23,1342.34 L1190.98,1347.87 L1191.8,1352.92 L1199.29,1362.53 L1194.08,1364.81 L1190.82,1363.35 L1184.06,1354.07 L1176.81,1345.76 L1168.34,1339.4 L1164.76,1339.89 L1166.7,1341.89 L1170.62,1345.92 L1161.34,1351.13 L1153.52,1344.94 L1146.35,1337.78 L1152.41,1334.25 L1161.5,1331.59 L1173.39,1331.1 L1179.91,1335.01"/>
   <path fill-rule="evenodd" vector-effect="none" d="M1124.36,1327.84 L1114.59,1335.66 L1101.23,1334.19 L1095.37,1330.45 L1101.23,1321.65 L1107.42,1315.62 L1113.29,1314 L1123.71,1317.58 L1129.25,1324.26 L1124.36,1327.84"/>
   <path fill-rule="evenodd" vector-effect="none" d="M1142.12,1344.62 L1151.4,1350.15 L1150.55,1357.43 L1143.75,1359.6 L1141.63,1353.9 L1135.11,1350.15 L1126.48,1351.46 L1115.73,1346.25 L1125.99,1342.99 L1135.76,1344.62 L1142.12,1344.62"/>
  </g>
  <g stroke="#232323" font-family="MS Shell Dlg 2" fill="#0000ff" font-weight="400" stroke-opacity="1" stroke-linejoin="bevel" stroke-linecap="square" stroke-width="3.07087" transform="matrix(0.999456,0,0,0.999456,0,0)" font-size="34.375" fill-opacity="1" font-style="normal">
   <path fill-rule="evenodd" vector-effect="none" d="M1085.47,592.597 L1085.71,599.476 L1085.66,599.576 L1083.31,604.535 L1081.68,607.988 L1078.99,613.364 L1082.05,613.975 L1082.23,615.023 L1083.03,616.19 L1084.62,617.121 L1086.94,617.117 L1082.13,622.772 L1084.74,624.938 L1084.98,625.869 L1086.2,626.451 L1085.49,631.508 L1085.93,635.092 L1089.01,635.897 L1091.46,637.177 L1094.39,638.224 L1091.31,643.604 L1093.77,646.74 L1096.91,649.428 L1095.34,651.22 L1091.53,653.908 L1091.31,655.476 L1096.24,662.868 L1098.48,666.676 L1096.91,670.708 L1101.96,671.343 L1103.67,672.157 L1105.5,671.575 L1107.89,676.308 L1104.75,681.684 L1101.59,687.675 L1099.02,684.995 L1098.41,684.296 L1097.43,683.598 L1096.21,683.482 L1094.74,683.486 L1091.53,683.028 L1089.97,685.492 L1092.65,690.196 L1099.37,697.14 L1097.81,700.276 L1094.45,702.068 L1091.42,702.331 L1090.7,700.754 L1091.19,698.305 L1090.58,696.556 L1088.74,694.807 L1086.17,694.461 L1080.11,692.884 L1076.3,698.26 L1072.27,705.428 L1072.72,708.564 L1074.33,709.815 L1074.29,709.872 L1074.29,711.388 L1074.96,715.956 L1068.91,720.884 L1066.89,724.244 L1066.87,724.331 L1064.65,731.412 L1061.97,734.772 L1059.5,734.27 L1058,731.891 L1059.13,725.29 L1059.42,720.844 L1055.35,722.743 L1051.82,732.238 L1052.91,740.377 L1056.16,744.175 L1058.64,744.772 L1060.48,745.936 L1064.64,745.928 L1065.1,753.588 L1068.24,757.172 L1071.15,759.636 L1069.36,764.788 L1067.57,767.7 L1066.22,772.628 L1063.9,774.977 L1063.9,774.395 L1063.53,772.82 L1062.68,771.129 L1061.7,769.728 L1060.36,769.263 L1058.65,769.267 L1056.59,767.924 L1054.35,770.164 L1059.5,781.14 L1059.05,784.052 L1054.8,786.516 L1049.2,788.98 L1045.47,790.144 L1044.47,790.454 L1042.15,788.648 L1036.65,781.655 L1033.74,779.348 L1027.69,780.916 L1026.13,784.724 L1026.57,788.756 L1030.16,790.548 L1031.64,790.548 L1031.97,791.23 L1033.93,792.278 L1037.48,792.856 L1041.27,792.619 L1043.6,797.94 L1037.1,799.508 L1033.07,799.732 L1031.28,802.868 L1032.85,806.452 L1035.22,806.925 L1039.31,807.742 L1046.02,805.936 L1048.34,806.452 L1051.29,808.473 L1052.56,813.62 L1050.07,814.304 L1047.99,813.61 L1045.54,813.843 L1042.7,812.5 L1040.46,814.964 L1038.45,821.908 L1034.64,823.252 L1027.69,822.804 L1024.11,824.372 L1024.11,826.612 L1027.25,829.076 L1030.5,830.674 L1035.04,834.065 L1036.99,836.533 L1028.37,839.156 L1029.71,844.308 L1035.76,849.236 L1039.56,851.59 L1041.81,859.54 L1044.84,860.338 L1050.34,861.864 L1056.04,864.686 L1055.47,869.844 L1055.47,874.324 L1056.59,877.684 L1058.45,878.233 L1062.92,880.05 L1065.63,884.716 L1066.89,891.124 L1064.88,895.604 L1056.14,900.532 L1054.8,905.236 L1056.14,907.924 L1058.04,909.249 L1058.11,909.841 L1058.29,911.36 L1064.77,914.123 L1066.4,918.449 L1065.78,925.261 L1063.55,934.554 L1062.6,942.607 L1060.67,946.019 L1056.8,948.197 L1054.87,951.609 L1058.27,959.43 L1062.07,959.43 L1067.74,953.591 L1071.02,950.206 L1072.65,948.035 L1076.99,948.035 L1076.54,951.53 L1076.55,954.318 L1075.59,956.796 L1071.41,962.073 L1070.12,964.247 L1075.89,971.305 L1077.57,975.731 L1074.38,979.325 L1074.4,982.803 L1080.87,988.807 L1084.73,989.129 L1091.16,987.843 L1100.48,991.701 L1109.81,997.489 L1111.35,1003.1 L1109.42,1007.13 L1103.6,1008.69 L1103.59,1008.7 L1097.91,1009.39 L1096.3,1011.64 L1095.23,1016.77 L1094.4,1019.8 L1096.95,1022.89 L1102.09,1029.64 L1104.34,1034.79 L1109.81,1037.04 L1119.77,1041.86 L1131.67,1047.65 L1128.13,1049.58 L1127.85,1049.76 L1120.1,1054.72 L1114.31,1058.9 L1106.59,1061.15 L1095.98,1066.3 L1087.94,1067.9 L1093.07,1073.04 L1091.79,1074.35 L1091.25,1075.41 L1091.84,1076.97 L1093.57,1079.19 L1096.13,1081.47 L1098.21,1084 L1097.09,1085.17 L1095.3,1087.15 L1093.44,1089.18 L1093.28,1089.39 L1086.01,1087.52 L1072.52,1086.29 L1071.37,1085.88 L1070.5,1086.75 L1069.42,1088.37 L1065.76,1087.84 L1061.9,1087.2 L1055.23,1087.25 L1054.44,1085.12 L1045.67,1069.73 L1046.79,1062.44 L1031.35,1042.18 L1018.17,1027.39 L1013.99,1028.68 L1003.06,1026.43 L995.087,1025.88 L992.752,1025.18 L991.277,1025.83 L988.761,1025.91 L987.627,1027.11 L987.569,1028.99 L987.412,1030.7 L987.502,1032.96 L986.746,1036.34 L986.312,1036.65 L985.911,1036.92 L985.109,1037.08 L982.882,1037.51 L982.08,1038.73 L982.603,1041.8 L982.993,1042.76 L982.346,1044.27 L980.362,1045.69 L979.756,1046.05 L979.037,1046.89 L979.39,1047.99 L981.149,1048.65 L982.096,1048.32 L983.197,1048.02 L983.647,1048.84 L984.277,1050.46 L983.974,1052.1 L982.32,1053.3 L979.086,1053.26 L975.538,1053.04 L972.974,1053.45 L971.204,1053.84 L970.227,1053.47 L969.632,1051.84 L969.409,1050.13 L968.985,1046.66 L969.092,1045.23 L968.777,1042.33 L968.136,1040.49 L967.792,1037.02 L966.881,1032.94 L966.082,1028.36 L960.615,1020 L955.149,1019.03 L943.253,1020.64 L937.787,1020.64 L932.611,1023.56 L930.391,1024.82 L923.971,1023.54 L920.745,1022.89 L914.315,1021.93 L913.077,1022.87 L908.849,1026.11 L902.643,1025.11 L900.81,1024.82 L895.344,1026.11 L893.415,1029.96 L888.961,1029.65 L888.914,1029.64 L884.412,1030.61 L881.287,1028.82 L877.976,1026.93 L875.719,1027.72 L871.68,1026.59 L867.032,1027.39 L864.698,1029.46 L860.442,1030.58 L859.336,1027.89 L855.721,1027.55 L848.861,1026.69 L847.674,1026.54 L842.074,1026.1 L841.296,1027.98 L840.887,1028.97 L839.386,1030.8 L834.682,1030.13 L832.336,1025.2 L830.936,1022.91 L828.591,1017.65 L822.983,1018.54 L822.527,1018.61 L820.293,1027.23 L820.292,1027.23 L818.897,1033.64 L817.101,1041.91 L813.118,1043.59 L809.236,1045.23 L802.738,1047.97 L800.237,1049.73 L799.088,1047.77 L795.636,1047.11 L794.026,1045.82 L792.738,1039.38 L791.539,1031.71 L789.621,1011.74 L786.72,1001.35 L782.749,995.398 L780.933,986.361 L780.504,982.081 L778.895,974.998 L777.607,962.765 L778.321,954.475 L778.894,949.566 L778.894,945.058 L775.997,944.093 L772.213,941.953 L766.661,943.127 L763.662,942.259 L761.189,938.298 L760.761,934.013 L759.842,929.224 L759.257,922.202 L759.257,916.729 L757.969,908.359 L754.428,899.023 L750.565,893.228 L742.853,888.801 L734.791,886.468 L728.03,880.995 L728.03,872.625 L728.674,859.425 L730.927,848.802 L733.502,840.431 L733.824,833.349 L733.546,821.886 L734.669,811.779 L731.113,802.794 L737.664,795.681 L736.915,789.504 L734.669,782.953 L736.541,780.707 L736.728,778.835 L734.108,774.343 L734.482,762.925 L733.921,752.069 L732.236,746.454 L728.305,741.587 L719.39,736.233 L711.234,731.941 L709.751,730.981 L703.937,727.219 L701.352,722.869 L705.844,712.762 L707.529,704.9 L712.957,696.852 L717.275,695.202 L731.113,693.108 L725.616,687.085 L731.748,685.36 L743.046,682.183 L754.667,677.036 L765.388,672.287 L774.181,667.891 L774.325,667.819 L781.028,670.053 L784.539,677.394 L781.666,685.055 L777.198,692.715 L773.049,700.376 L773.368,709.313 L779.113,715.059 L783.012,715.424 L785.684,715.675 L789.292,716.013 L789.327,716.016 L792.374,715.159 L799.541,713.143 L800.498,706.121 L803.69,698.46 L807.839,698.141 L811.669,704.844 L814.861,711.547 L818.038,712.959 L818.93,713.355 L820.606,714.101 L825.713,711.228 L825.722,711.194 L826.46,708.293 L826.518,708.065 L827.207,705.358 L827.631,703.637 L827.166,701.02 L828.844,698.553 L830.969,696.529 L832.768,694.815 L832.789,694.796 L841.806,692.541 L843.147,692.171 L844.633,691.761 L847.254,691.038 L850.072,686.529 L850.14,685.614 L850.232,684.376 L850.443,681.524 L850.448,681.457 L850.4,681.395 L846.762,676.666 L846.691,676.573 L846.384,676.477 L840.032,674.485 L834.292,675.633 L829.783,672.44 L829.68,672.268 L828.238,669.865 L826.402,666.804 L829.407,661.168 L830.361,660.509 L835.156,657.199 L837.298,655.72 L844.436,653.09 L845.972,652.222 L846.362,652.001 L848.757,650.647 L850.37,648.378 L853.83,643.509 L856.46,641.066 L860.302,640.355 L861.532,640.127 L866.98,642.757 L876.186,643.884 L881.258,645.011 L882.761,647.642 L885.252,650.83 L887.457,653.653 L889.416,654.796 L894.221,657.598 L897.352,662.147 L904.177,672.064 L904.569,672.332 L907.747,674.506 L913.195,673.003 L916.764,672.44 L924.279,677.7 L927.472,677.512 L930.103,679.015 L933.86,677.7 L936.866,676.948 L940.999,676.573 L946.447,675.445 L950.016,671.688 L950.204,668.682 L954.149,668.87 L957.906,667.179 L963.73,667.931 L969.178,664.737 L974.396,667.116 L973.041,660.365 L970.525,655.914 L969.171,650.109 L966.655,644.69 L965.273,643.364 L965.548,642.779 L965.352,640.627 L964.482,635.994 L966.172,635.43 L968.803,633.928 L970.493,632.612 L974.439,635.43 L980.703,629.917 L979.323,627.352 L981.202,623.407 L980.638,620.401 L980.074,618.335 L983.144,616.045 L980.558,613.718 L980.396,611.308 L979.29,608.203 L978.975,605.431 L980.442,602.722 L980.536,602.681 L980.45,601.051 L982.141,599.548 L984.959,597.294 L988.153,598.609 L991.534,601.239 L990.62,603.174 L991.617,604.795 L991.562,607.468 L995.479,608.002 L999.424,609.505 L1004.68,612.511 L1008.44,616.644 L1010.88,616.832 L1017.84,617.959 L1021.78,619.462 L1025.16,617.583 L1032.49,619.462 L1040.75,616.832 L1045.08,614.578 L1050.9,617.02 L1057.1,614.765 L1060.74,616.623 L1061.67,614.831 L1062.31,612.143 L1062.77,608.502 L1065.18,602.93 L1068.18,599.736 L1073.45,598.274 L1073.81,597.011 L1074.38,595.04 L1079.64,591.282 L1082.84,592.973 L1085.47,592.597"/>
  </g>
  <g stroke="#232323" font-family="MS Shell Dlg 2" fill="#e31a1c" font-weight="400" stroke-opacity="1" stroke-linejoin="bevel" stroke-linecap="square" stroke-width="3.07087" transform="matrix(0.999456,0,0,0.999456,0,0)" font-size="34.375" fill-opacity="1" font-style="normal">
   <path fill-rule="evenodd" vector-effect="none" d="M989.252,49.9401 L983.97,58.1041 L984.972,64.6167 L984.471,68.1235 L984.22,70.3779 L980.212,74.3857 L973.199,74.6361 L969.18,76.6858 L964.933,74.8866 L956.416,79.8963 L954.913,82.6517 L953.16,90.9177 L949.904,97.6808 L948.15,101.939 L945.896,112.209 L946.898,115.215 L946.647,119.724 L941.387,122.729 L938.632,122.729 L937.379,124.483 L940.135,128.24 L945.192,131.074 L944.143,133.5 L950.906,137.508 L953.661,139.512 L955.164,146.275 L953.911,151.034 L958.17,152.036 L961.176,156.294 L959.422,162.557 L960.424,164.56 L957.669,172.576 L958.42,176.834 L960.947,178.533 L964.933,183.597 L968.189,186.102 L967.939,192.364 L968.941,195.37 L973.897,197.068 L978.459,208.896 L980.212,211.902 L982.599,211.402 L983.696,212.569 L985.529,213.733 L987.723,215.013 L989.19,215.246 L990.167,215.126 L991.019,214.66 L991.996,214.893 L993.583,215.824 L995.291,216.638 L996.999,217.104 L997.976,216.987 L998.369,216.386 L999.962,218.413 L1004.08,218.961 L1007.19,222.283 L1010.54,226.154 L1012.6,225.774 L1019.31,224.539 L1020.79,226.764 L1018.92,230.668 L1020.43,231.425 L1021.29,233.778 L1024.55,238.287 L1023.55,245.05 L1024.3,247.555 L1023.05,251.813 L1020.54,256.823 L1016.78,259.578 L1016.03,265.089 L1015.56,275.057 L1015.56,276.574 L1016.17,278.207 L1017.76,279.604 L1018.49,280.655 L1018.25,282.987 L1012.86,293.492 L1011.88,295.126 L1008.91,300.427 L1009.31,304.813 L1008.94,306.213 L1010.66,308.661 L1011.27,309.941 L1013.83,312.506 L1014.45,313.44 L1014.32,315.074 L1014.45,316.703 L1014.81,317.987 L1014.81,318.573 L1014.69,319.271 L1013.34,320.439 L1013.34,321.021 L1014.08,321.956 L1015.43,322.77 L1016.89,323.003 L1017.87,323.701 L1018.36,324.516 L1018.24,325.098 L1017.75,325.334 L1017.38,326.149 L1017.63,326.851 L1018.85,327.2 L1019.47,327.197 L1020.32,327.662 L1021.18,328.83 L1022.4,329.644 L1024.24,329.993 L1025.58,329.989 L1026.93,330.688 L1027.89,332.321 L1029.11,333.837 L1029.85,334.768 L1029.23,335.703 L1028.01,335.703 L1026.91,335.936 L1025.69,337.108 L1025.69,338.741 L1026.54,340.254 L1027.03,340.952 L1027.03,341.771 L1026.05,342.59 L1024.83,344.689 L1024.34,347.489 L1024.22,349.006 L1023.85,350.29 L1022.74,351.109 L1023.11,353.208 L1023.97,353.906 L1023.97,355.423 L1023.48,356.241 L1022.25,357.056 L1021.89,357.875 L1021.76,358.577 L1022.01,359.566 L1024.08,361.607 L1024.45,362.421 L1024.33,363.589 L1023.35,364.408 L1022.37,365.339 L1022.37,366.623 L1023.83,369.304 L1024.44,370.937 L1026.28,372.919 L1030.31,374.548 L1032.64,376.643 L1034.22,381.077 L1034.95,384.693 L1034.83,387.141 L1033.24,389.01 L1031.41,391.579 L1030.91,393.91 L1032.13,395.307 L1034.03,397.056 L1034.21,398.107 L1035.06,399.039 L1036.4,399.97 L1037.02,400.668 L1037.99,401.133 L1039.33,401.366 L1040.56,401.366 L1041.41,402.297 L1041.41,402.641 L1041.41,403.814 L1041.65,405.098 L1042.87,406.029 L1044.34,406.145 L1045.56,406.727 L1047.39,408.007 L1048.26,408.646 L1048.72,410.674 L1052.8,413.774 L1051.67,417.86 L1052.8,420.255 L1054.62,421.414 L1057.3,422.461 L1060.11,424.439 L1063.05,425.254 L1059.99,430.964 L1056.46,433.359 L1057.45,436.881 L1062.38,443.926 L1063.42,440.884 L1064.64,443.215 L1064.52,444.849 L1065.38,445.78 L1065.99,444.965 L1066.23,443.448 L1068.43,445.426 L1069.04,446.361 L1070.27,446.477 L1072.1,449.703 L1071.82,451.253 L1073.8,453.789 L1075.03,454.403 L1076.13,456.618 L1077.96,457.312 L1079.55,457.079 L1080.9,455.558 L1082.24,453.809 L1083.22,452.874 L1084.5,458.016 L1084.5,461.539 L1085.21,464.357 L1079.85,467.456 L1076.05,468.443 L1074.64,470.697 L1076,473.179 L1076.49,474.812 L1077.59,475.743 L1080.65,475.856 L1082.73,475.153 L1083.83,475.269 L1084.8,476.204 L1086.15,476.786 L1087.37,477.073 L1087.99,477.364 L1088.6,478.182 L1087.87,479.583 L1087.87,481.216 L1089.46,482.263 L1092.77,483.365 L1094.48,488.333 L1090.73,494.344 L1090.54,496.787 L1090.91,500.732 L1090.91,505.616 L1088.47,505.428 L1084.9,504.677 L1082.08,505.992 L1080.96,509.937 L1071.94,512.755 L1069.31,514.258 L1068.93,517.076 L1068.75,518.579 L1070.06,523.651 L1067.81,527.409 L1067.06,530.414 L1067.79,533.385 L1067.97,534.665 L1069.14,535.014 L1069.99,534.665 L1070.85,533.264 L1071.83,531.743 L1073.42,531.394 L1075.38,531.157 L1077.71,531.739 L1078.7,534.923 L1075.32,538.868 L1074.95,540.935 L1079.15,540.603 L1078.29,541.069 L1077.68,542.237 L1079.02,543.404 L1080.61,543.284 L1081.35,542 L1082.08,541.298 L1082.84,542.813 L1081.71,545.443 L1080.39,547.134 L1082.65,549.389 L1080.58,551.455 L1080.96,553.522 L1083.59,557.279 L1086.22,560.097 L1087.7,559.642 L1088.31,560.888 L1088.68,560.888 L1090.02,561.004 L1085.09,561.976 L1082.46,564.042 L1082.46,567.424 L1084.34,569.114 L1088.1,573.811 L1090.51,574.183 L1090.16,578.695 L1088.66,580.574 L1089.6,583.204 L1092.21,584.684 L1092.7,584.917 L1093.54,588.089 L1097.22,589.576 L1098.68,590.278 L1099.79,590.627 L1100.28,591.326 L1101.25,591.907 L1101.62,593.308 L1101.49,594.239 L1101.13,594.825 L1099.79,595.058 L1097.95,595.062 L1096.61,594.127 L1094.53,592.498 L1093.43,591.916 L1092.21,591.567 L1089.22,589.779 L1086.41,590.155 L1085.47,592.597 L1082.84,592.973 L1079.64,591.282 L1074.38,595.04 L1073.81,597.011 L1073.45,598.274 L1068.18,599.736 L1065.18,602.93 L1062.77,608.502 L1062.31,612.143 L1061.67,614.831 L1060.74,616.623 L1057.1,614.765 L1050.9,617.02 L1045.08,614.578 L1040.75,616.832 L1032.49,619.462 L1025.16,617.583 L1021.78,619.462 L1017.84,617.959 L1010.88,616.832 L1008.44,616.644 L1004.68,612.511 L999.424,609.505 L995.479,608.002 L991.562,607.468 L991.617,604.795 L990.62,603.174 L991.534,601.239 L988.153,598.609 L984.959,597.294 L982.141,599.548 L980.45,601.051 L980.536,602.681 L980.442,602.722 L978.975,605.431 L979.29,608.203 L980.396,611.308 L980.558,613.718 L983.144,616.045 L980.074,618.335 L980.638,620.401 L981.202,623.407 L979.323,627.352 L980.703,629.917 L974.439,635.43 L970.493,632.612 L968.803,633.928 L966.172,635.43 L964.482,635.994 L965.352,640.627 L965.548,642.779 L965.273,643.364 L966.655,644.69 L969.171,650.109 L970.525,655.914 L973.041,660.365 L974.396,667.116 L969.178,664.737 L963.73,667.931 L957.906,667.179 L954.149,668.87 L950.204,668.682 L950.016,671.688 L946.447,675.445 L940.999,676.573 L936.866,676.948 L933.86,677.7 L930.103,679.015 L927.472,677.512 L924.279,677.7 L916.764,672.44 L913.195,673.003 L907.747,674.506 L904.569,672.332 L904.177,672.064 L897.352,662.147 L894.221,657.598 L889.416,654.796 L887.457,653.653 L885.252,650.83 L882.761,647.642 L881.258,645.011 L876.186,643.884 L866.98,642.757 L861.532,640.127 L860.302,640.355 L856.46,641.066 L853.83,643.509 L850.37,648.378 L848.757,650.647 L846.362,652.001 L845.972,652.222 L844.436,653.09 L837.298,655.72 L835.156,657.199 L830.361,660.509 L829.407,661.168 L826.402,666.804 L828.238,669.865 L829.68,672.268 L829.783,672.44 L834.292,675.633 L840.032,674.485 L846.384,676.477 L846.691,676.573 L846.762,676.666 L850.4,681.395 L850.448,681.457 L850.443,681.524 L850.232,684.376 L850.14,685.614 L850.072,686.529 L847.254,691.038 L844.633,691.761 L843.147,692.171 L841.806,692.541 L832.789,694.796 L832.768,694.815 L830.969,696.529 L828.844,698.553 L827.166,701.02 L827.631,703.637 L827.207,705.358 L826.518,708.065 L826.46,708.293 L825.722,711.194 L825.713,711.228 L820.606,714.101 L818.93,713.355 L818.038,712.959 L814.861,711.547 L811.669,704.844 L807.839,698.141 L803.69,698.46 L800.498,706.121 L799.541,713.143 L792.374,715.159 L789.327,716.016 L789.292,716.013 L785.684,715.675 L783.012,715.424 L779.113,715.059 L773.368,709.313 L773.049,700.376 L777.198,692.715 L781.666,685.055 L784.539,677.394 L781.028,670.053 L774.325,667.819 L774.181,667.891 L765.388,672.287 L754.667,677.036 L743.046,682.183 L731.748,685.36 L725.616,687.085 L726.696,685.492 L715.7,683.884 L706.054,682.994 L704.152,682.897 L697.927,682.578 L697.922,682.579 L691.489,683.866 L691.518,683.952 L692.773,687.742 L690.277,690.488 L688.485,704.04 L687.033,717.691 L682.291,726.675 L675.552,734.162 L674.321,740.097 L675.18,747.394 L680.762,759.743 L681.324,769.664 L678.185,777.441 L673.464,787.743 L672.063,792.355 L670.655,796.991 L662.304,808.347 L661.017,817.361 L664.025,827.883 L664.665,830.122 L667.349,833.701 L669.015,835.921 L670.842,838.358 L677.955,844.347 L680.013,854.081 L680.013,872.611 L675.708,884.029 L666.169,902.351 L658.114,911.918 L650.065,914.539 L637.15,911.17 L630.037,899.752 L626.559,890.793 L623.86,883.842 L618.524,871.017 L613.803,860.286 L606.64,847.155 L603.93,844.404 L596.907,832.555 L596.015,829.388 L593.163,819.266 L589.045,815.522 L582.998,811.491 L579.499,809.158 L576.692,801.297 L577.028,799.324 L580.322,780.018 L588.483,766.178 L590.194,763.277 L597.49,740.098 L605.592,726.577 L611.064,716.597 L614.605,707.261 L617.18,693.096 L617.502,683.438 L616.105,675.523 L615.57,672.492 L613.638,661.868 L609.775,653.176 L604.624,642.553 L596.254,631.285 L586.275,622.915 L569.535,615.189 L551.507,607.463 L531.343,600.975 L520.029,593.987 L509.014,583.641 L495.493,572.373 L487.445,563.681 L485.874,560.54 L489.332,560.485 L509.283,560.171 L518.313,560.113 L553.888,559.885 L573.878,558.623 L581.051,558.17 L580.356,552.262 L579.908,548.448 L579.225,537.76 L579.05,535.01 L579.653,533.487 L579.662,533.463 L581.137,529.736 L582.075,527.366 L583.645,523.401 L584.482,521.285 L584.654,517.501 L584.724,515.979 L585.34,502.414 L591.059,499.269 L593.412,498.715 L600.78,496.981 L604.816,496.443 L605.069,496.409 L606.785,502.7 L606.817,503.034 L607.643,511.563 L611.646,515.566 L619.652,510.134 L620.719,509.067 L621.939,507.846 L622.671,508.917 L625.656,513.279 L630.231,516.424 L631.49,516.689 L635.663,517.568 L640.524,519.284 L642.16,521.041 L648.244,527.575 L648.329,527.613 L649.441,528.111 L659.11,532.436 L670.833,535.581 L677.409,533.008 L680.84,525.86 L685.129,520.141 L684.271,514.709 L681.984,505.559 L680.528,501.799 L680.154,500.833 L679.572,499.328 L678.553,496.695 L679.41,489.261 L685.701,487.546 L689.501,483.492 L689.99,482.971 L689.776,478.163 L689.54,472.86 L689.418,470.104 L694.279,462.098 L694.763,460.727 L695.994,457.237 L691.705,455.808 L687.13,453.806 L682.556,443.799 L679.679,442.041 L677.908,440.959 L677.409,440.653 L677.537,437.963 L677.695,434.649 L674.55,428.073 L669.975,428.073 L669.403,424.927 L669.579,423.988 L670.261,420.353 L672.548,413.776 L674.836,407.2 L679.982,401.195 L685.701,395.477 L688.56,395.477 L696.28,396.049 L701.713,397.764 L707.145,403.769 L707.717,397.192 L711.72,389.758 L718.582,391.474 L722.585,390.33 L728.287,389.244 L728.59,389.187 L728.59,387.185 L726.302,381.181 L725.617,377.888 L725.569,377.659 L725.342,376.572 L724.873,374.318 L726.263,373.546 L727.446,372.889 L727.16,370.887 L728.42,365.668 L728.44,365.584 L728.725,364.403 L729.162,362.595 L733.451,358.592 L733.507,356.854 L733.551,355.481 L733.578,354.658 L733.616,353.469 L733.662,352.039 L733.663,351.997 L733.737,349.729 L732.391,347.66 L730.591,345.44 L732.021,335.432 L736.024,332.859 L738.673,330.21 L741.457,327.426 L745.746,327.14 L754.037,327.998 L760.9,330.571 L768.048,330.285 L773.481,324.281 L778.071,324.117 L778.553,324.1 L781.487,323.995 L781.201,319.992 L775.196,317.991 L771.479,313.416 L766.332,307.697 L763.473,305.41 L764.045,300.835 L764.045,296.26 L757.755,298.262 L750.606,294.83 L746.603,295.688 L742.6,300.263 L740.027,300.549 L739.455,298.547 L739.741,291.685 L734.594,289.398 L732.879,281.964 L729.734,279.104 L703.428,271.384 L693.232,273.55 L692.711,273.661 L692.076,271.15 L701.094,261.631 L711.113,257.874 L720.131,256.371 L726.643,256.371 L733.657,261.13 L737.164,260.88 L743.717,258.434 L744.905,257.224 L746.077,256.019 L747.133,254.955 L749.011,253.808 L750.017,252.682 L752.46,250.966 L754.842,249.852 L756.346,249.943 L757.684,249.179 L760.407,247.396 L761.229,246.365 L762.617,245.014 L764.949,244.296 L766.632,244.262 L769.109,243.036 L770.742,241.794 L772.292,240.776 L773.68,239.695 L774.902,238.885 L777.383,238.212 L779.927,238.174 L782.108,237.551 L784.34,237.434 L787.199,238.348 L790.121,237.106 L790.154,235.68 L789.015,234.7 L787.739,233.815 L786.484,232.9 L784.943,232.684 L783.426,232.717 L781.722,232.277 L781.207,230.618 L782.1,229.143 L782.889,227.618 L783.484,226.753 L783.642,226.733 L784.384,226.445 L784.639,227.967 L786.231,229.368 L788.679,230.531 L791.006,232.16 L793.022,229.738 L796.282,225.82 L802.001,224.963 L806.004,225.82 L807.434,217.528 L806.29,212.096 L802.573,204.948 L802.859,196.084 L801.429,189.222 L802.287,186.934 L811.151,188.65 L819.728,188.936 L826.019,178.928 L830.022,164.918 L832.336,166.436 L834.048,165.966 L836.001,165.966 L837.589,166.781 L838.69,166.897 L840.157,165.38 L841.99,161.295 L844.072,158.024 L845.294,157.089 L847.247,156.973 L849.445,158.838 L852.006,163.269 L854.69,165.716 L857.865,168.979 L860.309,168.859 L864.245,168.148 L867.058,167.329 L871.7,168.489 L877.689,170.696 L883.918,175.005 L885.016,178.737 L885.992,180.719 L887.584,182.116 L889.903,182.112 L891.129,180.013 L892.109,177.444 L891.254,173.014 L891.013,167.998 L890.526,163.564 L891.507,161.116 L893.71,156.561 L897.749,153.295 L900.438,152.356 L901.905,151.421 L905.45,148.383 L906.306,146.633 L905.699,143.483 L904.602,139.988 L904.847,135.67 L905.101,129.835 L908.284,122.6 L910.362,115.597 L911.709,111.279 L914.156,108.595 L916.845,107.543 L919.164,107.423 L920.346,92.4206 L918.843,79.8963 L923.603,78.8944 L927.109,79.8963 L935.306,85.1262 L939.133,82.6517 L943.141,82.4012 L943.141,78.1429 L942.759,67.2621 L942.64,63.8653 L942.389,51.0905 L947.399,40.5701 L955.507,40.3056 L961.383,42.6327 L966.038,46.8261 L970.323,50.3211 L973.506,55.915 L975.588,57.4316 L978.526,58.0095 L979.548,54.0255 L973.915,44.3244 L976.418,38.3785 L980.567,36.5444 L982.769,36.3076 L984.723,38.0569 L985.945,42.018 L986.751,44.0537 L988.023,47.2664 L989.252,49.9401"/>
  </g>
  <g stroke="#232323" font-family="MS Shell Dlg 2" fill="#0000ff" font-weight="400" stroke-opacity="1" stroke-linejoin="bevel" stroke-linecap="square" stroke-width="3.07087" transform="matrix(0.999456,0,0,0.999456,0,0)" font-size="34.375" fill-opacity="1" font-style="normal">
   <path fill-rule="evenodd" vector-effect="none" d="M411.155,160.682 L413.538,157.222 L413.534,157.093 L413.814,156.822 L416.123,156.86 L418.018,156.782 L419.71,156.437 L423.806,151.918 L424.057,149.163 L423.806,145.907 L426.812,145.656 L428.315,147.66 L434.828,143.402 L441.34,141.398 L442.843,142.651 L445.85,146.5 L446.228,147.635 L446.128,147.727 L446.851,150.917 L446.534,152.91 L447.176,153.868 L447.359,155.352 L453.865,153.922 L457.121,154.173 L459.375,151.167 L461.63,149.915 L468.142,149.163 L470.898,148.662 L472.651,145.907 L474.905,144.905 L479.113,151.279 L479.546,149.525 L478.852,147.622 L478.008,146.326 L479.093,144.925 L477.911,141.649 L480.166,138.643 L486.177,137.39 L489.684,138.142 L490.214,142.461 L495.195,146.157 L502.208,147.41 L503.711,148.161 L510.975,154.173 L513.033,157.168 L514.733,156.678 L518.49,154.423 L524.251,155.175 L530.012,153.171 L537.276,151.918 L539.781,152.67 L539.689,155.261 L541.588,156.965 L542.058,157.313 L542.449,157.604 L542.897,158.947 L543.118,160.58 L543.218,161.686 L543.321,162.509 L543.588,164.204 L546.043,164.192 L547.797,167.449 L549.55,167.449 L551.554,171.707 L553.558,173.711 L555.812,178.971 L559.068,180.724 L560.321,182.478 L562.826,187.487 L565.832,192.748 L566.834,197.507 L569.338,198.008 L574.599,198.509 L582.113,202.016 L591.882,202.016 L600.649,203.018 L610.669,208.528 L616.179,212.285 L616.43,218.297 L619.686,222.806 L622.801,224.8 L634.214,226.814 L642.48,228.567 L651.247,233.326 L650.997,236.833 L653.502,240.089 L653.91,244.278 L654.062,244.483 L654.707,245.305 L654.15,246.731 L652.317,247.417 L650.517,247.945 L648.519,248.697 L647.118,249.494 L646.008,250.766 L645.235,251.685 L644.99,253.176 L645.376,254.552 L645.343,255.961 L645.264,257.848 L645.331,259.398 L645.401,260.063 L645.468,261.775 L645.584,263.171 L645.946,264.597 L645.946,265.96 L652.458,275.164 L653.147,284.305 L653.572,285.775 L653.368,287.238 L653.626,288.896 L653.829,290.18 L654.121,291.709 L654.237,292.686 L654.844,293.347 L655.812,293.617 L656.643,293.978 L658.052,294.436 L659.76,294.764 L662.016,294.689 L664.34,294.473 L670.535,290.687 L675.043,291.439 L679.803,285.928 L685.814,286.429 L688.82,279.666 L692.159,275.472 L692.803,274.026 L692.711,273.661 L693.232,273.55 L703.428,271.384 L729.734,279.104 L732.879,281.964 L734.594,289.398 L739.741,291.685 L739.455,298.547 L740.027,300.549 L742.6,300.263 L746.603,295.688 L750.606,294.83 L757.755,298.262 L764.045,296.26 L764.045,300.835 L763.473,305.41 L766.332,307.697 L771.479,313.416 L775.196,317.991 L781.201,319.992 L781.487,323.995 L778.553,324.1 L778.071,324.117 L773.481,324.281 L768.048,330.285 L760.9,330.571 L754.037,327.998 L745.746,327.14 L741.457,327.426 L738.673,330.21 L736.024,332.859 L732.021,335.432 L730.591,345.44 L732.391,347.66 L733.737,349.729 L733.663,351.997 L733.662,352.039 L733.616,353.469 L733.578,354.658 L733.551,355.481 L733.507,356.854 L733.451,358.592 L729.162,362.595 L728.725,364.403 L728.44,365.584 L728.42,365.668 L727.16,370.887 L727.446,372.889 L726.263,373.546 L724.873,374.318 L725.342,376.572 L725.569,377.659 L725.617,377.888 L726.302,381.181 L728.59,387.185 L728.59,389.187 L728.287,389.244 L722.585,390.33 L718.582,391.474 L711.72,389.758 L707.717,397.192 L707.145,403.769 L701.713,397.764 L696.28,396.049 L688.56,395.477 L685.701,395.477 L679.982,401.195 L674.836,407.2 L672.548,413.776 L670.261,420.353 L669.579,423.988 L669.403,424.927 L669.975,428.073 L674.55,428.073 L677.695,434.649 L677.537,437.963 L677.409,440.653 L677.908,440.959 L679.679,442.041 L682.556,443.799 L687.13,453.806 L691.705,455.808 L695.994,457.237 L694.763,460.727 L694.279,462.098 L689.418,470.104 L689.54,472.86 L689.776,478.163 L689.99,482.971 L689.501,483.492 L685.701,487.546 L679.41,489.261 L678.553,496.695 L679.572,499.328 L680.154,500.833 L680.528,501.799 L681.984,505.559 L684.271,514.709 L685.129,520.141 L680.84,525.86 L677.409,533.008 L670.833,535.581 L659.11,532.436 L649.441,528.111 L648.329,527.613 L648.244,527.575 L642.16,521.041 L640.524,519.284 L635.663,517.568 L631.49,516.689 L630.231,516.424 L625.656,513.279 L622.671,508.917 L621.939,507.846 L620.719,509.067 L619.652,510.134 L611.646,515.566 L607.643,511.563 L606.817,503.034 L606.785,502.7 L605.069,496.409 L604.816,496.443 L600.78,496.981 L593.412,498.715 L591.059,499.269 L585.34,502.414 L584.724,515.979 L584.654,517.501 L584.482,521.285 L583.645,523.401 L582.075,527.366 L581.137,529.736 L579.662,533.463 L579.653,533.487 L579.05,535.01 L579.225,537.76 L579.908,548.448 L580.356,552.262 L581.051,558.17 L573.878,558.623 L553.888,559.885 L518.313,560.113 L509.283,560.171 L489.332,560.485 L485.874,560.54 L483.582,555.955 L481.328,547.907 L481.65,533.42 L482.616,527.303 L487.444,519.255 L490.341,511.528 L491.951,504.124 L488.41,495.432 L487.122,491.89 L480.683,485.452 L475.855,481.267 L468.45,479.335 L457.827,481.589 L444.629,485.452 L435.937,484.487 L425.957,480.946 L422.416,478.048 L420.163,472.897 L419.197,466.781 L421.45,457.445 L423.703,450.362 L415.587,447.933 L418.3,443.523 L428.159,432.173 L432.486,419.69 L433.053,405.503 L429.081,384.508 L423.973,368.052 L415.462,352.731 L408.653,343.084 L410.422,328.659 L410.052,326.719 L410.127,324.653 L410.106,322.729 L412.292,314.919 L412.042,300.953 L414.037,280.004 L409.545,270.735 L409.183,268.225 L408.925,265.769 L408.68,262.689 L408.784,259.207 L408.855,255.728 L409.295,252.981 L409.183,250.65 L409.366,247.919 L409.47,245.733 L409.557,243.543 L409.636,242.846 L406.666,241.237 L402.676,235.75 L402.427,224.527 L412.449,202.845 L412.649,200.912 L412.969,198.614 L412.524,195.656 L411.385,192.634 L409.731,189.567 L408.51,187.04 L414.592,177.17 L411.435,169.705 L409.908,165.67 L411.155,160.682"/>
  </g>
  <g stroke="#000000" font-family="MS Shell Dlg 2" fill="none" font-weight="400" stroke-opacity="1" stroke-linejoin="bevel" stroke-linecap="square" stroke-width="1" transform="matrix(11.8046,0,0,11.8046,0,0)" font-size="34.375" font-style="normal"/>
  <g stroke="#000000" font-family="MS Shell Dlg 2" fill="none" font-weight="400" stroke-opacity="1" stroke-linejoin="bevel" stroke-linecap="square" stroke-width="1" transform="matrix(11.8046,0,0,11.8046,0,0)" font-size="34.375" font-style="normal"/>
  <g stroke="#000000" font-family="MS Shell Dlg 2" fill="none" font-weight="400" stroke-opacity="1" stroke-linejoin="bevel" stroke-linecap="square" stroke-width="1" transform="matrix(11.8046,0,0,11.8046,0,0)" font-size="34.375" font-style="normal"/>
  <g stroke="#000000" font-family="MS Shell Dlg 2" fill="none" font-weight="400" stroke-opacity="1" stroke-linejoin="bevel" stroke-linecap="square" stroke-width="1" transform="matrix(1,0,0,1,0,0)" font-size="34.375" font-style="normal"/>
  <g stroke="#000000" font-family="MS Shell Dlg 2" fill="none" font-weight="400" stroke-opacity="1" stroke-linejoin="bevel" stroke-linecap="square" stroke-width="1" transform="matrix(11.8046,0,0,11.8046,0,0)" font-size="34.375" font-style="normal"/>
  <g stroke="#000000" font-family="MS Shell Dlg 2" fill="none" font-weight="400" stroke-opacity="1" stroke-linejoin="bevel" stroke-linecap="square" stroke-width="1" transform="matrix(11.8046,0,0,11.8046,0,0)" font-size="34.375" font-style="normal"/>
  <g stroke="#000000" font-family="MS Shell Dlg 2" fill="none" font-weight="400" stroke-opacity="1" stroke-linejoin="bevel" stroke-linecap="square" stroke-width="1" transform="matrix(11.8046,0,0,11.8046,0,0)" font-size="34.375" font-style="normal"/>
  <g stroke="#000000" font-family="MS Shell Dlg 2" fill="none" font-weight="400" stroke-opacity="1" stroke-linejoin="bevel" stroke-linecap="square" stroke-width="1" transform="matrix(11.8046,0,0,11.8046,0,0)" font-size="34.375" font-style="normal"/>
  <g stroke="#000000" font-family="MS Shell Dlg 2" fill="none" font-weight="400" stroke-opacity="1" stroke-linejoin="bevel" stroke-linecap="square" stroke-width="1" transform="matrix(1,0,0,1,0,0)" font-size="34.375" font-style="normal"/>
 </g>
 <metadata>
  <rdf:RDF xmlns:dc="http://purl.org/dc/elements/1.1/" xmlns:rdf="http://www.w3.org/1999/02/22-rdf-syntax-ns#" xmlns:rdfs="http://www.w3.org/2000/01/rdf-schema#">
   <rdf:Description dc:format="image/svg+xml" dc:description="" dc:identifier="" dc:date="2020-12-09T09:03:21" dc:title="">
    <dc:creator>
     <rdf:Bag>
      <rdf:li>MSH</rdf:li>
     </rdf:Bag>
    </dc:creator>
    <dc:publisher>
     <rdf:Bag>
      <rdf:li>QGIS 3.12.2-București</rdf:li>
     </rdf:Bag>
    </dc:publisher>
    <dc:subject>
     <rdf:Bag/>
    </dc:subject>
   </rdf:Description>
   <cc:Work rdf:about="">
    <dc:format>image/svg+xml</dc:format>
    <dc:title></dc:title>
    <dc:date>2020-12-09T09:03:21</dc:date>
    <dc:identifier></dc:identifier>
    <dc:description></dc:description>
    <dc:creator>
     <cc:Agent>
      <dc:title>MSH</dc:title>
     </cc:Agent>
    </dc:creator>
    <dc:publisher>
     <cc:Agent>
      <dc:title>QGIS 3.12.2-București</dc:title>
     </cc:Agent>
    </dc:publisher>
   </cc:Work>
  </rdf:RDF>
 </metadata>
</svg>
