<?xml version='1.0' encoding='UTF-8' standalone='no'?>
<svg width="50.9693mm" xmlns="http://www.w3.org/2000/svg" viewBox="0 0 602 917" xmlns:xlink="http://www.w3.org/1999/xlink" xmlns:cc="http://creativecommons.org/ns#" version="1.2" height="77.6393mm" baseProfile="tiny">
 <defs/>
 <g fill="none" stroke="black" fill-rule="evenodd" stroke-width="1" stroke-linecap="square" stroke-linejoin="bevel">
  <g transform="matrix(1,0,0,1,0,0)" font-weight="400" font-style="normal" fill="none" stroke="#000000" font-size="34.375" font-family="MS Shell Dlg 2" stroke-opacity="1" stroke-width="1" stroke-linecap="square" stroke-linejoin="bevel"/>
  <g transform="matrix(1,0,0,1,0,0)" font-weight="400" font-style="normal" fill="none" stroke="#000000" font-size="34.375" font-family="MS Shell Dlg 2" stroke-opacity="1" stroke-width="1" stroke-linecap="square" stroke-linejoin="bevel"/>
  <g transform="matrix(11.8022,0,0,11.8022,0,0)" font-weight="400" font-style="normal" fill="none" stroke="#000000" font-size="34.375" font-family="MS Shell Dlg 2" stroke-opacity="1" stroke-width="1" stroke-linecap="square" stroke-linejoin="bevel"/>
  <g transform="matrix(0.999249,0,0,0.999249,0,0)" font-weight="400" font-style="normal" fill="none" stroke="#000000" font-size="34.375" font-family="MS Shell Dlg 2" stroke-opacity="1" stroke-width="1" stroke-linecap="square" stroke-linejoin="bevel"/>
  <g transform="matrix(0.999249,0,0,0.999249,0,0)" font-weight="400" font-style="normal" fill="#ffffff" stroke="none" font-size="34.375" font-family="MS Shell Dlg 2" fill-opacity="1">
   <path d="M-2,-2 L605,-2 L605,920 L-2,920 L-2,-2" vector-effect="none" fill-rule="evenodd"/>
  </g>
  <g transform="matrix(0.999249,0,0,0.999249,0,0)" font-weight="400" font-style="normal" fill="none" stroke="#000000" font-size="34.375" font-family="MS Shell Dlg 2" stroke-opacity="1" stroke-width="1" stroke-linecap="square" stroke-linejoin="bevel"/>
  <g transform="matrix(11.8022,0,0,11.8022,0,0)" font-weight="400" font-style="normal" fill="none" stroke="#000000" font-size="34.375" font-family="MS Shell Dlg 2" stroke-opacity="1" stroke-width="1" stroke-linecap="square" stroke-linejoin="bevel"/>
  <g transform="matrix(11.8022,0,0,11.8022,0,0)" font-weight="400" font-style="normal" fill="none" stroke="#000000" font-size="34.375" font-family="MS Shell Dlg 2" stroke-opacity="1" stroke-width="1" stroke-linecap="square" stroke-linejoin="bevel"/>
  <g transform="matrix(11.8022,0,0,11.8022,0,0)" font-weight="400" font-style="normal" fill="none" stroke="#000000" font-size="34.375" font-family="MS Shell Dlg 2" stroke-opacity="1" stroke-width="1" stroke-linecap="square" stroke-linejoin="bevel"/>
  <g transform="matrix(11.8022,0,0,11.8022,0,0)" font-weight="400" font-style="normal" fill="none" stroke="#000000" font-size="34.375" font-family="MS Shell Dlg 2" stroke-opacity="1" stroke-width="1" stroke-linecap="square" stroke-linejoin="bevel"/>
  <g transform="matrix(11.8022,0,0,11.8022,0,0)" font-weight="400" font-style="normal" fill="none" stroke="#000000" font-size="34.375" font-family="MS Shell Dlg 2" stroke-opacity="1" stroke-width="1" stroke-linecap="square" stroke-linejoin="bevel"/>
  <g transform="matrix(11.8022,0,0,11.8022,0,0)" font-weight="400" font-style="normal" fill="#ffffff" stroke="none" font-size="34.375" font-family="MS Shell Dlg 2" fill-opacity="1">
   <rect width="51.0045" y="0" x="0" height="77.6977"/>
  </g>
  <g transform="matrix(11.8022,0,0,11.8022,0,0)" font-weight="400" font-style="normal" fill="none" stroke="#000000" font-size="34.375" font-family="MS Shell Dlg 2" stroke-opacity="1" stroke-width="1" stroke-linecap="square" stroke-linejoin="bevel"/>
  <g transform="matrix(11.8022,0,0,11.8022,0,0)" font-weight="400" font-style="normal" fill="none" stroke="#000000" font-size="34.375" font-family="MS Shell Dlg 2" stroke-opacity="1" stroke-width="1" stroke-linecap="square" stroke-linejoin="bevel"/>
  <g transform="matrix(0.999249,0,0,0.999249,0,0)" font-weight="400" font-style="normal" fill="#000000" stroke="none" font-size="34.375" font-family="MS Shell Dlg 2" fill-opacity="0">
   <rect width="602" y="0" x="0" height="918"/>
  </g>
  <g transform="matrix(0.999249,0,0,0.999249,0,0)" font-weight="400" font-style="normal" fill="#0000ff" stroke="#232323" font-size="34.375" font-family="MS Shell Dlg 2" fill-opacity="1" stroke-opacity="1" stroke-width="3.07087" stroke-linecap="square" stroke-linejoin="bevel">
   <path d="M363.844,491.325 L363.9,491.42 L363.908,491.419 L364.295,491.388 L366.269,491.225 L368.109,490.332 L369.687,490.642 L371.265,489.877 L372.614,489.352 L373.237,489.11 L375.008,489.658 L376.028,493.58 L377.541,494.203 L377.548,494.206 L379.515,494.117 L380.678,497.783 L380.499,501.628 L382.198,502.344 L383.897,504.847 L384.932,506.992 L385.149,507.441 L386.785,507.06 L386.893,507.056 L387.266,507.043 L387.271,507.043 L389.891,502.342 L389.898,502.329 L392.559,503.039 L395.576,501.797 L397.3,503.411 L398.082,505.842 L397.188,510.09 L396.741,517.02 L397.204,519.339 L397.523,520.933 L399.423,523.615 L402.218,524.733 L405.986,528.225 L406.477,528.76 L406.865,529.182 L409.541,528.647 L411.682,529.479 L413.548,532.38 L414.18,533.24 L414.896,534.213 L416.868,536.108 L417.84,536.515 L418.426,537.811 L423.232,544.071 L425.58,551.337 L426.25,554.355 L428.821,557.149 L429.068,557.323 L429.383,557.929 L432.721,561.136 L438.147,565.342 L440.464,566.516 L441.005,569.222 L443.353,571.122 L444.806,573.805 L445.477,576.487 L445.7,578.946 L447.153,581.629 L448.383,583.529 L449.712,584.105 L450.045,586.022 L450.879,589.438 L450.879,591.049 L454.218,593.451 L454.436,593.678 L454.754,597.055 L456.319,599.514 L454.419,602.197 L456.878,604.879 L460.902,606.668 L465.485,610.692 L467.369,614.549 L467.833,615.499 L469.496,619.091 L470.627,621.535 L472.639,622.094 L475.769,625.335 L477.446,628.465 L478.005,632.713 L479.346,636.29 L480.947,636.988 L481.35,638.219 L483.437,641.229 L486.314,645.461 L486.014,648.665 L486.297,651.641 L487.821,652.481 L488.863,654.086 L489.073,654.086 L490.613,654.538 L492.958,653.626 L497.21,653.909 L502.596,657.453 L507.84,661.704 L508.481,662.869 L510.27,664.372 L510.675,669.642 L509.966,671.342 L515.418,677.816 L518.707,683.355 L520.184,686.908 L520.285,689.946 L519.334,692.682 L518.977,696.012 L519.012,699.259 L516.496,700.811 L517.006,702.201 L517.695,703.991 L517.541,704.847 L517.208,706.692 L517.968,708.033 L518.634,709.209 L518.03,710.183 L517.898,710.396 L518.036,711.628 L518.768,712.284 L522.076,715.251 L522.625,718.269 L522.689,718.621 L521.887,720.568 L522.826,721.685 L524.448,723.611 L524.653,725.297 L524.328,725.602 L522.374,727.442 L521.909,729.713 L519.83,731.468 L519.024,731.794 L517.761,736.237 L514.541,738.708 L512.934,740.787 L512.404,743.836 L513.055,744.722 L514.021,746.037 L514.494,747.139 L513.584,748.114 L513.637,748.141 L512.217,749.803 L511.953,751.935 L510.144,754.079 L509.35,759.009 L509.916,761.366 L510.254,762.874 L510.791,765.689 L510.845,765.97 L513.47,768.298 L514.751,770.176 L514.572,772.397 L514.49,773.419 L514.491,773.873 L514.994,774.779 L516.977,774.257 L519.395,774.381 L522.218,774.829 L523.428,775.216 L524.037,777.03 L525.578,779.501 L525.917,780.991 L528.407,783.126 L528.023,785.19 L528.009,785.267 L528.658,785.657 L528.692,785.682 L530.161,786.56 L534.535,790.895 L534.403,791.803 L533.747,792.593 L532.461,794.142 L530.256,795.681 L529.323,798.731 L526.573,800.034 L524.026,801.985 L523.225,803.932 L523.24,810.482 L521.969,812.625 L521.976,815.543 L521.718,820.407 L517.88,820.82 L515.263,821.534 L513.954,823.913 L511.813,825.459 L509.539,826.026 L509.04,825.027 L505.866,822.128 L503.011,819.036 L501.583,820.225 L499.68,821.771 L497.777,819.392 L495.279,817.013 L493.019,818.203 L489.688,818.203 L484.216,815.11 L480.053,814.04 L476.841,816.181 L475.057,815.705 L473.392,815.11 L469.823,815.824 L466.849,814.277 L466.611,812.731 L464.708,811.423 L462.21,809.4 L459.853,808.372 L458.998,804.404 L456.857,801.906 L452.754,799.449 L452.342,796.996 L453.152,796.185 L452.74,795.865 L451.493,795.65 L450.548,795.185 L452.099,794.125 L452.724,793.083 L451.161,792.979 L449.911,791.937 L449.702,789.853 L446.993,792.458 L445.639,792.458 L443.868,788.915 L442.929,788.255 L443.106,787.377 L443.266,786.612 L443.487,786.13 L443.662,785.75 L443.831,784.441 L443.849,784.051 L443.893,783.084 L443.834,781.628 L443.57,779.72 L443.228,778.186 L442.493,776.156 L442.826,773.913 L441.159,772.35 L437.304,772.871 L435.974,772.926 L435.983,772.717 L435.961,770.775 L435.585,766.135 L430.721,761.694 L427.76,763.174 L424.377,766.346 L421.386,766.73 L420.914,767.405 L417.377,767.685 L414.683,769.257 L412.83,770.38 L410.986,769.519 L402.807,771.422 L399.846,775.017 L396.886,776.285 L397.469,780.609 L397.449,780.651 L397.522,781.843 L397.669,782.092 L398.002,782.807 L398.252,783.829 L395.15,782.339 L394.595,783.034 L392.789,783.867 L392.094,781.506 L388.483,778.867 L380.564,775.533 L377.091,777.894 L373.341,775.533 L371.546,775.072 L366.673,772.615 L365.978,772.893 L364.033,775.116 L365.175,778.552 L365.148,778.789 L365.141,779.758 L365.252,780.213 L364.172,781.367 L363.756,785.812 L363.061,789.146 L362.025,793.95 L361.862,794.776 L361.755,795.16 L361.757,795.305 L361.719,795.641 L361.645,795.974 L361.637,796.012 L361.613,796.306 L361.817,797.53 L361.799,797.789 L361.699,798.877 L361.622,799.128 L361.533,799.353 L361.218,799.936 L361.192,800.18 L361.196,800.404 L361.17,801.24 L361.289,801.49 L361.558,802.261 L361.626,802.456 L361.741,802.732 L359.727,804.288 L358.199,806.372 L358.199,809.984 L359.718,812.574 L358.894,814.707 L357.088,816.929 L359.226,820.332 L360.149,822.205 L359.497,825.095 L358.199,826.237 L357.643,828.181 L358.69,830.512 L358.576,831.782 L358.818,832.821 L359.592,833.75 L360.547,834.749 L360.633,834.898 L358.049,836.277 L357.943,837.327 L358.404,839.596 L359.007,842.006 L358.06,843.601 L355.837,844.435 L354.17,845.824 L352.365,845.129 L346.947,844.157 L344.03,844.712 L343.474,846.102 L344.444,848.253 L343.983,848.514 L343.748,849.011 L343.876,849.798 L344.151,850.591 L344.426,851.356 L344.603,852.151 L344.408,852.974 L341.39,853.742 L339.584,857.215 L340.689,859.478 L340.474,860.311 L340.468,860.522 L340.45,861.216 L342.085,862.91 L344.585,864.438 L345.28,866.522 L342.928,869.004 L342.901,869.074 L340.279,870.273 L338.751,868.05 L334.861,867.078 L331.527,866.244 L330.555,863.744 L328.992,864.579 L326.404,866.611 L325.164,867.584 L324.58,868.021 L323.524,868.81 L323.094,867.732 L322.229,866.579 L323.613,866.867 L325.055,864.791 L324.729,861.463 L322.633,857.409 L321.71,856.89 L321.826,854.179 L322.518,851.987 L323.029,850.742 L324.248,847.777 L326.976,844.878 L327.932,841.6 L329.265,840.337 L329.334,839.532 L329.727,834.916 L330.823,834.512 L331.111,832.436 L331.976,828.457 L330.073,826.034 L326.785,817.729 L327.651,816.345 L329.323,814.73 L329.958,812.827 L328.343,811.904 L328.4,810.29 L331.467,808.692 L332.899,807.002 L333.822,805.214 L335.206,804.638 L334.781,804.174 L334.571,803.946 L333.303,804.407 L332.038,806.81 L331.572,807.694 L329.969,808.296 L329.727,808.386 L327.016,808.386 L324.709,809.136 L323.325,810.059 L323.459,811.038 L323.729,813 L325.171,813.231 L325.805,814.269 L324.248,815.25 L322.691,816.403 L322.172,815.423 L321.364,814.846 L321.249,813.75 L321.768,812.597 L321.563,812.173 L320.903,810.809 L317.877,804.758 L317.826,804.634 L317.815,804.633 L317.385,803.772 L316.174,803.542 L312.732,802.911 L313.175,801.293 L316.116,800.947 L316.339,800.51 L317.442,798.351 L318.654,798.64 L318.827,800.831 L320.441,800.658 L320.444,800.658 L322.402,800.197 L324.017,798.467 L325.56,794.977 L324.767,790.681 L322.864,786.182 L322.375,784.024 L321.768,781.338 L321.725,781.314 L318.848,779.713 L318.295,778.759 L319.048,777.906 L319.802,778.207 L320.405,778.397 L322.513,779.06 L323.467,778.257 L325.024,777.554 L325.677,776.048 L325.586,774.769 L325.225,769.67 L324.17,766.959 L324.17,764.85 L325.024,764.95 L326.48,765.954 L327.886,765.352 L328.763,762.781 L329.393,760.933 L329.226,760.757 L328.489,759.979 L328.489,755.058 L327.535,751.141 L326.279,745.818 L326.982,745.165 L328.238,746.27 L329.242,746.169 L329.393,743.91 L328.74,742.403 L328.74,739.993 L328.037,737.382 L324.723,731.356 L322.229,727.903 L322.112,727.74 L322.054,727.7 L320.103,726.334 L320.623,726.042 L321.71,725.431 L321.948,724.926 L322.564,723.623 L324.351,723.5 L325.476,723.422 L327.033,722.317 L329.594,719.355 L331.1,715.789 L331.05,713.53 L333.51,713.831 L333.209,714.885 L331.502,716.091 L331.452,717.095 L332.104,718.802 L335.77,720.509 L337.729,720.409 L339.637,720.861 L338.432,722.518 L339.235,722.97 L339.787,724.778 L340.792,725.631 L342.248,727.941 L343.353,726.786 L344.307,726.284 L345.411,725.18 L343.553,725.23 L343.704,724.376 L343.503,723.573 L344.056,723.322 L345.261,723.723 L345.512,722.97 L344.759,722.217 L344.909,721.564 L346.617,720.961 L346.165,718.551 L345.562,718.702 L344.508,718.551 L344.307,717.245 L343.152,717.296 L342.348,716.844 L341.896,715.086 L339.787,714.182 L339.034,712.827 L339.787,711.872 L339.386,710.818 L338.03,710.969 L336.774,710.466 L335.569,710.065 L334.364,712.174 L331.301,711.37 L329.092,711.32 L325.727,712.475 L324.924,712.023 L324.773,708.056 L325.074,706.65 L323.518,706.6 L323.417,708.759 L322.212,711.521 L322.915,715.789 L322.664,718.702 L321.358,719.204 L318.546,718.451 L316.172,718.083 L315.887,717.99 L315.79,718.024 L314.981,717.898 L313.826,716.794 L312.872,716.643 L312.018,717.095 L311.767,718.149 L311.113,718.303 L310.809,718.097 L310.211,716.643 L308.905,714.986 L308.12,714.104 L306.043,711.772 L304.988,708.458 L303.968,706.417 L301.028,700.785 L298.762,696.507 L297.556,695.753 L296.251,696.306 L295.046,695.753 L294.393,692.138 L291.782,685.058 L291.731,681.141 L293.79,675.768 L296.15,672.102 L296.351,669.039 L294.242,665.373 L294.292,663.816 L291.731,659.046 L289.924,657.54 L288.116,657.138 L287.112,655.481 L287.463,654.175 L286.961,651.765 L288.267,650.66 L289.974,651.112 L290.677,649.907 L290.325,645.639 L288.769,642.475 L289.522,641.169 L290.978,641.22 L291.832,642.324 L293.963,643.483 L294.694,643.881 L295.949,643.479 L295.397,642.023 L296.452,640.316 L297.22,636.507 L297.743,633.536 L298.259,630.474 L298.41,627.461 L299.264,623.895 L298.912,621.636 L299.264,621.033 L302.528,624.297 L304.737,625.502 L306.923,628.632 L306.947,628.666 L309.206,631.177 L310.261,630.725 L308.353,628.415 L307.815,627.703 L306.645,626.155 L307.198,625.101 L309.608,624.297 L312.069,621.937 L316.186,621.987 L318.032,621.585 L320.103,621.134 L319.852,620.481 L318.094,620.581 L317.04,619.426 L315.634,616.715 L315.433,611.844 L315.254,610.891 L314.479,606.772 L315.533,604.864 L315.734,603.357 L314.73,602.152 L314.73,601.098 L314.228,600.646 L313.876,601.349 L313.669,601.734 L313.173,602.654 L312.32,602.253 L312.32,600.997 L310.41,597.625 L308.905,593.415 L306.043,588.895 L304.884,588.316 L304.436,588.092 L301.825,585.631 L295.849,579.455 L295.297,577.496 L296.251,574.534 L300.218,571.22 L301.272,567.654 L302.025,560.674 L305.326,557.906 L307.7,558.164 L309.407,557.661 L312.219,556.507 L312.922,555.502 L312.32,555.101 L310.361,556.004 L307.901,556.456 L306.746,555.101 L305.842,551.334 L304.041,548.662 L301.373,541.04 L301.287,539.532 L301.222,538.379 L300.3,538.229 L299.364,538.078 L297.707,533.408 L292.334,521.707 L291.882,519.799 L294.515,519.59 L295.171,519.462 L296.49,519.205 L295.714,517.507 L296.798,517.188 L300.196,513.343 L301.985,512.717 L303.684,513.7 L304.846,513.969 L305.204,512.806 L305.383,511.018 L305.919,511.107 L307.481,511.935 L308.002,511.453 L308.509,511.007 L307.618,510.213 L307.618,509.498 L308.423,508.782 L310.927,509.14 L311.106,507.888 L312.179,507.709 L312.805,506.636 L312.626,505.652 L313.878,505.652 L313.878,506.904 L313.967,507.62 L314.951,507.709 L316.024,507.441 L317.991,505.295 L318.26,504.043 L321.747,501.807 L323.178,501.539 L324.072,500.376 L325.324,500.645 L327.113,502.344 L328.544,502.254 L329.438,504.4 L331.316,504.579 L332.911,504.487 L333.998,501.36 L335.161,499.929 L336.234,499.571 L338.47,500.645 L340.169,499.929 L343.477,500.108 L344.729,499.84 L344.819,499.303 L345.892,496.084 L346.518,493.312 L348.217,494.027 L350.274,494.474 L353.225,494.117 L354.208,493.491 L355.371,490.808 L356.623,490.271 L357.964,488.393 L358.706,487.88 L361.134,489.039 L361.371,489.152 L361.384,489.159 L363.08,490.033 L363.816,491.277 L363.844,491.325" vector-effect="none" fill-rule="evenodd"/>
   <path d="M259.716,571.013 L258.639,571.552 L257.794,570.168 L256.179,567.707 L258.465,566.458 L258.87,565.246 L258.015,561.159 L258.101,559.479 L259.024,557.402 L257.332,556.172 L255.179,554.173 L254.903,552.075 L254.795,551.251 L253.857,548.222 L253.997,545.849 L252.411,538.947 L253.487,537.409 L252.103,536.179 L251.667,534.29 L251.642,534.179 L252.318,533.117 L252.718,532.488 L252.607,532.179 L252.026,530.565 L253.718,531.872 L256.486,534.564 L258.639,535.333 L258.563,536.717 L259.562,537.947 L260.016,541.086 L258.87,543.561 L259.154,545.121 L259.485,546.944 L258.918,548.079 L258.332,549.251 L259.947,550.635 L260.127,553.064 L260.254,554.788 L260.716,556.941 L261.043,559.234 L261.1,559.633 L260.716,561.17 L261.117,563.176 L261.408,564.631 L261.268,564.82 L259.485,567.245 L259.024,569.091 L259.716,571.013" vector-effect="none" fill-rule="evenodd"/>
   <path d="M296.092,783.127 L294.69,784.911 L293.912,784.106 L293.508,782.03 L291.72,781.857 L291.374,780.645 L294.258,778.569 L294.95,777.3 L296.219,775.224 L297.833,774.359 L298.583,774.532 L297.076,781.041 L296.092,783.127" vector-effect="none" fill-rule="evenodd"/>
   <path d="M296.502,719.003 L295.498,719.656 L293.74,718.3 L292.886,715.639 L293.188,714.634 L294.795,713.027 L295.498,711.069 L296.552,710.868 L297.858,713.881 L295.146,716.542 L295.096,717.497 L295.555,717.989 L296.502,719.003" vector-effect="none" fill-rule="evenodd"/>
   <path d="M299.506,772.167 L298.756,773.667 L298.006,773.609 L297.718,769.63 L297.084,768.765 L297.43,766.804 L296.911,765.016 L298.583,764.67 L299.333,765.247 L299.16,767.323 L298.526,769.341 L298.872,771.418 L299.506,772.167" vector-effect="none" fill-rule="evenodd"/>
  </g>
  <g transform="matrix(0.999249,0,0,0.999249,0,0)" font-weight="400" font-style="normal" fill="#e31a1c" stroke="#232323" font-size="34.375" font-family="MS Shell Dlg 2" fill-opacity="1" stroke-opacity="1" stroke-width="3.07087" stroke-linecap="square" stroke-linejoin="bevel">
   <path d="M190.838,94.8192 L192.177,95.9574 L198.873,95.5557 L202.555,97.2295 L209.786,99.439 L215.602,100.58 L217.477,100.499 L220.834,100.356 L225.619,99.5702 L229.404,98.9989 L232.26,98.9989 L233.61,101.18 L234.384,104.038 L234.622,106.778 L234.563,108.981 L235.039,111.542 L235.516,113.626 L234.403,116.496 L232.479,120.474 L231.526,123.511 L229.618,127.566 L227.417,130.955 L225.904,132.851 L223.071,137.327 L222.119,139.564 L220.262,144.777 L220.905,152.419 L222.69,155.633 L225.106,156.867 L225.904,158.489 L224.262,163.203 L221.833,167.131 L217.878,172.535 L215.846,175.836 L215.211,180.28 L210.26,195.134 L210.768,201.99 L214.069,207.196 L215.119,216.459 L214.958,221.601 L214.905,223.368 L213.566,227.868 L213.512,230.064 L211.905,237.295 L208.477,238.259 L206.067,238.687 L202.799,237.83 L200.657,238.259 L198.461,239.33 L197.175,239.223 L195.836,239.812 L192.89,237.348 L190.492,234.586 L190.703,232.809 L191.848,232.116 L191.245,231.784 L188.051,231.483 L184.285,228.139 L184.014,226.482 L185.068,224.131 L184.165,222.294 L184.496,220.094 L183.2,218.527 L182.959,217.533 L183.743,216.629 L183.773,215.545 L184.406,215.213 L185.219,215.906 L185.972,217.111 L186.485,217.081 L186.575,216.388 L185.34,214.912 L183.261,212.562 L182.658,211.236 L182.718,209.67 L181.754,209.941 L181.212,209.7 L179.675,210.362 L177.837,210.362 L177.295,208.946 L177.747,208.043 L176.421,207.169 L176.602,205.964 L177.084,205.12 L176.572,203.493 L175.186,203.433 L174.282,202.619 L173.499,202.619 L172.444,201.565 L172.444,200.088 L173.408,199.154 L173.439,197.256 L174.282,197.045 L174.915,197.648 L175.307,197.256 L175.035,195.931 L173.86,194.936 L172.474,194.575 L171.119,193.731 L169.281,194.545 L167.111,192.345 L164.671,189.664 L162.94,186.554 L162.564,181.881 L163.297,179.983 L165.117,177.664 L167.368,176.413 L167.939,173.77 L168.725,170.985 L169.653,168.271 L171.438,166.486 L171.724,162.7 L170.653,159.415 L169.724,155.487 L168.653,151.345 L168.796,148.203 L167.296,147.846 L165.011,138.99 L165.511,136.205 L164.011,135.49 L164.082,133.491 L163.083,132.848 L162.511,131.634 L163.511,130.563 L163.225,127.063 L160.94,127.206 L159.512,125.992 L156.726,121.707 L155.584,121.35 L154.727,119.564 L154.655,117.993 L152.87,114.422 L153.37,111.923 L154.655,107.352 L155.369,104.424 L157.726,101.21 L160.94,99.9247 L163.297,100.71 L165.296,100.853 L168.01,99.3533 L169.653,96.2824 L172.581,94.3541 L175.723,91.7117 L179.509,91.6403 L181.722,90.9975 L184.579,90.0691 L186.754,91.8063 L187.357,92.6767 L190.838,94.8192" vector-effect="none" fill-rule="evenodd"/>
   <path d="M225.943,217.13 L224.068,217.666 L220.14,208.828 L217.373,199.455 L219.337,194.545 L218.266,189.456 L220.23,184.368 L222.818,176.69 L227.371,172.137 L230.049,175.44 L231.567,179.993 L230.585,191.152 L231.656,195.08 L233.263,198.562 L236.298,202.222 L235.763,207.221 L233.62,210.703 L230.406,213.113 L225.943,217.13" vector-effect="none" fill-rule="evenodd"/>
  </g>
  <g transform="matrix(0.999249,0,0,0.999249,0,0)" font-weight="400" font-style="normal" fill="#0000ff" stroke="#232323" font-size="34.375" font-family="MS Shell Dlg 2" fill-opacity="1" stroke-opacity="1" stroke-width="3.07087" stroke-linecap="square" stroke-linejoin="bevel">
   <path d="M264.184,94.017 L263.624,96.2563 L260.568,99.1737 L260.545,99.1954 L258.328,101.967 L258.306,101.994 L258.306,103.954 L259.286,105.493 L262.504,107.033 L263.662,107.547 L265.023,108.152 L266.292,108.927 L267.543,109.692 L268.169,109.984 L269.642,110.672 L269.642,110.671 L270.098,110.596 L272.161,110.252 L273.98,108.292 L275.289,107.83 L276.359,107.452 L276.548,107.437 L278.039,107.312 L279.998,108.432 L280.418,110.391 L280.418,111.293 L280.418,112.771 L280.139,114.638 L279.778,115.316 L279.259,116.298 L278.745,117.273 L278.541,118.12 L278.918,119.111 L279.462,119.83 L279.852,120.345 L279.575,121.045 L278.918,122.049 L278.9,122.714 L278.942,122.753 L279.304,123.082 L278.617,123.716 L277.447,124.12 L276.427,124.328 L274.599,124.259 L272.553,123.556 L271.195,122.563 L270.68,122.249 L269.723,121.668 L268.635,121.38 L267.119,121.604 L265.956,122.174 L265.892,122.205 L265.851,122.238 L264.909,122.98 L263.336,123.443 L262.931,124.054 L262.829,124.208 L262.722,125.565 L262.048,126.009 L261.312,126.336 L260.792,126.568 L260.284,126.935 L259.466,127.526 L259.236,129.164 L259.521,131.255 L260.282,132.23 L261.548,132.279 L262.919,132.964 L263.008,133.036 L263.009,133.037 L263.097,133.108 L263.899,133.75 L265.344,134.89 L266.277,136.032 L266.572,136.911 L266.636,137.1 L266.619,138.295 L266.644,138.957 L266.975,140.395 L267.216,141.246 L267.458,142.1 L267.163,143.192 L267.132,143.626 L267.068,144.588 L267.055,144.781 L267.407,146.066 L267.375,146.772 L267.349,147.361 L267.155,148.757 L267.064,149.404 L269.337,149.602 L270.549,151.327 L272.937,154.724 L273.906,156.109 L275.152,155.97 L277.228,158.324 L278.886,161.639 L278.904,161.674 L277.646,161.686 L275.661,162.315 L272.582,162.875 L270.203,164.134 L266.844,167.073 L263.485,167.773 L261.806,166.793 L259.567,164.974 L256.208,163.155 L254.948,160.915 L255.368,158.676 L256.068,157.277 L256.068,155.737 L255.648,154.478 L253.409,154.338 L253.269,152.518 L253.548,150.139 L252.009,148.599 L249.63,148.32 L248.51,146.78 L245.711,146.22 L245.115,144.706 L243.468,141.566 L242.83,140.349 L238.545,135.136 L238.259,132.065 L236.902,126.994 L237.831,123.424 L240.616,120.995 L242.544,117.139 L242.402,112.425 L240.259,105.141 L239.473,100.784 L240.473,95.7851 L242.33,93.9997 L245.197,94.4674 L246.829,95.9279 L248.151,95.9894 L250.718,96.1089 L250.719,96.1089 L253.715,94.9566 L255.501,92.8128 L257.466,90.9816 L258.136,89.597 L258.984,87.5872 L260.049,85.8241 L262.784,88.5588 L264.044,91.4978 L264.184,94.017" vector-effect="none" fill-rule="evenodd"/>
   <path d="M243.474,71.9154 L242.463,76.3326 L241.035,75.0232 L239.011,69.905 L236.75,64.7868 L236.512,60.6208 L237.572,57.3921 L247.938,53.479 L251.033,48.3608 L251.747,44.6709 L253.057,44.3138 L254.167,45.9952 L252.223,48.2418 L251.353,53.3424 L248.415,56.8118 L246.734,61.6773 L244.725,66.4532 L243.474,71.9154" vector-effect="none" fill-rule="evenodd"/>
   <path d="M277.636,60.9721 L275.201,62.2425 L271.496,62.2426 L267.473,62.9837 L263.768,66.0539 L262.961,66.6301 L262.286,67.1126 L261.015,66.2657 L259.533,61.8193 L257.522,55.9966 L257.416,54.4086 L257.317,51.7973 L257.277,50.7431 L259.565,49.5115 L264.603,47.692 L270.9,46.4323 L276.638,46.1523 L280.977,48.2516 L281.117,55.8091 L280.259,57.6318 L279.001,60.3052 L278.479,60.3923 L277.636,60.9721" vector-effect="none" fill-rule="evenodd"/>
   <path d="M256.628,59.7876 L256.252,62.8154 L257.926,62.6145 L259.666,65.2926 L259.733,67.3013 L260.939,68.9751 L260.269,70.7828 L259.198,71.8541 L259.466,73.9966 L257.189,75.7374 L251.23,77.8799 L248.616,79.3029 L245.941,80.7589 L244.602,80.3572 L243.598,75.4026 L245.874,65.9622 L249.623,56.053 L252.703,52.6384 L254.961,52.8839 L256.628,59.7876" vector-effect="none" fill-rule="evenodd"/>
   <path d="M234.974,152.633 L233.546,156.418 L232.403,154.99 L231.832,145.134 L233.117,140.135 L233.474,138.993 L234.971,139.128 L235.688,144.206 L235.688,148.634 L234.974,152.633" vector-effect="none" fill-rule="evenodd"/>
   <path d="M254.616,90.1425 L252.904,91.7393 L251.23,91.6054 L251.23,90.0655 L253.038,87.5882 L255.615,85.1708 L257.816,83.8771 L258.09,86.0746 L258.137,86.4555 L257.166,87.7638 L254.616,90.1425" vector-effect="none" fill-rule="evenodd"/>
  </g>
  <g transform="matrix(0.999249,0,0,0.999249,0,0)" font-weight="400" font-style="normal" fill="#0000ff" stroke="#232323" font-size="34.375" font-family="MS Shell Dlg 2" fill-opacity="1" stroke-opacity="1" stroke-width="3.07087" stroke-linecap="square" stroke-linejoin="bevel">
   <path d="M260.049,85.8241 L260.458,85.147 L260.257,84.1755 L260.391,82.3667 L260.76,80.8928 L261.363,78.5145 L261.966,75.3658 L262.468,73.5569 L263.473,71.9825 L264.88,70.3412 L267.157,68.7668 L269.301,67.7953 L272.483,66.8908 L275.632,66.3883 L277.507,66.3883 L279.986,66.7902 L281.326,67.0247 L283.47,67.0246 L286.25,66.5556 L289.365,66.3881 L292.312,66.2206 L295.227,66.187 L297.37,66.455 L299.785,67.8323 L300.151,68.4983 L301.14,71.1398 L302.064,74.0451 L303.583,76.4882 L306.29,79.1293 L308.997,83.2231 L314.808,86.1945 L319.496,88.4395 L322.93,89.562 L327.172,90.4539 L332.678,89.8421 L336.174,87.9194 L340.194,83.3749 L343.69,79.5295 L346.574,77.0824 L348.409,75.4219 L348.892,73.7601 L349.096,73.7377 L350.709,73.56 L351.182,76.2272 L352.491,77.1788 L352.61,78.8441 L352.253,80.2715 L353.714,80.6064 L353.799,82.8885 L352.491,84.3159 L350.825,85.1486 L350.825,86.3381 L349.636,88.4792 L349.755,90.0256 L349.874,91.3341 L349.636,92.8805 L350.707,93.8321 L351.063,95.4974 L350.825,98.2333 L352.848,98.3523 L353.913,98.3697 L353.92,98.3839 L355.766,98.6482 L354.87,100.85 L353.799,104.657 L354.513,105.489 L361.332,108.4 L364.862,109.891 L369.139,110.543 L370.928,112.151 L375.449,115.125 L377.471,117.86 L378.898,121.905 L379.374,124.403 L379.42,124.529 L380.445,127.377 L382.117,130.039 L388.947,131.152 L393.528,132.583 L395.531,132.87 L398.394,132.154 L403.834,133.013 L407.412,130.866 L409.416,129.577 L410.704,130.007 L410.991,127.43 L412.851,126.285 L415.869,130.732 L413.996,133.013 L416.43,135.303 L417.369,135.637 L417.735,136.561 L418.45,138.323 L414.569,140.599 L415.285,142.603 L415.571,143.605 L415.571,145.895 L417.718,150.905 L418.434,151.907 L418.817,160.849 L419.115,164.648 L420.259,167.36 L419.791,174.325 L421.967,174.248 L425.566,174.536 L431.782,177.177 L438.153,180.596 L440.612,182.161 L443.281,183.859 L444.564,185.6 L445.457,186.812 L446.942,188.594 L447.788,189.609 L447.801,189.652 L448.876,193.339 L450.43,195.359 L454.315,196.602 L457.112,198.312 L458.801,201.127 L459.654,202.548 L459.909,202.974 L461.152,205.926 L461.216,207.329 L461.308,209.345 L460.105,213.356 L459.909,214.007 L459.754,216.338 L460.643,217.469 L461.463,218.514 L463.112,219.927 L464.727,221.311 L465.814,223.642 L466.746,225.815 L466.747,225.818 L469.413,228.262 L470.476,229.237 L473.274,233.277 L474.757,234.625 L476.692,236.385 L477.54,236.754 L480.266,237.939 L481.493,238.664 L483.502,239.853 L481.851,241.34 L482.51,242.658 L483.782,248.858 L483.623,252.991 L482.033,258.873 L480.284,258.714 L477.399,260.418 L477.54,260.418 L477.4,260.688 L477.21,261.151 L477.123,261.364 L476.982,261.365 L475.722,262.045 L475.721,262.045 L473.757,262.594 L471.51,262.874 L470.225,263.189 L469.263,263.424 L468.747,263.656 L467.441,264.243 L467.371,264.243 L467.301,264.243 L466.182,265.059 L464.926,266.413 L463.664,266.825 L462.543,267.369 L459.037,268.935 L458.476,273.28 L458.476,274.682 L458.896,275.803 L456.14,276.304 L456.117,276.3 L453.192,275.855 L452.493,275.748 L448.36,274.159 L445.498,270.979 L443.607,273.933 L442.331,272.725 L441.206,270.502 L440.093,270.184 L436.913,267.005 L436.754,263.666 L428.965,261.918 L424.513,262.394 L421.652,261.282 L418.988,261.077 L417.518,260.964 L413.785,261.103 L410.927,260.915 L410.87,260.915 L410.842,260.915 L409.399,262.208 L407.131,261.924 L406.838,259.707 L406.736,259.707 L404.797,259.714 L402.839,258.986 L400.792,258.259 L400.665,258.259 L400.537,258.26 L399.692,259.487 L398.079,260.717 L397.193,262.517 L397.368,263.904 L397.371,264.59 L397.374,265.372 L392.039,265.291 L387.273,267.253 L384.75,269.216 L380.826,269.636 L378.536,270.892 L378.507,270.908 L377.313,270.26 L377.004,269.75 L376.67,269.201 L374.54,268.474 L374.403,268.41 L374.199,268.313 L374.115,268.313 L372.158,268.239 L370.116,268.328 L367.989,268.335 L361.063,265.011 L356.998,265.431 L355.871,265.813 L355.871,265.814 L352.116,267.087 L349.71,268.375 L347.187,267.113 L346.206,267.394 L342.842,269.916 L338.076,272.019 L333.507,273.439 L333.083,273.929 L333,274.502 L332.731,274.489 L331.745,274.866 L330.856,274.678 L330.659,274.678 L330.166,274.394 L329.18,274.017 L328.534,273.376 L328.518,273.199 L328.675,272.648 L328.627,272.271 L328.573,271.872 L328.573,270.839 L328.675,270.573 L328.786,270.169 L328.715,269.959 L329.007,269.297 L329.604,268.175 L329.705,268.056 L330.202,266.779 L330.262,266.291 L330.259,265.928 L330.191,265.404 L329.925,264.348 L329.772,263.838 L329.768,263.823 L330.437,261.603 L330.16,259.942 L327.668,258.142 L324.897,255.638 L324.201,253.707 L324.899,250.666 L322.961,247.344 L322.407,245.682 L320.477,244.675 L320.48,244.667 L320.53,243.829 L321.3,240.975 L319.897,238.937 L320.934,237.495 L320.958,237.272 L320.96,237.068 L320.991,236.518 L320.839,235.791 L320.521,235.111 L320.532,234.63 L320.233,232.049 L320.192,231.699 L317.977,229.484 L316.655,226.959 L316.624,226.9 L316.454,226.577 L314.509,222.321 L314.477,222.252 L314.239,221.731 L312.87,218.445 L313.226,217.807 L313.425,217.292 L313.793,216.871 L313.859,216.796 L314.264,216.247 L313.946,215.692 L313.892,215.622 L312.94,214.398 L312.811,213.942 L312.326,212.237 L312.157,210.67 L312.147,209.975 L312.128,208.665 L312.142,206.983 L310.861,204.56 L308.939,203.682 L305.629,201.746 L305.608,201.734 L302.927,198.944 L302.339,197.142 L301.787,194.95 L301.725,194.852 L301.662,194.755 L300.967,193.569 L300.74,193.22 L300.742,193.18 L300.845,190.917 L300.821,190.731 L300.82,190.726 L300.797,190.544 L300.638,189.313 L300.349,186.428 L298.272,183.936 L295.918,180.475 L294.399,177.943 L294.257,177.706 L293.426,176.875 L291.35,176.322 L288.858,174.799 L286.366,170.23 L285.12,168.015 L282.905,167.323 L279.72,163.308 L278.904,161.674 L278.886,161.639 L277.228,158.324 L275.152,155.97 L273.906,156.109 L272.937,154.724 L270.549,151.327 L269.337,149.602 L267.064,149.404 L267.155,148.757 L267.349,147.361 L267.375,146.772 L267.407,146.066 L267.055,144.781 L267.068,144.588 L267.132,143.626 L267.163,143.192 L267.458,142.1 L267.216,141.246 L266.975,140.395 L266.644,138.957 L266.619,138.295 L266.636,137.1 L266.572,136.911 L266.277,136.032 L265.344,134.89 L263.899,133.75 L263.097,133.108 L263.009,133.037 L263.008,133.036 L262.919,132.964 L261.548,132.279 L260.282,132.23 L259.521,131.255 L259.236,129.164 L259.466,127.526 L260.284,126.935 L260.792,126.568 L261.312,126.336 L262.048,126.009 L262.722,125.565 L262.829,124.208 L262.931,124.054 L263.336,123.443 L264.909,122.98 L265.851,122.238 L265.892,122.205 L265.956,122.174 L267.119,121.604 L268.635,121.38 L269.723,121.668 L270.68,122.249 L271.195,122.563 L272.553,123.556 L274.599,124.259 L276.427,124.328 L277.447,124.12 L278.617,123.716 L279.304,123.082 L278.942,122.753 L278.9,122.714 L278.918,122.049 L279.575,121.045 L279.852,120.345 L279.462,119.83 L278.918,119.111 L278.541,118.12 L278.745,117.273 L279.259,116.298 L279.778,115.316 L280.139,114.638 L280.418,112.771 L280.418,111.293 L280.418,110.391 L279.998,108.432 L278.039,107.312 L276.548,107.437 L276.359,107.452 L275.289,107.83 L273.98,108.292 L272.161,110.252 L270.098,110.596 L269.642,110.671 L269.642,110.672 L268.169,109.984 L267.543,109.692 L266.292,108.927 L265.023,108.152 L263.662,107.547 L262.504,107.033 L259.286,105.493 L258.306,103.954 L258.306,101.994 L258.328,101.967 L260.545,99.1954 L260.568,99.1737 L263.624,96.2563 L264.184,94.017 L264.044,91.4978 L262.784,88.5588 L260.049,85.8241" vector-effect="none" fill-rule="evenodd"/>
  </g>
  <g transform="matrix(0.999249,0,0,0.999249,0,0)" font-weight="400" font-style="normal" fill="#0000ff" stroke="#232323" font-size="34.375" font-family="MS Shell Dlg 2" fill-opacity="1" stroke-opacity="1" stroke-width="3.07087" stroke-linecap="square" stroke-linejoin="bevel">
   <path d="M333,274.502 L335.273,280.849 L337.235,283.232 L338.076,285.615 L340.317,286.064 L341.002,287.122 L341.686,287.855 L342.026,288.099 L342.026,288.179 L344.061,290.271 L344.769,293.389 L347.32,294.806 L348.312,295.094 L348.648,295.583 L348.028,297.669 L350.443,297.78 L350.971,300.192 L350.411,305.237 L350.411,308.742 L352.933,312.246 L355.397,313.059 L358.26,317.432 L358.68,321.076 L358.68,323.162 L357.814,324.033 L355.523,325.673 L351.111,326.542 L347.888,328.504 L349.009,333.41 L349.902,334.831 L349.798,334.824 L349.596,337.905 L347.187,341.399 L344.944,344.343 L342.76,346.163 L339.14,345.542 L337.445,345.542 L334.477,348.509 L330.238,348.086 L328.33,348.721 L325.574,351.053 L320.911,348.933 L316.672,348.933 L312.644,346.39 L309.253,347.238 L305.861,345.754 L300.721,343.273 L300.145,342.412 L299.879,341.985 L299.782,341.805 L299.654,341.459 L299.494,340.959 L299.341,340.761 L299.224,340.671 L298.793,339.906 L298.685,339.42 L297.914,338.951 L297.655,338.538 L297.503,338.472 L297.293,338.439 L296.187,338.57 L295.148,338.504 L294.259,338.184 L294.078,338.146 L293.926,338.148 L293.556,337.896 L293.323,337.803 L293.092,337.73 L292.945,337.155 L292.921,336.994 L293.238,336.147 L293.326,335.806 L293.166,335.276 L292.509,334.809 L291.194,332.79 L289.777,332.082 L288.522,333.669 L287.85,334.17 L287.014,334.508 L286.041,334.713 L284.964,334.877 L284.063,335.034 L283.654,335.061 L283.205,334.527 L282.861,332.96 L283.379,330.43 L283.79,328.858 L283.682,326.554 L282.265,325.562 L280.99,323.153 L279.147,319.893 L277.588,319.184 L274.124,320.044 L271.045,319.204 L266.986,318.084 L265.447,315.705 L264.187,312.486 L263.068,308.428 L261.528,307.308 L259.009,308.148 L255.51,310.667 L252.851,310.807 L249.493,309.267 L244.874,307.868 L241.096,306.608 L237.177,303.669 L235.218,300.87 L233.258,295.692 L230.739,291.633 L228.92,289.394 L230.201,288.407 L230.009,287.741 L224.778,288.809 L222.568,287.654 L222.167,286.198 L226.538,281.684 L232.519,275.257 L233.948,272.757 L236.269,269.008 L237.518,264.723 L239.482,259.188 L240.821,253.653 L241.786,252.145 L242.25,251.421 L244.571,247.404 L246.446,240.708 L249.124,230.799 L249.838,225.8 L249.302,221.337 L249.758,214.838 L250.222,208.487 L250.4,206.053 L249.472,203.911 L248.543,199.34 L248.543,194.769 L249.025,192.284 L249.4,190.342 L248.758,184.128 L244.044,177.058 L241.473,172.273 L240.024,169.736 L237.188,164.774 L236.474,160.918 L237.26,157.49 L239.116,155.99 L241.523,154.004 L243.616,152.276 L245.187,150.634 L245.401,148.063 L245.711,146.22 L248.51,146.78 L249.63,148.32 L252.009,148.599 L253.548,150.139 L253.269,152.518 L253.409,154.338 L255.648,154.478 L256.068,155.737 L256.068,157.277 L255.368,158.676 L254.948,160.915 L256.208,163.155 L259.567,164.974 L261.806,166.793 L263.485,167.773 L266.844,167.073 L270.203,164.134 L272.582,162.875 L275.661,162.315 L277.646,161.686 L278.904,161.674 L279.72,163.308 L282.905,167.323 L285.12,168.015 L286.366,170.23 L288.858,174.799 L291.35,176.322 L293.426,176.875 L294.257,177.706 L294.399,177.943 L295.918,180.475 L298.272,183.936 L300.349,186.428 L300.638,189.313 L300.797,190.544 L300.82,190.726 L300.821,190.731 L300.845,190.917 L300.742,193.18 L300.74,193.22 L300.967,193.569 L301.662,194.755 L301.725,194.852 L301.787,194.95 L302.339,197.142 L302.927,198.944 L305.608,201.734 L305.629,201.746 L308.939,203.682 L310.861,204.56 L312.142,206.983 L312.128,208.665 L312.147,209.975 L312.157,210.67 L312.326,212.237 L312.811,213.942 L312.94,214.398 L313.892,215.622 L313.946,215.692 L314.264,216.247 L313.859,216.796 L313.793,216.871 L313.425,217.292 L313.226,217.807 L312.87,218.445 L314.239,221.731 L314.477,222.252 L314.509,222.321 L316.454,226.577 L316.624,226.9 L316.655,226.959 L317.977,229.484 L320.192,231.699 L320.233,232.049 L320.532,234.63 L320.521,235.111 L320.839,235.791 L320.991,236.518 L320.96,237.068 L320.958,237.272 L320.934,237.495 L319.897,238.937 L321.3,240.975 L320.53,243.829 L320.48,244.667 L320.477,244.675 L322.407,245.682 L322.961,247.344 L324.899,250.666 L324.201,253.707 L324.897,255.638 L327.668,258.142 L330.16,259.942 L330.437,261.603 L329.768,263.823 L329.772,263.838 L329.925,264.348 L330.191,265.404 L330.259,265.928 L330.262,266.291 L330.202,266.779 L329.705,268.056 L329.604,268.175 L329.007,269.297 L328.715,269.959 L328.786,270.169 L328.675,270.573 L328.573,270.839 L328.573,271.872 L328.627,272.271 L328.675,272.648 L328.518,273.199 L328.534,273.376 L329.18,274.017 L330.166,274.394 L330.659,274.678 L330.856,274.678 L331.745,274.866 L332.731,274.489 L333,274.502" vector-effect="none" fill-rule="evenodd"/>
  </g>
  <g transform="matrix(0.999249,0,0,0.999249,0,0)" font-weight="400" font-style="normal" fill="#0000ff" stroke="#232323" font-size="34.375" font-family="MS Shell Dlg 2" fill-opacity="1" stroke-opacity="1" stroke-width="3.07087" stroke-linecap="square" stroke-linejoin="bevel">
   <path d="M342.76,346.163 L343.878,346.355 L343.524,347.572 L343.287,348.385 L343.318,348.576 L343.945,352.375 L345.755,357.439 L347.367,361.362 L348.089,362.405 L349.734,364.777 L349.935,365.342 L350.228,366.169 L350.687,367.436 L347.607,370.974 L344.524,372.235 L342.777,375.057 L342.702,375.179 L342.001,378.402 L344.842,384.253 L346.766,390.456 L347.047,394.661 L344.384,396.483 L342.842,398.305 L346.03,403.009 L346.346,405.173 L348.807,406.082 L348.989,406.23 L350.567,406.732 L350.674,407.163 L350.93,408.189 L350.995,409.9 L350.995,410.404 L350.995,411.484 L350.931,413.005 L352.114,414.902 L354.712,416.351 L355.501,417.552 L355.83,419.01 L356.29,420.465 L356.686,421.985 L357.936,424.706 L358.1,426.86 L358.034,428.698 L355.036,428.861 L354.615,430.683 L355.604,432.51 L356.261,433.902 L357.905,434.846 L358.891,436.175 L360.082,439.233 L360.362,444.98 L359.521,447.082 L362.051,450.614 L363.696,453.143 L365.602,455.862 L366.983,458.393 L367.354,460.493 L366.817,461.656 L364.581,461.656 L362.972,463.086 L361.183,464.249 L360.915,465.859 L360.826,469.614 L360.736,471.224 L360.557,473.102 L358.411,473.549 L357.875,474.086 L356.98,475.964 L357.517,478.11 L360.11,481.687 L359.753,483.654 L360.378,485.353 L359.127,487.589 L358.706,487.88 L357.964,488.393 L356.623,490.271 L355.371,490.808 L354.208,493.491 L353.225,494.117 L350.274,494.474 L348.217,494.027 L346.518,493.312 L345.892,496.084 L344.819,499.303 L344.729,499.84 L343.477,500.108 L340.169,499.929 L338.47,500.645 L336.234,499.571 L335.161,499.929 L333.998,501.36 L332.911,504.487 L331.316,504.579 L329.438,504.4 L328.544,502.254 L327.113,502.344 L325.324,500.645 L324.072,500.376 L323.178,501.539 L321.747,501.807 L318.26,504.043 L317.991,505.295 L316.024,507.441 L314.951,507.709 L313.967,507.62 L313.878,506.904 L313.878,505.652 L312.626,505.652 L312.805,506.636 L312.179,507.709 L311.106,507.888 L310.927,509.14 L308.423,508.782 L307.618,509.498 L307.618,510.213 L308.509,511.007 L308.002,511.453 L307.481,511.935 L305.919,511.107 L305.383,511.018 L305.204,512.806 L304.846,513.969 L303.684,513.7 L301.985,512.717 L300.196,513.343 L296.798,517.188 L295.714,517.507 L296.49,519.205 L295.171,519.462 L294.515,519.59 L291.882,519.799 L291.982,517.841 L293.489,517.088 L292.685,515.933 L293.188,515.682 L292.384,512.317 L291.531,507.446 L291.179,502.224 L291.982,499.814 L292.836,500.065 L293.84,500.567 L294.393,500.014 L292.736,498.709 L289.02,492.532 L289.07,491.578 L287.463,487.661 L288.166,487.059 L287.363,484.598 L285.856,481.585 L285.706,479.175 L284.4,475.911 L283.848,473.451 L283.948,472.496 L284.852,471.542 L286.459,470.638 L287.664,470.739 L288.819,469.885 L288.718,468.931 L287.764,468.63 L285.655,468.73 L284.601,463.508 L281.175,455.007 L278.098,449.866 L277.897,448.058 L279.303,447.657 L279.571,446.117 L280.374,445.112 L282.383,445.581 L283.789,446.451 L286.534,442.702 L286.601,439.354 L287.404,438.149 L286.601,435.404 L286.802,431.989 L285.998,422.616 L285.329,413.577 L283.99,409.225 L283.856,404.405 L285.195,403.534 L287.873,403.333 L288.476,402.53 L285.396,401.191 L283.186,401.258 L280.709,401.86 L279.303,401.057 L280.174,399.383 L282.182,398.914 L284.191,395.634 L282.249,395.701 L280.374,398.111 L279.102,396.504 L277.729,393.757 L275.487,388.001 L273.21,385.591 L269.26,381.774 L265.243,377.021 L265.444,375.748 L264.841,374.677 L260.69,373.673 L258.481,373.874 L255.802,371.129 L249.509,365.772 L238.997,358.742 L236.121,358.144 L233.909,356.332 L233.708,353.453 L233.105,350.306 L232.636,346.824 L230.829,345.084 L228.686,342.874 L226.41,342.406 L225.338,340.598 L226.611,338.79 L225.807,336.848 L224.401,335.978 L223.999,333.768 L224.736,333.166 L225.004,331.358 L224.2,329.684 L221.991,328.613 L219.982,328.144 L217.574,329.573 L217.438,325.6 L215.898,323.458 L216.501,321.315 L218.576,320.244 L218.911,318.101 L217.647,314.72 L217.647,311.958 L216.743,309.699 L213.53,305.079 L213.981,301.915 L211.822,296.994 L210.768,296.04 L212.425,295.689 L213.881,294.684 L215.337,294.433 L219.405,293.529 L223.773,292.224 L227.088,290.617 L228.845,290.768 L228.92,289.394 L230.739,291.633 L233.258,295.692 L235.218,300.87 L237.177,303.669 L241.096,306.608 L244.874,307.868 L249.493,309.267 L252.851,310.807 L255.51,310.667 L259.009,308.148 L261.528,307.308 L263.068,308.428 L264.187,312.486 L265.447,315.705 L266.986,318.084 L271.045,319.204 L274.124,320.044 L277.588,319.184 L279.147,319.893 L280.99,323.153 L282.265,325.562 L283.682,326.554 L283.79,328.858 L283.379,330.43 L282.861,332.96 L283.205,334.527 L283.654,335.061 L284.063,335.034 L284.964,334.877 L286.041,334.713 L287.014,334.508 L287.85,334.17 L288.522,333.669 L289.777,332.082 L291.194,332.79 L292.509,334.809 L293.166,335.276 L293.326,335.806 L293.238,336.147 L292.921,336.994 L292.945,337.155 L293.092,337.73 L293.323,337.803 L293.556,337.896 L293.926,338.148 L294.078,338.146 L294.259,338.184 L295.148,338.504 L296.187,338.57 L297.293,338.439 L297.503,338.472 L297.655,338.538 L297.914,338.951 L298.685,339.42 L298.793,339.906 L299.224,340.671 L299.341,340.761 L299.494,340.959 L299.654,341.459 L299.782,341.805 L299.879,341.985 L300.145,342.412 L300.721,343.273 L305.861,345.754 L309.253,347.238 L312.644,346.39 L316.672,348.933 L320.911,348.933 L325.574,351.053 L328.33,348.721 L330.238,348.086 L334.477,348.509 L337.445,345.542 L339.14,345.542 L342.76,346.163" vector-effect="none" fill-rule="evenodd"/>
  </g>
  <g transform="matrix(11.8022,0,0,11.8022,0,0)" font-weight="400" font-style="normal" fill="none" stroke="#000000" font-size="34.375" font-family="MS Shell Dlg 2" stroke-opacity="1" stroke-width="1" stroke-linecap="square" stroke-linejoin="bevel"/>
  <g transform="matrix(11.8022,0,0,11.8022,0,0)" font-weight="400" font-style="normal" fill="none" stroke="#000000" font-size="34.375" font-family="MS Shell Dlg 2" stroke-opacity="1" stroke-width="1" stroke-linecap="square" stroke-linejoin="bevel"/>
  <g transform="matrix(11.8022,0,0,11.8022,0,0)" font-weight="400" font-style="normal" fill="none" stroke="#000000" font-size="34.375" font-family="MS Shell Dlg 2" stroke-opacity="1" stroke-width="1" stroke-linecap="square" stroke-linejoin="bevel"/>
  <g transform="matrix(1,0,0,1,0,0)" font-weight="400" font-style="normal" fill="none" stroke="#000000" font-size="34.375" font-family="MS Shell Dlg 2" stroke-opacity="1" stroke-width="1" stroke-linecap="square" stroke-linejoin="bevel"/>
  <g transform="matrix(11.8022,0,0,11.8022,0,0)" font-weight="400" font-style="normal" fill="none" stroke="#000000" font-size="34.375" font-family="MS Shell Dlg 2" stroke-opacity="1" stroke-width="1" stroke-linecap="square" stroke-linejoin="bevel"/>
  <g transform="matrix(11.8022,0,0,11.8022,0,0)" font-weight="400" font-style="normal" fill="none" stroke="#000000" font-size="34.375" font-family="MS Shell Dlg 2" stroke-opacity="1" stroke-width="1" stroke-linecap="square" stroke-linejoin="bevel"/>
  <g transform="matrix(1,0,0,1,0,0)" font-weight="400" font-style="normal" fill="none" stroke="#000000" font-size="34.375" font-family="MS Shell Dlg 2" stroke-opacity="1" stroke-width="1" stroke-linecap="square" stroke-linejoin="bevel"/>
 </g>
 <metadata>
  <rdf:RDF xmlns:rdfs="http://www.w3.org/2000/01/rdf-schema#" xmlns:rdf="http://www.w3.org/1999/02/22-rdf-syntax-ns#" xmlns:dc="http://purl.org/dc/elements/1.1/">
   <rdf:Description dc:title="" dc:date="2021-05-13T13:56:24" dc:description="" dc:identifier="" dc:format="image/svg+xml">
    <dc:creator>
     <rdf:Bag>
      <rdf:li>MSH</rdf:li>
     </rdf:Bag>
    </dc:creator>
    <dc:publisher>
     <rdf:Bag>
      <rdf:li>QGIS 3.12.2-București</rdf:li>
     </rdf:Bag>
    </dc:publisher>
    <dc:subject>
     <rdf:Bag/>
    </dc:subject>
   </rdf:Description>
   <cc:Work rdf:about="">
    <dc:format>image/svg+xml</dc:format>
    <dc:title></dc:title>
    <dc:date>2021-05-13T13:56:24</dc:date>
    <dc:identifier></dc:identifier>
    <dc:description></dc:description>
    <dc:creator>
     <cc:Agent>
      <dc:title>MSH</dc:title>
     </cc:Agent>
    </dc:creator>
    <dc:publisher>
     <cc:Agent>
      <dc:title>QGIS 3.12.2-București</dc:title>
     </cc:Agent>
    </dc:publisher>
   </cc:Work>
  </rdf:RDF>
 </metadata>
</svg>
