<?xml version='1.0' encoding='UTF-8' standalone='no'?>
<svg baseProfile="tiny" xmlns:xlink="http://www.w3.org/1999/xlink" width="138.938mm" xmlns="http://www.w3.org/2000/svg" xmlns:cc="http://creativecommons.org/ns#" version="1.2" height="160.105mm" viewBox="0 0 1641 1891">
 <defs/>
 <g stroke="black" fill="none" fill-rule="evenodd" stroke-linejoin="bevel" stroke-linecap="square" stroke-width="1">
  <g stroke="#000000" font-family="MS Shell Dlg 2" fill="none" font-weight="400" stroke-opacity="1" stroke-linejoin="bevel" stroke-linecap="square" stroke-width="1" transform="matrix(1,0,0,1,0,0)" font-size="34.375" font-style="normal"/>
  <g stroke="#000000" font-family="MS Shell Dlg 2" fill="none" font-weight="400" stroke-opacity="1" stroke-linejoin="bevel" stroke-linecap="square" stroke-width="1" transform="matrix(1,0,0,1,0,0)" font-size="34.375" font-style="normal"/>
  <g stroke="#000000" font-family="MS Shell Dlg 2" fill="none" font-weight="400" stroke-opacity="1" stroke-linejoin="bevel" stroke-linecap="square" stroke-width="1" transform="matrix(11.8041,0,0,11.8041,0,0)" font-size="34.375" font-style="normal"/>
  <g stroke="#000000" font-family="MS Shell Dlg 2" fill="none" font-weight="400" stroke-opacity="1" stroke-linejoin="bevel" stroke-linecap="square" stroke-width="1" transform="matrix(0.999414,0,0,0.999414,0,0)" font-size="34.375" font-style="normal"/>
  <g stroke="none" font-family="MS Shell Dlg 2" fill="#ffffff" font-weight="400" transform="matrix(0.999414,0,0,0.999414,0,0)" font-size="34.375" fill-opacity="1" font-style="normal">
   <path fill-rule="evenodd" vector-effect="none" d="M-2,-2 L1644,-2 L1644,1894 L-2,1894 L-2,-2"/>
  </g>
  <g stroke="#000000" font-family="MS Shell Dlg 2" fill="none" font-weight="400" stroke-opacity="1" stroke-linejoin="bevel" stroke-linecap="square" stroke-width="1" transform="matrix(0.999414,0,0,0.999414,0,0)" font-size="34.375" font-style="normal"/>
  <g stroke="#000000" font-family="MS Shell Dlg 2" fill="none" font-weight="400" stroke-opacity="1" stroke-linejoin="bevel" stroke-linecap="square" stroke-width="1" transform="matrix(11.8041,0,0,11.8041,0,0)" font-size="34.375" font-style="normal"/>
  <g stroke="#000000" font-family="MS Shell Dlg 2" fill="none" font-weight="400" stroke-opacity="1" stroke-linejoin="bevel" stroke-linecap="square" stroke-width="1" transform="matrix(11.8041,0,0,11.8041,0,0)" font-size="34.375" font-style="normal"/>
  <g stroke="#000000" font-family="MS Shell Dlg 2" fill="none" font-weight="400" stroke-opacity="1" stroke-linejoin="bevel" stroke-linecap="square" stroke-width="1" transform="matrix(11.8041,0,0,11.8041,0,0)" font-size="34.375" font-style="normal"/>
  <g stroke="#000000" font-family="MS Shell Dlg 2" fill="none" font-weight="400" stroke-opacity="1" stroke-linejoin="bevel" stroke-linecap="square" stroke-width="1" transform="matrix(11.8041,0,0,11.8041,0,0)" font-size="34.375" font-style="normal"/>
  <g stroke="#000000" font-family="MS Shell Dlg 2" fill="none" font-weight="400" stroke-opacity="1" stroke-linejoin="bevel" stroke-linecap="square" stroke-width="1" transform="matrix(11.8041,0,0,11.8041,0,0)" font-size="34.375" font-style="normal"/>
  <g stroke="#000000" font-family="MS Shell Dlg 2" fill="none" font-weight="400" stroke-opacity="1" stroke-linejoin="bevel" stroke-linecap="square" stroke-width="1" transform="matrix(11.8041,0,0,11.8041,0,0)" font-size="34.375" font-style="normal"/>
  <g stroke="none" font-family="MS Shell Dlg 2" fill="#000000" font-weight="400" transform="matrix(0.999414,0,0,0.999414,0,0)" font-size="34.375" fill-opacity="0" font-style="normal">
   <rect x="0" y="0" width="1642" height="1892"/>
  </g>
  <g stroke="#232323" font-family="MS Shell Dlg 2" fill="#0000ff" font-weight="400" stroke-opacity="1" stroke-linejoin="bevel" stroke-linecap="square" stroke-width="3.07087" transform="matrix(0.999414,0,0,0.999414,0,0)" font-size="34.375" fill-opacity="1" font-style="normal">
   <path fill-rule="evenodd" vector-effect="none" d="M841.343,1268.68 L846.085,1269.36 L847.598,1267.51 L848.009,1266.52 L848.794,1264.62 L854.439,1265.07 L855.635,1265.22 L862.55,1266.08 L866.194,1266.43 L867.309,1269.13 L871.599,1268.01 L873.951,1265.92 L878.636,1265.11 L882.707,1266.25 L884.982,1265.46 L888.32,1267.37 L891.47,1269.17 L896.007,1268.19 L896.055,1268.2 L900.545,1268.52 L902.489,1264.63 L907.999,1263.33 L909.846,1263.63 L916.102,1264.63 L920.364,1261.37 L921.611,1260.41 L928.093,1261.39 L931.345,1262.04 L937.816,1263.33 L940.054,1262.07 L945.27,1259.12 L950.78,1259.12 L962.772,1257.5 L968.282,1258.47 L973.791,1266.9 L974.597,1271.52 L975.515,1275.63 L975.862,1279.12 L976.508,1280.98 L976.826,1283.9 L976.717,1285.34 L977.145,1288.84 L977.37,1290.57 L977.97,1292.21 L978.955,1292.58 L980.738,1292.19 L983.324,1291.77 L986.9,1292 L990.159,1292.04 L991.827,1290.83 L992.132,1289.18 L991.497,1287.54 L991.043,1286.72 L989.934,1287.02 L988.979,1287.35 L987.206,1286.68 L986.85,1285.58 L987.575,1284.73 L988.186,1284.36 L990.185,1282.94 L990.838,1281.42 L990.445,1280.45 L989.917,1277.36 L990.726,1276.13 L992.97,1275.69 L993.779,1275.53 L994.183,1275.25 L994.621,1274.95 L995.383,1271.54 L995.292,1269.26 L995.45,1267.53 L995.509,1265.64 L996.652,1264.43 L999.188,1264.35 L1000.67,1263.7 L1003.03,1264.4 L1011.06,1264.95 L1022.08,1267.22 L1026.3,1265.92 L1039.58,1280.83 L1055.14,1301.25 L1054.02,1308.6 L1062.86,1324.11 L1063.65,1326.26 L1070.37,1326.21 L1074.26,1326.85 L1077.96,1327.39 L1079.04,1325.76 L1079.92,1324.88 L1081.08,1325.29 L1094.68,1326.53 L1102,1328.42 L1102.17,1328.21 L1104.04,1326.16 L1105.84,1324.16 L1106.97,1322.99 L1104.88,1320.43 L1102.3,1318.14 L1100.55,1315.9 L1099.96,1314.32 L1100.51,1313.26 L1101.8,1311.94 L1096.62,1306.76 L1104.73,1305.14 L1115.42,1299.95 L1123.2,1297.69 L1129.03,1293.47 L1136.85,1288.47 L1137.14,1288.29 L1140.7,1286.34 L1142.97,1282.45 L1147.83,1280.18 L1152.69,1282.45 L1157.3,1285.64 L1161.12,1288.29 L1165.98,1292.5 L1164.76,1297.12 L1161.52,1302.13 L1155.99,1305.26 L1156.01,1310.57 L1158.64,1317.42 L1159.96,1320.54 L1162.19,1323.28 L1161.12,1330.74 L1161.44,1337.23 L1164.36,1346.3 L1163.71,1352.13 L1165.01,1362.51 L1170.21,1362.3 L1174.46,1363.54 L1178.37,1364.15 L1182.3,1368.5 L1186.9,1378.47 L1188.22,1383.14 L1193.13,1389.37 L1197.71,1393.72 L1210.66,1413.11 L1219.67,1431.13 L1222.59,1435.75 L1219.29,1437.26 L1222.45,1442.12 L1225.61,1448.94 L1227.32,1455.02 L1226.59,1461.84 L1224.15,1468.65 L1220.75,1474.49 L1220.75,1480.33 L1219.29,1491.53 L1216.61,1498.59 L1214.91,1510.27 L1213.69,1518.06 L1214.42,1534.36 L1215.88,1540.21 L1219.04,1547.26 L1221.48,1557.24 L1226.83,1566.73 L1229.75,1574.28 L1230.73,1579.15 L1228.05,1581.58 L1225.81,1582.09 L1217.89,1580.59 L1205.25,1572.05 L1201.01,1573.3 L1196.87,1574.52 L1183.82,1567.75 L1175.53,1563.84 L1170.93,1563.52 L1165.37,1567.06 L1147.29,1567.46 L1142.78,1564.27 L1141.71,1563.52 L1136.62,1558.92 L1129.72,1554.49 L1121.68,1552.68 L1111.99,1553.5 L1106.58,1556.79 L1103.46,1561.71 L1096.29,1564.49 L1088.84,1564.49 L1084.75,1563.42 L1082.34,1562.73 L1075.97,1562.83 L1063.5,1565.23 L1052.79,1563.52 L1047.83,1561.21 L1040.32,1559.59 L1035.71,1558.9 L1030.05,1561.44 L1020.12,1564.44 L1011.81,1568.25 L1002,1574.72 L998.766,1575.18 L991.262,1576.61 L984.956,1578.87 L972.249,1587.99 L961.479,1593.7 L960.44,1595.32 L958.939,1596.35 L958.593,1593.93 L957.208,1592.89 L955.13,1594.05 L952.821,1598.66 L949.82,1598.89 L945.318,1597.51 L941.874,1593.55 L938.539,1589.26 L936.487,1586.62 L933.562,1577.69 L931.287,1555.76 L932.153,1553.07 L935.27,1552.47 L935.683,1550.32 L935.703,1550.22 L932.499,1541.82 L930.757,1536.62 L928.084,1528.66 L922.283,1520 L921.763,1517.32 L922.543,1515.93 L920.984,1514.37 L916.222,1512.55 L915.097,1510.04 L915.789,1508.4 L916.049,1506.15 L912.326,1496.8 L910.941,1491 L907.131,1478.87 L905.833,1461.9 L910.705,1457.63 L910.768,1457.58 L909.902,1439.74 L910.681,1436.88 L910.768,1432.81 L909.078,1428.58 L908.166,1425.48 L900.5,1423.65 L898.127,1429.49 L895.01,1433.85 L889.913,1438.07 L884.985,1440.63 L880.97,1441.36 L871.844,1438.07 L861.44,1432.41 L853.226,1426.57 L850.306,1422.37 L844.465,1418.18 L839.537,1415.07 L840.899,1418.7 L840.632,1421.1 L844.1,1424.57 L845.743,1426.94 L843.917,1428.95 L839.719,1429.31 L834.609,1428.76 L830.046,1426.03 L826.76,1423.11 L822.284,1416.88 L818.821,1413.59 L817.6,1414.07 L815.011,1415.07 L812.847,1414.46 L813.54,1412.64 L813.989,1412.29 L815.618,1411 L812.34,1410.51 L807.96,1409.05 L806.5,1405.76 L806.865,1401.93 L809.602,1397.73 L813.07,1392.99 L817.089,1390.65 L815.271,1389.26 L815.078,1386.42 L816.356,1384.41 L816.355,1381.85 L814.713,1379.48 L813.435,1375.83 L809.602,1373.82 L806.134,1372.73 L802.483,1365.06 L796.825,1359.77 L794.27,1352.83 L792.992,1346.99 L792.627,1341.51 L794.269,1332.75 L795.364,1327.28 L797.609,1316.45 L800.986,1311.52 L802.388,1304.05 L805.927,1288.92 L806.623,1288.44 L809.144,1286.67 L815.694,1283.91 L819.607,1282.25 L823.622,1280.56 L825.433,1272.23 L826.839,1265.76 L826.839,1265.76 L829.091,1257.07 L829.55,1257 L835.203,1256.11 L837.567,1261.4 L838.978,1263.72 L841.343,1268.68"/>
   <path fill-rule="evenodd" vector-effect="none" d="M1189.32,1575.99 L1196.71,1583.38 L1200.49,1588.96 L1201.31,1594.05 L1208.86,1603.74 L1203.6,1606.04 L1200.32,1604.56 L1193.51,1595.21 L1186.2,1586.83 L1177.66,1580.43 L1174.05,1580.92 L1176.01,1582.93 L1179.96,1586.99 L1170.6,1592.25 L1162.72,1586.01 L1155.5,1578.79 L1161.61,1575.23 L1170.77,1572.55 L1182.75,1572.05 L1189.32,1575.99"/>
   <path fill-rule="evenodd" vector-effect="none" d="M1133.34,1568.77 L1123.49,1576.65 L1110.02,1575.17 L1104.11,1571.4 L1110.02,1562.53 L1116.26,1556.46 L1122.17,1554.82 L1132.68,1558.43 L1138.26,1565.16 L1133.34,1568.77"/>
   <path fill-rule="evenodd" vector-effect="none" d="M1151.23,1585.68 L1160.59,1591.26 L1159.73,1598.59 L1152.87,1600.79 L1150.74,1595.04 L1144.17,1591.26 L1135.47,1592.58 L1124.63,1587.32 L1134.98,1584.04 L1144.83,1585.68 L1151.23,1585.68"/>
  </g>
  <g stroke="#232323" font-family="MS Shell Dlg 2" fill="#0000ff" font-weight="400" stroke-opacity="1" stroke-linejoin="bevel" stroke-linecap="square" stroke-width="3.07087" transform="matrix(0.999414,0,0,0.999414,0,0)" font-size="34.375" fill-opacity="1" font-style="normal">
   <path fill-rule="evenodd" vector-effect="none" d="M1094.13,827.66 L1094.38,834.594 L1094.33,834.694 L1091.96,839.694 L1090.31,843.174 L1087.6,848.593 L1090.68,849.209 L1090.87,850.265 L1091.67,851.441 L1093.27,852.38 L1095.61,852.376 L1090.76,858.076 L1093.39,860.259 L1093.64,861.198 L1094.87,861.784 L1094.15,866.882 L1094.6,870.494 L1097.7,871.306 L1100.17,872.596 L1103.13,873.652 L1100.02,879.074 L1102.5,882.235 L1105.66,884.945 L1104.08,886.751 L1100.25,889.46 L1100.02,891.041 L1104.99,898.492 L1107.25,902.33 L1105.66,906.394 L1110.75,907.034 L1112.48,907.855 L1114.32,907.268 L1116.73,912.039 L1113.57,917.458 L1110.38,923.497 L1107.79,920.795 L1107.18,920.091 L1106.19,919.387 L1104.96,919.27 L1103.47,919.274 L1100.25,918.813 L1098.67,921.296 L1101.37,926.038 L1108.15,933.037 L1106.57,936.198 L1103.18,938.005 L1100.13,938.27 L1099.41,936.68 L1099.9,934.212 L1099.28,932.449 L1097.43,930.685 L1094.84,930.337 L1088.73,928.747 L1084.89,934.166 L1080.83,941.391 L1081.28,944.553 L1082.91,945.813 L1082.87,945.871 L1082.87,947.4 L1083.54,952.003 L1077.44,956.971 L1075.41,960.358 L1075.38,960.445 L1073.15,967.583 L1070.44,970.97 L1067.95,970.464 L1066.45,968.065 L1067.59,961.412 L1067.87,956.93 L1063.77,958.845 L1060.22,968.416 L1061.31,976.619 L1064.59,980.448 L1067.09,981.049 L1068.94,982.222 L1073.14,982.214 L1073.6,989.936 L1076.76,993.548 L1079.7,996.032 L1077.89,1001.23 L1076.09,1004.16 L1074.73,1009.13 L1072.39,1011.5 L1072.39,1010.91 L1072.02,1009.32 L1071.16,1007.62 L1070.17,1006.2 L1068.82,1005.74 L1067.1,1005.74 L1065.02,1004.39 L1062.77,1006.64 L1067.96,1017.71 L1067.51,1020.64 L1063.22,1023.13 L1057.57,1025.61 L1053.81,1026.78 L1052.81,1027.1 L1050.47,1025.28 L1044.92,1018.23 L1041.99,1015.9 L1035.9,1017.48 L1034.32,1021.32 L1034.77,1025.38 L1038.38,1027.19 L1039.87,1027.19 L1040.21,1027.88 L1042.18,1028.93 L1045.76,1029.52 L1049.58,1029.28 L1051.93,1034.64 L1045.38,1036.22 L1041.32,1036.45 L1039.51,1039.61 L1041.09,1043.22 L1043.48,1043.7 L1047.61,1044.52 L1054.37,1042.7 L1056.71,1043.22 L1059.68,1045.26 L1060.96,1050.45 L1058.45,1051.14 L1056.35,1050.44 L1053.89,1050.67 L1051.02,1049.32 L1048.77,1051.8 L1046.73,1058.8 L1042.9,1060.16 L1035.9,1059.7 L1032.28,1061.28 L1032.28,1063.54 L1035.44,1066.03 L1038.72,1067.64 L1043.3,1071.05 L1045.27,1073.54 L1036.57,1076.19 L1037.93,1081.38 L1044.02,1086.35 L1047.86,1088.72 L1050.12,1096.73 L1053.18,1097.54 L1058.73,1099.08 L1064.47,1101.92 L1063.89,1107.12 L1063.89,1111.64 L1065.02,1115.02 L1066.89,1115.58 L1071.4,1117.41 L1074.13,1122.11 L1075.41,1128.57 L1073.38,1133.08 L1064.57,1138.05 L1063.22,1142.79 L1064.57,1145.5 L1066.48,1146.84 L1066.55,1147.44 L1066.73,1148.97 L1073.27,1151.75 L1074.91,1156.11 L1074.28,1162.98 L1072.04,1172.35 L1071.08,1180.46 L1069.14,1183.9 L1065.23,1186.1 L1063.29,1189.54 L1066.72,1197.42 L1070.55,1197.42 L1076.26,1191.53 L1079.57,1188.12 L1081.21,1185.94 L1085.59,1185.94 L1085.13,1189.46 L1085.15,1192.27 L1084.17,1194.77 L1079.96,1200.09 L1078.66,1202.28 L1084.48,1209.39 L1086.17,1213.85 L1082.96,1217.47 L1082.97,1220.98 L1089.49,1227.03 L1093.38,1227.36 L1099.87,1226.06 L1109.26,1229.95 L1118.66,1235.78 L1120.22,1241.43 L1118.28,1245.5 L1112.41,1247.08 L1112.4,1247.09 L1106.67,1247.77 L1105.05,1250.04 L1103.97,1255.22 L1103.14,1258.28 L1105.7,1261.39 L1110.89,1268.19 L1113.15,1273.38 L1118.66,1275.65 L1128.71,1280.51 L1140.7,1286.34 L1137.14,1288.29 L1136.85,1288.47 L1129.03,1293.47 L1123.2,1297.69 L1115.42,1299.95 L1104.73,1305.14 L1096.62,1306.76 L1101.8,1311.94 L1100.51,1313.26 L1099.96,1314.32 L1100.55,1315.9 L1102.3,1318.14 L1104.88,1320.43 L1106.97,1322.99 L1105.84,1324.16 L1104.04,1326.16 L1102.17,1328.21 L1102,1328.42 L1094.68,1326.53 L1081.08,1325.29 L1079.92,1324.88 L1079.04,1325.76 L1077.96,1327.39 L1074.26,1326.85 L1070.37,1326.21 L1063.65,1326.26 L1062.86,1324.11 L1054.02,1308.6 L1055.14,1301.25 L1039.58,1280.83 L1026.3,1265.92 L1022.08,1267.22 L1011.06,1264.95 L1003.03,1264.4 L1000.67,1263.7 L999.188,1264.35 L996.652,1264.43 L995.509,1265.64 L995.45,1267.53 L995.292,1269.26 L995.383,1271.54 L994.621,1274.95 L994.183,1275.25 L993.779,1275.53 L992.97,1275.69 L990.726,1276.13 L989.917,1277.36 L990.445,1280.45 L990.838,1281.42 L990.185,1282.94 L988.186,1284.36 L987.575,1284.73 L986.85,1285.58 L987.206,1286.68 L988.979,1287.35 L989.934,1287.02 L991.043,1286.72 L991.497,1287.54 L992.132,1289.18 L991.827,1290.83 L990.159,1292.04 L986.9,1292 L983.324,1291.77 L980.738,1292.19 L978.955,1292.58 L977.97,1292.21 L977.37,1290.57 L977.145,1288.84 L976.717,1285.34 L976.826,1283.9 L976.508,1280.98 L975.862,1279.12 L975.515,1275.63 L974.597,1271.52 L973.791,1266.9 L968.282,1258.47 L962.772,1257.5 L950.78,1259.12 L945.27,1259.12 L940.054,1262.07 L937.816,1263.33 L931.345,1262.04 L928.093,1261.39 L921.611,1260.41 L920.364,1261.37 L916.102,1264.63 L909.846,1263.63 L907.999,1263.33 L902.489,1264.63 L900.545,1268.52 L896.055,1268.2 L896.007,1268.19 L891.47,1269.17 L888.32,1267.37 L884.982,1265.46 L882.707,1266.25 L878.636,1265.11 L873.951,1265.92 L871.599,1268.01 L867.309,1269.13 L866.194,1266.43 L862.55,1266.08 L855.635,1265.22 L854.439,1265.07 L848.794,1264.62 L848.009,1266.52 L847.598,1267.51 L846.085,1269.36 L841.343,1268.68 L838.978,1263.72 L837.567,1261.4 L835.203,1256.11 L829.55,1257 L829.091,1257.07 L826.839,1265.76 L826.839,1265.76 L825.433,1272.23 L823.622,1280.56 L819.607,1282.25 L815.694,1283.91 L809.144,1286.67 L806.623,1288.44 L805.465,1286.47 L801.985,1285.8 L800.363,1284.5 L799.065,1278.01 L797.856,1270.28 L795.922,1250.15 L792.998,1239.68 L788.996,1233.68 L787.165,1224.57 L786.733,1220.25 L785.111,1213.11 L783.812,1200.78 L784.532,1192.43 L785.11,1187.48 L785.11,1182.93 L782.19,1181.96 L778.376,1179.8 L772.78,1180.99 L769.756,1180.11 L767.263,1176.12 L766.832,1171.8 L765.906,1166.97 L765.316,1159.9 L765.316,1154.38 L764.018,1145.94 L760.448,1136.53 L756.554,1130.69 L748.781,1126.23 L740.654,1123.88 L733.84,1118.36 L733.84,1109.92 L734.489,1096.62 L736.76,1085.91 L739.356,1077.47 L739.68,1070.33 L739.4,1058.78 L740.532,1048.59 L736.947,1039.53 L743.551,1032.37 L742.796,1026.14 L740.532,1019.54 L742.419,1017.27 L742.608,1015.38 L739.966,1010.86 L740.344,999.348 L739.778,988.405 L738.079,982.744 L734.117,977.839 L725.131,972.442 L716.91,968.116 L715.415,967.148 L709.555,963.356 L706.949,958.972 L711.477,948.784 L713.175,940.859 L718.646,932.747 L722.999,931.083 L736.947,928.973 L731.407,922.903 L737.588,921.164 L748.976,917.961 L760.689,912.773 L771.496,907.986 L780.359,903.555 L780.504,903.482 L787.261,905.734 L790.8,913.134 L787.904,920.856 L783.4,928.578 L779.218,936.299 L779.54,945.308 L785.331,951.099 L789.26,951.467 L791.954,951.72 L795.591,952.061 L795.626,952.064 L798.697,951.2 L805.921,949.168 L806.886,942.09 L810.103,934.368 L814.286,934.047 L818.147,940.803 L821.364,947.559 L824.566,948.983 L825.465,949.382 L827.155,950.133 L832.303,947.238 L832.311,947.203 L833.055,944.279 L833.114,944.049 L833.808,941.321 L834.236,939.586 L833.767,936.948 L835.458,934.461 L837.6,932.421 L839.414,930.694 L839.435,930.674 L848.524,928.402 L849.875,928.029 L851.373,927.616 L854.016,926.887 L856.856,922.342 L856.925,921.419 L857.017,920.171 L857.23,917.297 L857.235,917.229 L857.187,917.166 L853.52,912.4 L853.448,912.306 L853.139,912.209 L846.736,910.202 L840.95,911.359 L836.405,908.14 L836.301,907.967 L834.848,905.545 L832.997,902.459 L836.026,896.778 L836.988,896.114 L841.82,892.777 L843.98,891.287 L851.175,888.635 L852.723,887.761 L853.117,887.538 L855.531,886.174 L857.156,883.886 L860.644,878.978 L863.295,876.516 L867.167,875.799 L868.407,875.569 L873.899,878.221 L883.178,879.357 L888.291,880.493 L889.806,883.144 L892.316,886.358 L894.54,889.204 L896.513,890.355 L901.357,893.18 L904.513,897.766 L911.393,907.761 L911.788,908.031 L914.991,910.223 L920.482,908.708 L924.08,908.14 L931.655,913.442 L934.874,913.253 L937.525,914.768 L941.312,913.442 L944.342,912.685 L948.508,912.306 L954,911.17 L957.598,907.382 L957.787,904.353 L961.764,904.542 L965.551,902.838 L971.421,903.595 L976.913,900.376 L982.172,902.774 L980.806,895.969 L978.27,891.483 L976.905,885.631 L974.369,880.169 L972.976,878.832 L973.253,878.243 L973.056,876.073 L972.179,871.403 L973.883,870.835 L976.534,869.32 L978.238,867.995 L982.215,870.835 L988.53,865.278 L987.138,862.693 L989.032,858.716 L988.464,855.686 L987.896,853.603 L990.99,851.295 L988.384,848.949 L988.22,846.52 L987.105,843.391 L986.787,840.596 L988.267,837.865 L988.361,837.824 L988.275,836.182 L989.979,834.667 L992.819,832.395 L996.038,833.72 L999.447,836.371 L998.525,838.322 L999.53,839.955 L999.475,842.65 L1003.42,843.188 L1007.4,844.703 L1012.7,847.733 L1016.49,851.899 L1018.95,852.088 L1025.96,853.225 L1029.93,854.739 L1033.34,852.846 L1040.73,854.739 L1049.06,852.088 L1053.42,849.816 L1059.29,852.278 L1065.53,850.005 L1069.2,851.878 L1070.14,850.071 L1070.79,847.362 L1071.25,843.692 L1073.68,838.075 L1076.71,834.856 L1082.02,833.383 L1082.38,832.11 L1082.96,830.122 L1088.26,826.335 L1091.48,828.039 L1094.13,827.66"/>
  </g>
  <g stroke="#232323" font-family="MS Shell Dlg 2" fill="#0000ff" font-weight="400" stroke-opacity="1" stroke-linejoin="bevel" stroke-linecap="square" stroke-width="3.07087" transform="matrix(0.999414,0,0,0.999414,0,0)" font-size="34.375" fill-opacity="1" font-style="normal">
   <path fill-rule="evenodd" vector-effect="none" d="M997.147,280.673 L991.822,288.902 L992.832,295.466 L992.327,299.001 L992.075,301.273 L988.035,305.313 L980.965,305.566 L976.914,307.632 L972.633,305.818 L964.049,310.868 L962.534,313.645 L960.767,321.977 L957.484,328.794 L955.717,333.087 L953.444,343.438 L954.454,346.468 L954.202,351.013 L948.9,354.043 L946.122,354.043 L944.86,355.81 L947.637,359.597 L952.735,362.453 L951.677,364.9 L958.494,368.939 L961.272,370.959 L962.786,377.776 L961.524,382.574 L965.816,383.583 L968.846,387.876 L967.079,394.188 L968.089,396.208 L965.311,404.287 L966.069,408.579 L968.616,410.292 L972.633,415.396 L975.916,417.921 L975.663,424.233 L976.673,427.263 L981.669,428.975 L986.267,440.897 L988.035,443.927 L990.441,443.423 L991.547,444.6 L993.394,445.773 L995.606,447.063 L997.084,447.298 L998.068,447.177 L998.928,446.707 L999.912,446.942 L1001.51,447.88 L1003.23,448.701 L1004.96,449.17 L1005.94,449.053 L1006.34,448.446 L1007.94,450.49 L1012.09,451.043 L1015.22,454.391 L1018.61,458.293 L1020.68,457.91 L1027.44,456.665 L1028.94,458.908 L1027.06,462.842 L1028.57,463.606 L1029.44,465.978 L1032.72,470.522 L1031.71,477.339 L1032.47,479.864 L1031.21,484.156 L1028.68,489.206 L1024.9,491.983 L1024.14,497.538 L1023.66,507.586 L1023.66,509.115 L1024.28,510.761 L1025.88,512.169 L1026.62,513.229 L1026.38,515.579 L1020.94,526.169 L1019.96,527.815 L1016.96,533.158 L1017.36,537.579 L1016.99,538.991 L1018.72,541.458 L1019.34,542.749 L1021.93,545.333 L1022.54,546.276 L1022.42,547.922 L1022.54,549.564 L1022.91,550.859 L1022.91,551.449 L1022.79,552.153 L1021.43,553.33 L1021.43,553.917 L1022.17,554.859 L1023.53,555.68 L1025.01,555.915 L1026,556.618 L1026.49,557.44 L1026.37,558.026 L1025.87,558.265 L1025.5,559.086 L1025.75,559.794 L1026.98,560.145 L1027.6,560.142 L1028.46,560.611 L1029.33,561.788 L1030.56,562.609 L1032.41,562.961 L1033.77,562.957 L1035.12,563.66 L1036.09,565.307 L1037.32,566.835 L1038.07,567.774 L1037.45,568.716 L1036.21,568.716 L1035.11,568.951 L1033.87,570.132 L1033.87,571.778 L1034.74,573.303 L1035.23,574.007 L1035.23,574.832 L1034.24,575.657 L1033.01,577.773 L1032.51,580.597 L1032.39,582.125 L1032.02,583.42 L1030.91,584.245 L1031.28,586.36 L1032.14,587.064 L1032.14,588.593 L1031.64,589.418 L1030.41,590.24 L1030.04,591.065 L1029.92,591.772 L1030.16,592.77 L1032.26,594.826 L1032.62,595.648 L1032.5,596.825 L1031.51,597.65 L1030.53,598.588 L1030.53,599.883 L1032,602.585 L1032.62,604.231 L1034.47,606.229 L1038.53,607.871 L1040.88,609.983 L1042.48,614.452 L1043.21,618.096 L1043.09,620.564 L1041.49,622.449 L1039.64,625.038 L1039.14,627.388 L1040.37,628.795 L1042.28,630.559 L1042.46,631.618 L1043.32,632.557 L1044.68,633.495 L1045.29,634.199 L1046.28,634.668 L1047.63,634.903 L1048.86,634.903 L1049.72,635.841 L1049.72,636.188 L1049.72,637.37 L1049.96,638.664 L1051.19,639.603 L1052.67,639.72 L1053.9,640.307 L1055.75,641.597 L1056.63,642.241 L1057.08,644.286 L1061.2,647.41 L1060.07,651.529 L1061.2,653.943 L1063.04,655.111 L1065.74,656.166 L1068.57,658.16 L1071.53,658.981 L1068.45,664.737 L1064.9,667.151 L1065.89,670.702 L1070.86,677.803 L1071.9,674.736 L1073.14,677.086 L1073.01,678.733 L1073.88,679.671 L1074.49,678.85 L1074.74,677.321 L1076.96,679.315 L1077.57,680.257 L1078.81,680.374 L1080.66,683.626 L1080.38,685.188 L1082.36,687.745 L1083.61,688.363 L1084.71,690.596 L1086.56,691.296 L1088.17,691.061 L1089.52,689.528 L1090.88,687.764 L1091.87,686.822 L1093.16,692.005 L1093.16,695.556 L1093.87,698.396 L1088.47,701.521 L1084.64,702.515 L1083.22,704.787 L1084.59,707.289 L1085.08,708.935 L1086.19,709.874 L1089.27,709.987 L1091.37,709.279 L1092.48,709.396 L1093.46,710.339 L1094.81,710.925 L1096.05,711.214 L1096.67,711.508 L1097.29,712.332 L1096.55,713.744 L1096.55,715.39 L1098.15,716.446 L1101.49,717.556 L1103.22,722.564 L1099.43,728.623 L1099.24,731.085 L1099.62,735.062 L1099.62,739.985 L1097.16,739.796 L1093.56,739.038 L1090.72,740.364 L1089.58,744.341 L1080.49,747.181 L1077.84,748.696 L1077.46,751.536 L1077.28,753.051 L1078.6,758.164 L1076.33,761.951 L1075.57,764.981 L1076.31,767.975 L1076.49,769.266 L1077.67,769.618 L1078.53,769.265 L1079.39,767.854 L1080.38,766.321 L1081.99,765.969 L1083.96,765.73 L1086.31,766.316 L1087.31,769.526 L1083.9,773.503 L1083.52,775.586 L1087.76,775.252 L1086.9,775.721 L1086.28,776.898 L1087.63,778.075 L1089.23,777.954 L1089.98,776.659 L1090.71,775.951 L1091.48,777.479 L1090.34,780.13 L1089.02,781.835 L1091.29,784.107 L1089.21,786.19 L1089.58,788.273 L1092.24,792.06 L1094.89,794.901 L1096.38,794.442 L1097,795.698 L1097.37,795.698 L1098.72,795.815 L1093.75,796.794 L1091.1,798.877 L1091.1,802.286 L1092.99,803.99 L1096.78,808.724 L1099.21,809.099 L1098.86,813.648 L1097.35,815.541 L1098.29,818.192 L1100.93,819.684 L1101.42,819.919 L1102.27,823.116 L1105.98,824.615 L1107.45,825.323 L1108.56,825.675 L1109.06,826.379 L1110.04,826.965 L1110.41,828.377 L1110.28,829.315 L1109.92,829.906 L1108.56,830.14 L1106.71,830.144 L1105.36,829.202 L1103.26,827.56 L1102.16,826.973 L1100.93,826.622 L1097.92,824.82 L1095.08,825.199 L1094.13,827.66 L1091.48,828.039 L1088.26,826.335 L1082.96,830.122 L1082.38,832.11 L1082.02,833.383 L1076.71,834.856 L1073.68,838.075 L1071.25,843.692 L1070.79,847.362 L1070.14,850.071 L1069.2,851.878 L1065.53,850.005 L1059.29,852.278 L1053.42,849.816 L1049.06,852.088 L1040.73,854.739 L1033.34,852.846 L1029.93,854.739 L1025.96,853.225 L1018.95,852.088 L1016.49,851.899 L1012.7,847.733 L1007.4,844.703 L1003.42,843.188 L999.475,842.65 L999.53,839.955 L998.525,838.322 L999.447,836.371 L996.038,833.72 L992.819,832.395 L989.979,834.667 L988.275,836.182 L988.361,837.824 L988.267,837.865 L986.787,840.596 L987.105,843.391 L988.22,846.52 L988.384,848.949 L990.99,851.295 L987.896,853.603 L988.464,855.686 L989.032,858.716 L987.138,862.693 L988.53,865.278 L982.215,870.835 L978.238,867.995 L976.534,869.32 L973.883,870.835 L972.179,871.403 L973.056,876.073 L973.253,878.243 L972.976,878.832 L974.369,880.169 L976.905,885.631 L978.27,891.483 L980.806,895.969 L982.172,902.774 L976.913,900.376 L971.421,903.595 L965.551,902.838 L961.764,904.542 L957.787,904.353 L957.598,907.382 L954,911.17 L948.508,912.306 L944.342,912.685 L941.312,913.442 L937.525,914.768 L934.874,913.253 L931.655,913.442 L924.08,908.14 L920.482,908.708 L914.991,910.223 L911.788,908.031 L911.393,907.761 L904.513,897.766 L901.357,893.18 L896.513,890.355 L894.54,889.204 L892.316,886.358 L889.806,883.144 L888.291,880.493 L883.178,879.357 L873.899,878.221 L868.407,875.569 L867.167,875.799 L863.295,876.516 L860.644,878.978 L857.156,883.886 L855.531,886.174 L853.117,887.538 L852.723,887.761 L851.175,888.635 L843.98,891.287 L841.82,892.777 L836.988,896.114 L836.026,896.778 L832.997,902.459 L834.848,905.545 L836.301,907.967 L836.405,908.14 L840.95,911.359 L846.736,910.202 L853.139,912.209 L853.448,912.306 L853.52,912.4 L857.187,917.166 L857.235,917.229 L857.23,917.297 L857.017,920.171 L856.925,921.419 L856.856,922.342 L854.016,926.887 L851.373,927.616 L849.875,928.029 L848.524,928.402 L839.435,930.674 L839.414,930.694 L837.6,932.421 L835.458,934.461 L833.767,936.948 L834.236,939.586 L833.808,941.321 L833.114,944.049 L833.055,944.279 L832.311,947.203 L832.303,947.238 L827.155,950.133 L825.465,949.382 L824.566,948.983 L821.364,947.559 L818.147,940.803 L814.286,934.047 L810.103,934.368 L806.886,942.09 L805.921,949.168 L798.697,951.2 L795.626,952.064 L795.591,952.061 L791.954,951.72 L789.26,951.467 L785.331,951.099 L779.54,945.308 L779.218,936.299 L783.4,928.578 L787.904,920.856 L790.8,913.134 L787.261,905.734 L780.504,903.482 L780.359,903.555 L771.496,907.986 L760.689,912.773 L748.976,917.961 L737.588,921.164 L731.407,922.903 L732.495,921.296 L721.411,919.675 L711.689,918.779 L709.771,918.681 L703.497,918.359 L703.491,918.36 L697.007,919.657 L697.036,919.744 L698.301,923.565 L695.786,926.332 L693.979,939.993 L692.515,953.752 L687.736,962.808 L680.944,970.355 L679.702,976.337 L680.568,983.692 L686.195,996.14 L686.761,1006.14 L683.597,1013.98 L678.838,1024.36 L677.426,1029.01 L676.007,1033.69 L667.59,1045.13 L666.292,1054.22 L669.324,1064.82 L669.969,1067.08 L672.675,1070.69 L674.354,1072.93 L676.195,1075.38 L683.365,1081.42 L685.44,1091.23 L685.44,1109.91 L681.101,1121.42 L671.485,1139.89 L663.366,1149.53 L655.253,1152.17 L642.235,1148.78 L635.065,1137.27 L631.559,1128.24 L628.839,1121.23 L623.46,1108.3 L618.701,1097.48 L611.481,1084.25 L608.75,1081.48 L601.67,1069.53 L600.771,1066.34 L597.897,1056.14 L593.746,1052.36 L587.651,1048.3 L584.124,1045.95 L581.294,1038.03 L581.633,1036.04 L584.953,1016.58 L593.179,1002.63 L594.904,999.702 L602.258,976.338 L610.424,962.709 L615.94,952.649 L619.51,943.239 L622.105,928.961 L622.43,919.226 L621.022,911.248 L620.483,908.193 L618.535,897.484 L614.641,888.723 L609.449,878.014 L601.013,866.657 L590.953,858.22 L574.08,850.432 L555.909,842.645 L535.583,836.105 L524.179,829.061 L513.076,818.632 L499.447,807.275 L491.335,798.513 L489.752,795.347 L493.237,795.292 L513.348,794.975 L522.45,794.917 L558.308,794.687 L578.458,793.415 L585.688,792.958 L584.988,787.003 L584.535,783.159 L583.848,772.385 L583.671,769.613 L584.278,768.078 L584.288,768.054 L585.775,764.298 L586.72,761.909 L588.302,757.912 L589.147,755.779 L589.32,751.964 L589.39,750.431 L590.011,736.757 L595.776,733.587 L598.147,733.029 L605.575,731.281 L609.642,730.739 L609.898,730.705 L611.627,737.045 L611.66,737.382 L612.492,745.98 L616.527,750.015 L624.597,744.539 L625.672,743.463 L626.902,742.233 L627.64,743.312 L630.649,747.709 L635.26,750.879 L636.529,751.147 L640.736,752.032 L645.636,753.762 L647.285,755.533 L653.417,762.12 L653.503,762.158 L654.623,762.659 L664.369,767.019 L676.186,770.189 L682.815,767.596 L686.273,760.39 L690.596,754.626 L689.732,749.15 L687.426,739.928 L685.959,736.137 L685.582,735.164 L684.995,733.647 L683.968,730.993 L684.832,723.5 L691.173,721.77 L695.004,717.684 L695.496,717.159 L695.281,712.313 L695.043,706.967 L694.92,704.19 L699.819,696.12 L700.307,694.737 L701.548,691.22 L697.225,689.779 L692.614,687.762 L688.003,677.674 L685.104,675.903 L683.318,674.811 L682.815,674.504 L682.944,671.792 L683.103,668.452 L679.933,661.823 L675.321,661.823 L674.745,658.652 L674.922,657.706 L675.61,654.041 L677.915,647.412 L680.221,640.783 L685.409,634.731 L691.173,628.967 L694.055,628.967 L701.837,629.543 L707.313,631.273 L712.789,637.325 L713.365,630.696 L717.4,623.203 L724.317,624.932 L728.352,623.779 L734.099,622.684 L734.404,622.626 L734.404,620.609 L732.099,614.556 L731.407,611.237 L731.359,611.007 L731.131,609.912 L730.658,607.639 L732.059,606.861 L733.251,606.198 L732.963,604.181 L734.233,598.92 L734.254,598.835 L734.541,597.645 L734.981,595.823 L739.304,591.788 L739.36,590.036 L739.405,588.652 L739.432,587.822 L739.47,586.623 L739.517,585.183 L739.518,585.14 L739.592,582.853 L738.236,580.768 L736.422,578.53 L737.863,568.443 L741.898,565.849 L744.567,563.179 L747.374,560.373 L751.697,560.085 L760.055,560.949 L766.972,563.543 L774.177,563.255 L779.653,557.203 L784.28,557.038 L784.766,557.02 L787.723,556.915 L787.435,552.88 L781.382,550.862 L777.636,546.251 L772.448,540.487 L769.566,538.181 L770.142,533.57 L770.142,528.958 L763.802,530.976 L756.596,527.517 L752.562,528.382 L748.527,532.993 L745.933,533.281 L745.356,531.264 L745.644,524.347 L740.457,522.041 L738.727,514.548 L735.557,511.666 L709.042,503.884 L698.764,506.067 L698.239,506.179 L697.599,503.647 L706.689,494.053 L716.788,490.266 L725.878,488.751 L732.442,488.751 L739.512,493.548 L743.047,493.296 L749.652,490.83 L750.85,489.611 L752.031,488.396 L753.095,487.324 L754.988,486.168 L756.002,485.032 L758.465,483.302 L760.866,482.18 L762.382,482.272 L763.731,481.501 L766.475,479.704 L767.304,478.665 L768.703,477.304 L771.053,476.579 L772.75,476.545 L775.247,475.31 L776.893,474.057 L778.456,473.031 L779.855,471.942 L781.086,471.125 L783.587,470.446 L786.151,470.409 L788.35,469.78 L790.599,469.663 L793.481,470.584 L796.426,469.332 L796.46,467.895 L795.312,466.907 L794.026,466.014 L792.761,465.093 L791.207,464.875 L789.678,464.908 L787.96,464.465 L787.441,462.793 L788.341,461.306 L789.137,459.769 L789.737,458.897 L789.896,458.876 L790.644,458.586 L790.901,460.121 L792.505,461.532 L794.973,462.705 L797.318,464.347 L799.35,461.906 L802.637,457.956 L808.401,457.092 L812.436,457.956 L813.877,449.598 L812.724,444.122 L808.978,436.917 L809.266,427.983 L807.825,421.066 L808.689,418.76 L817.624,420.489 L826.27,420.777 L832.611,410.69 L836.646,396.568 L838.978,398.098 L840.704,397.625 L842.673,397.624 L844.273,398.446 L845.383,398.563 L846.862,397.034 L848.709,392.916 L850.808,389.619 L852.039,388.677 L854.008,388.559 L856.224,390.44 L858.805,394.906 L861.511,397.373 L864.711,400.661 L867.175,400.54 L871.142,399.824 L873.977,398.998 L878.657,400.167 L884.693,402.392 L890.972,406.736 L892.078,410.497 L893.063,412.495 L894.667,413.903 L897.005,413.899 L898.24,411.783 L899.229,409.194 L898.366,404.729 L898.123,399.673 L897.633,395.203 L898.621,392.736 L900.842,388.145 L904.913,384.852 L907.624,383.906 L909.102,382.963 L912.676,379.901 L913.539,378.137 L912.927,374.962 L911.821,371.439 L912.068,367.087 L912.324,361.205 L915.532,353.912 L917.627,346.854 L918.985,342.501 L921.452,339.795 L924.162,338.735 L926.5,338.614 L927.691,323.492 L926.176,310.868 L930.973,309.858 L934.508,310.868 L942.77,316.139 L946.627,313.645 L950.667,313.393 L950.667,309.1 L950.282,298.133 L950.162,294.709 L949.91,281.832 L954.959,271.228 L963.132,270.961 L969.056,273.307 L973.747,277.534 L978.066,281.057 L981.275,286.695 L983.374,288.224 L986.335,288.806 L987.365,284.791 L981.687,275.012 L984.21,269.019 L988.392,267.17 L990.612,266.931 L992.581,268.695 L993.813,272.687 L994.625,274.739 L995.907,277.978 L997.147,280.673"/>
  </g>
  <g stroke="#232323" font-family="MS Shell Dlg 2" fill="#e31a1c" font-weight="400" stroke-opacity="1" stroke-linejoin="bevel" stroke-linecap="square" stroke-width="3.07087" transform="matrix(0.999414,0,0,0.999414,0,0)" font-size="34.375" fill-opacity="1" font-style="normal">
   <path fill-rule="evenodd" vector-effect="none" d="M414.437,392.298 L416.838,388.811 L416.835,388.681 L417.117,388.407 L419.444,388.446 L421.354,388.367 L423.059,388.019 L427.188,383.465 L427.441,380.687 L427.188,377.405 L430.218,377.153 L431.733,379.173 L438.298,374.88 L444.862,372.86 L446.377,374.123 L449.408,378.003 L449.789,379.147 L449.688,379.24 L450.417,382.455 L450.097,384.464 L450.745,385.43 L450.929,386.926 L457.487,385.485 L460.769,385.737 L463.041,382.707 L465.314,381.445 L471.878,380.687 L474.655,380.182 L476.423,377.405 L478.695,376.395 L482.937,382.82 L483.373,381.052 L482.673,379.134 L481.823,377.827 L482.916,376.415 L481.725,373.113 L483.997,370.083 L490.057,368.821 L493.592,369.578 L494.126,373.931 L499.146,377.658 L506.216,378.92 L507.731,379.678 L515.053,385.737 L517.127,388.756 L518.84,388.262 L522.628,385.99 L528.435,386.747 L534.242,384.727 L541.564,383.465 L544.089,384.222 L543.996,386.834 L545.91,388.551 L546.384,388.903 L546.778,389.196 L547.23,390.549 L547.452,392.195 L547.553,393.31 L547.657,394.139 L547.926,395.848 L550.401,395.837 L552.168,399.119 L553.936,399.119 L555.956,403.411 L557.975,405.431 L560.248,410.733 L563.53,412.501 L564.792,414.268 L567.317,419.318 L570.347,424.62 L571.357,429.417 L573.882,429.922 L579.184,430.427 L586.759,433.962 L596.606,433.962 L605.442,434.972 L615.542,440.526 L621.097,444.314 L621.349,450.373 L624.631,454.918 L627.771,456.928 L639.275,458.958 L647.607,460.725 L656.444,465.522 L656.192,469.057 L658.717,472.339 L659.129,476.561 L659.282,476.768 L659.932,477.597 L659.37,479.034 L657.522,479.725 L655.709,480.257 L653.694,481.015 L652.282,481.819 L651.164,483.101 L650.385,484.027 L650.138,485.531 L650.527,486.918 L650.493,488.338 L650.414,490.239 L650.481,491.802 L650.552,492.472 L650.619,494.198 L650.736,495.605 L651.101,497.042 L651.101,498.416 L657.665,507.694 L658.36,516.907 L658.787,518.39 L658.583,519.864 L658.842,521.535 L659.047,522.83 L659.341,524.371 L659.458,525.356 L660.07,526.022 L661.045,526.294 L661.883,526.658 L663.303,527.12 L665.025,527.45 L667.3,527.375 L669.642,527.157 L675.886,523.341 L680.43,524.099 L685.228,518.544 L691.287,519.049 L694.317,512.232 L697.682,508.005 L698.332,506.547 L698.239,506.179 L698.764,506.067 L709.042,503.884 L735.557,511.666 L738.727,514.548 L740.457,522.041 L745.644,524.347 L745.356,531.264 L745.933,533.281 L748.527,532.993 L752.562,528.382 L756.596,527.517 L763.802,530.976 L770.142,528.958 L770.142,533.57 L769.566,538.181 L772.448,540.487 L777.636,546.251 L781.382,550.862 L787.435,552.88 L787.723,556.915 L784.766,557.02 L784.28,557.038 L779.653,557.203 L774.177,563.255 L766.972,563.543 L760.055,560.949 L751.697,560.085 L747.374,560.373 L744.567,563.179 L741.898,565.849 L737.863,568.443 L736.422,578.53 L738.236,580.768 L739.592,582.853 L739.518,585.14 L739.517,585.183 L739.47,586.623 L739.432,587.822 L739.405,588.652 L739.36,590.036 L739.304,591.788 L734.981,595.823 L734.541,597.645 L734.254,598.835 L734.233,598.92 L732.963,604.181 L733.251,606.198 L732.059,606.861 L730.658,607.639 L731.131,609.912 L731.359,611.007 L731.407,611.237 L732.099,614.556 L734.404,620.609 L734.404,622.626 L734.099,622.684 L728.352,623.779 L724.317,624.932 L717.4,623.203 L713.365,630.696 L712.789,637.325 L707.313,631.273 L701.837,629.543 L694.055,628.967 L691.173,628.967 L685.409,634.731 L680.221,640.783 L677.915,647.412 L675.61,654.041 L674.922,657.706 L674.745,658.652 L675.321,661.823 L679.933,661.823 L683.103,668.452 L682.944,671.792 L682.815,674.504 L683.318,674.811 L685.104,675.903 L688.003,677.674 L692.614,687.762 L697.225,689.779 L701.548,691.22 L700.307,694.737 L699.819,696.12 L694.92,704.19 L695.043,706.967 L695.281,712.313 L695.496,717.159 L695.004,717.684 L691.173,721.77 L684.832,723.5 L683.968,730.993 L684.995,733.647 L685.582,735.164 L685.959,736.137 L687.426,739.928 L689.732,749.15 L690.596,754.626 L686.273,760.39 L682.815,767.596 L676.186,770.189 L664.369,767.019 L654.623,762.659 L653.503,762.158 L653.417,762.12 L647.285,755.533 L645.636,753.762 L640.736,752.032 L636.529,751.147 L635.26,750.879 L630.649,747.709 L627.64,743.312 L626.902,742.233 L625.672,743.463 L624.597,744.539 L616.527,750.015 L612.492,745.98 L611.66,737.382 L611.627,737.045 L609.898,730.705 L609.642,730.739 L605.575,731.281 L598.147,733.029 L595.776,733.587 L590.011,736.757 L589.39,750.431 L589.32,751.964 L589.147,755.779 L588.302,757.912 L586.72,761.909 L585.775,764.298 L584.288,768.054 L584.278,768.078 L583.671,769.613 L583.848,772.385 L584.535,783.159 L584.988,787.003 L585.688,792.958 L578.458,793.415 L558.308,794.687 L522.45,794.917 L513.348,794.975 L493.237,795.292 L489.752,795.347 L487.441,790.725 L485.17,782.613 L485.494,768.01 L486.467,761.845 L491.334,753.732 L494.255,745.944 L495.877,738.481 L492.307,729.719 L491.009,726.15 L484.519,719.66 L479.652,715.441 L472.189,713.494 L461.481,715.766 L448.177,719.66 L439.416,718.687 L429.357,715.118 L425.787,712.197 L423.516,707.005 L422.542,700.84 L424.813,691.429 L427.085,684.29 L418.903,681.842 L421.639,677.396 L431.576,665.956 L435.937,653.373 L436.509,639.073 L432.505,617.91 L427.357,601.323 L418.777,585.88 L411.914,576.156 L413.697,561.616 L413.324,559.66 L413.4,557.578 L413.378,555.638 L415.582,547.766 L415.33,533.689 L417.341,512.572 L412.813,503.229 L412.449,500.699 L412.188,498.224 L411.941,495.119 L412.046,491.609 L412.118,488.103 L412.561,485.334 L412.448,482.984 L412.633,480.232 L412.738,478.028 L412.825,475.821 L412.905,475.117 L409.912,473.496 L405.889,467.965 L405.638,456.653 L415.741,434.798 L415.942,432.85 L416.265,430.533 L415.817,427.551 L414.668,424.506 L413.001,421.414 L411.77,418.867 L417.9,408.918 L414.718,401.393 L413.18,397.326 L414.437,392.298"/>
  </g>
  <g stroke="#000000" font-family="MS Shell Dlg 2" fill="none" font-weight="400" stroke-opacity="1" stroke-linejoin="bevel" stroke-linecap="square" stroke-width="1" transform="matrix(11.8041,0,0,11.8041,0,0)" font-size="34.375" font-style="normal"/>
  <g stroke="#000000" font-family="MS Shell Dlg 2" fill="none" font-weight="400" stroke-opacity="1" stroke-linejoin="bevel" stroke-linecap="square" stroke-width="1" transform="matrix(11.8041,0,0,11.8041,0,0)" font-size="34.375" font-style="normal"/>
  <g stroke="#000000" font-family="MS Shell Dlg 2" fill="none" font-weight="400" stroke-opacity="1" stroke-linejoin="bevel" stroke-linecap="square" stroke-width="1" transform="matrix(11.8041,0,0,11.8041,0,0)" font-size="34.375" font-style="normal"/>
  <g stroke="#000000" font-family="MS Shell Dlg 2" fill="none" font-weight="400" stroke-opacity="1" stroke-linejoin="bevel" stroke-linecap="square" stroke-width="1" transform="matrix(1,0,0,1,0,0)" font-size="34.375" font-style="normal"/>
  <g stroke="#000000" font-family="MS Shell Dlg 2" fill="none" font-weight="400" stroke-opacity="1" stroke-linejoin="bevel" stroke-linecap="square" stroke-width="1" transform="matrix(11.8041,0,0,11.8041,0,0)" font-size="34.375" font-style="normal"/>
  <g stroke="#000000" font-family="MS Shell Dlg 2" fill="none" font-weight="400" stroke-opacity="1" stroke-linejoin="bevel" stroke-linecap="square" stroke-width="1" transform="matrix(11.8041,0,0,11.8041,0,0)" font-size="34.375" font-style="normal"/>
  <g stroke="#000000" font-family="MS Shell Dlg 2" fill="none" font-weight="400" stroke-opacity="1" stroke-linejoin="bevel" stroke-linecap="square" stroke-width="1" transform="matrix(11.8041,0,0,11.8041,0,0)" font-size="34.375" font-style="normal"/>
  <g stroke="#000000" font-family="MS Shell Dlg 2" fill="none" font-weight="400" stroke-opacity="1" stroke-linejoin="bevel" stroke-linecap="square" stroke-width="1" transform="matrix(11.8041,0,0,11.8041,0,0)" font-size="34.375" font-style="normal"/>
  <g stroke="#000000" font-family="MS Shell Dlg 2" fill="none" font-weight="400" stroke-opacity="1" stroke-linejoin="bevel" stroke-linecap="square" stroke-width="1" transform="matrix(1,0,0,1,0,0)" font-size="34.375" font-style="normal"/>
 </g>
 <metadata>
  <rdf:RDF xmlns:dc="http://purl.org/dc/elements/1.1/" xmlns:rdf="http://www.w3.org/1999/02/22-rdf-syntax-ns#" xmlns:rdfs="http://www.w3.org/2000/01/rdf-schema#">
   <rdf:Description dc:format="image/svg+xml" dc:description="" dc:identifier="" dc:date="2020-12-09T09:03:21" dc:title="">
    <dc:creator>
     <rdf:Bag>
      <rdf:li>MSH</rdf:li>
     </rdf:Bag>
    </dc:creator>
    <dc:publisher>
     <rdf:Bag>
      <rdf:li>QGIS 3.12.2-București</rdf:li>
     </rdf:Bag>
    </dc:publisher>
    <dc:subject>
     <rdf:Bag/>
    </dc:subject>
   </rdf:Description>
   <cc:Work rdf:about="">
    <dc:format>image/svg+xml</dc:format>
    <dc:title></dc:title>
    <dc:date>2020-12-09T09:03:21</dc:date>
    <dc:identifier></dc:identifier>
    <dc:description></dc:description>
    <dc:creator>
     <cc:Agent>
      <dc:title>MSH</dc:title>
     </cc:Agent>
    </dc:creator>
    <dc:publisher>
     <cc:Agent>
      <dc:title>QGIS 3.12.2-București</dc:title>
     </cc:Agent>
    </dc:publisher>
   </cc:Work>
  </rdf:RDF>
 </metadata>
</svg>
