<?xml version='1.0' encoding='UTF-8' standalone='no'?>
<svg baseProfile="tiny" xmlns:xlink="http://www.w3.org/1999/xlink" width="172.212mm" xmlns="http://www.w3.org/2000/svg" xmlns:cc="http://creativecommons.org/ns#" version="1.2" height="172.72mm" viewBox="0 0 2034 2040">
 <defs/>
 <g stroke="black" fill="none" fill-rule="evenodd" stroke-linejoin="bevel" stroke-linecap="square" stroke-width="1">
  <g stroke="#000000" font-family="MS Shell Dlg 2" fill="none" font-weight="400" stroke-opacity="1" stroke-linejoin="bevel" stroke-linecap="square" stroke-width="1" transform="matrix(1,0,0,1,0,0)" font-size="34.375" font-style="normal"/>
  <g stroke="#000000" font-family="MS Shell Dlg 2" fill="none" font-weight="400" stroke-opacity="1" stroke-linejoin="bevel" stroke-linecap="square" stroke-width="1" transform="matrix(1,0,0,1,0,0)" font-size="34.375" font-style="normal"/>
  <g stroke="#000000" font-family="MS Shell Dlg 2" fill="none" font-weight="400" stroke-opacity="1" stroke-linejoin="bevel" stroke-linecap="square" stroke-width="1" transform="matrix(11.8064,0,0,11.8064,0,0)" font-size="34.375" font-style="normal"/>
  <g stroke="#000000" font-family="MS Shell Dlg 2" fill="none" font-weight="400" stroke-opacity="1" stroke-linejoin="bevel" stroke-linecap="square" stroke-width="1" transform="matrix(0.999607,0,0,0.999607,0,0)" font-size="34.375" font-style="normal"/>
  <g stroke="none" font-family="MS Shell Dlg 2" fill="#ffffff" font-weight="400" transform="matrix(0.999607,0,0,0.999607,0,0)" font-size="34.375" fill-opacity="1" font-style="normal">
   <path fill-rule="evenodd" vector-effect="none" d="M-2,-2 L2037,-2 L2037,2043 L-2,2043 L-2,-2"/>
  </g>
  <g stroke="#000000" font-family="MS Shell Dlg 2" fill="none" font-weight="400" stroke-opacity="1" stroke-linejoin="bevel" stroke-linecap="square" stroke-width="1" transform="matrix(0.999607,0,0,0.999607,0,0)" font-size="34.375" font-style="normal"/>
  <g stroke="#000000" font-family="MS Shell Dlg 2" fill="none" font-weight="400" stroke-opacity="1" stroke-linejoin="bevel" stroke-linecap="square" stroke-width="1" transform="matrix(11.8064,0,0,11.8064,0,0)" font-size="34.375" font-style="normal"/>
  <g stroke="#000000" font-family="MS Shell Dlg 2" fill="none" font-weight="400" stroke-opacity="1" stroke-linejoin="bevel" stroke-linecap="square" stroke-width="1" transform="matrix(11.8064,0,0,11.8064,0,0)" font-size="34.375" font-style="normal"/>
  <g stroke="#000000" font-family="MS Shell Dlg 2" fill="none" font-weight="400" stroke-opacity="1" stroke-linejoin="bevel" stroke-linecap="square" stroke-width="1" transform="matrix(11.8064,0,0,11.8064,0,0)" font-size="34.375" font-style="normal"/>
  <g stroke="#000000" font-family="MS Shell Dlg 2" fill="none" font-weight="400" stroke-opacity="1" stroke-linejoin="bevel" stroke-linecap="square" stroke-width="1" transform="matrix(11.8064,0,0,11.8064,0,0)" font-size="34.375" font-style="normal"/>
  <g stroke="#000000" font-family="MS Shell Dlg 2" fill="none" font-weight="400" stroke-opacity="1" stroke-linejoin="bevel" stroke-linecap="square" stroke-width="1" transform="matrix(11.8064,0,0,11.8064,0,0)" font-size="34.375" font-style="normal"/>
  <g stroke="#000000" font-family="MS Shell Dlg 2" fill="none" font-weight="400" stroke-opacity="1" stroke-linejoin="bevel" stroke-linecap="square" stroke-width="1" transform="matrix(11.8064,0,0,11.8064,0,0)" font-size="34.375" font-style="normal"/>
  <g stroke="none" font-family="MS Shell Dlg 2" fill="#000000" font-weight="400" transform="matrix(0.999607,0,0,0.999607,0,0)" font-size="34.375" fill-opacity="0" font-style="normal">
   <rect x="0" y="0" width="2034" height="2041"/>
  </g>
  <g stroke="#232323" font-family="MS Shell Dlg 2" fill="#e31a1c" font-weight="400" stroke-opacity="1" stroke-linejoin="bevel" stroke-linecap="square" stroke-width="3.07087" transform="matrix(0.999607,0,0,0.999607,0,0)" font-size="34.375" fill-opacity="1" font-style="normal">
   <path fill-rule="evenodd" vector-effect="none" d="M1042.2,1420.22 L1048.07,1421.06 L1049.95,1418.77 L1050.46,1417.53 L1051.43,1415.18 L1058.42,1415.74 L1059.9,1415.93 L1068.47,1416.99 L1072.98,1417.42 L1074.36,1420.78 L1079.68,1419.38 L1082.59,1416.8 L1088.4,1415.8 L1093.44,1417.21 L1096.26,1416.23 L1100.39,1418.59 L1104.29,1420.82 L1109.91,1419.61 L1109.97,1419.62 L1115.53,1420.01 L1117.94,1415.19 L1124.77,1413.59 L1127.06,1413.96 L1134.81,1415.19 L1140.09,1411.16 L1141.63,1409.98 L1149.66,1411.18 L1153.69,1411.99 L1161.7,1413.59 L1164.48,1412.02 L1170.94,1408.37 L1177.76,1408.37 L1192.62,1406.36 L1199.44,1407.57 L1206.27,1418.01 L1207.27,1423.73 L1208.4,1428.82 L1208.83,1433.15 L1209.63,1435.46 L1210.03,1439.07 L1209.89,1440.86 L1210.42,1445.19 L1210.7,1447.33 L1211.44,1449.36 L1212.66,1449.82 L1214.87,1449.34 L1218.08,1448.82 L1222.51,1449.1 L1226.54,1449.15 L1228.61,1447.65 L1228.99,1445.61 L1228.2,1443.58 L1227.64,1442.56 L1226.26,1442.93 L1225.08,1443.34 L1222.88,1442.52 L1222.44,1441.14 L1223.34,1440.1 L1224.1,1439.64 L1226.58,1437.87 L1227.38,1435.99 L1226.9,1434.8 L1226.24,1430.96 L1227.24,1429.44 L1230.03,1428.9 L1231.03,1428.7 L1231.53,1428.36 L1232.07,1427.98 L1233.01,1423.75 L1232.9,1420.94 L1233.1,1418.79 L1233.17,1416.45 L1234.59,1414.95 L1237.73,1414.85 L1239.57,1414.04 L1242.48,1414.91 L1252.44,1415.6 L1266.09,1418.41 L1271.31,1416.8 L1287.77,1435.27 L1307.04,1460.56 L1305.65,1469.66 L1316.6,1488.88 L1317.58,1491.54 L1325.91,1491.47 L1330.72,1492.28 L1335.3,1492.94 L1336.64,1490.92 L1337.73,1489.84 L1339.17,1490.34 L1356.02,1491.88 L1365.09,1494.22 L1365.29,1493.95 L1367.61,1491.41 L1369.85,1488.94 L1371.24,1487.49 L1368.65,1484.32 L1365.45,1481.48 L1363.29,1478.71 L1362.56,1476.76 L1363.23,1475.43 L1364.83,1473.8 L1358.43,1467.39 L1368.46,1465.38 L1381.71,1458.96 L1391.35,1456.15 L1398.57,1450.93 L1408.25,1444.73 L1408.61,1444.5 L1413.03,1442.09 L1415.84,1437.28 L1421.86,1434.47 L1427.88,1437.28 L1433.59,1441.23 L1438.32,1444.5 L1444.34,1449.72 L1442.82,1455.44 L1438.81,1461.64 L1431.96,1465.53 L1431.98,1472.1 L1435.25,1480.59 L1436.88,1484.45 L1439.64,1487.85 L1438.32,1497.1 L1438.72,1505.12 L1442.33,1516.37 L1441.53,1523.59 L1443.14,1536.44 L1449.58,1536.19 L1454.84,1537.72 L1459.68,1538.47 L1464.55,1543.87 L1470.25,1556.22 L1471.89,1562.01 L1477.98,1569.71 L1483.65,1575.1 L1499.68,1599.12 L1510.84,1621.44 L1514.47,1627.17 L1510.37,1629.04 L1514.29,1635.07 L1518.21,1643.51 L1520.32,1651.04 L1519.41,1659.49 L1516.4,1667.93 L1512.18,1675.16 L1512.18,1682.4 L1510.37,1696.27 L1507.06,1705.01 L1504.95,1719.48 L1503.44,1729.13 L1504.34,1749.33 L1506.15,1756.56 L1510.07,1765.3 L1513.09,1777.67 L1519.72,1789.42 L1523.34,1798.77 L1524.54,1804.8 L1521.23,1807.81 L1518.45,1808.45 L1508.64,1806.59 L1492.98,1796.01 L1487.73,1797.56 L1482.61,1799.06 L1466.44,1790.69 L1456.17,1785.85 L1450.47,1785.44 L1443.58,1789.82 L1421.19,1790.32 L1415.6,1786.37 L1414.27,1785.44 L1407.97,1779.74 L1399.43,1774.25 L1389.46,1772.02 L1377.46,1773.03 L1370.75,1777.1 L1366.89,1783.2 L1358.01,1786.64 L1348.78,1786.64 L1343.72,1785.31 L1340.73,1784.47 L1332.84,1784.58 L1317.4,1787.56 L1304.13,1785.44 L1297.98,1782.58 L1288.68,1780.58 L1282.96,1779.72 L1275.96,1782.87 L1263.66,1786.58 L1253.36,1791.3 L1241.21,1799.31 L1237.2,1799.88 L1227.91,1801.66 L1220.1,1804.46 L1204.36,1815.76 L1191.02,1822.83 L1189.73,1824.83 L1187.87,1826.12 L1187.44,1823.11 L1185.73,1821.83 L1183.15,1823.26 L1180.29,1828.98 L1176.57,1829.26 L1171,1827.55 L1166.73,1822.64 L1162.6,1817.32 L1160.06,1814.06 L1156.43,1803 L1153.62,1775.83 L1154.69,1772.5 L1158.55,1771.75 L1159.06,1769.09 L1159.09,1768.96 L1155.12,1758.56 L1152.96,1752.13 L1149.65,1742.26 L1142.46,1731.53 L1141.82,1728.21 L1142.78,1726.49 L1140.85,1724.56 L1134.95,1722.31 L1133.56,1719.2 L1134.42,1717.16 L1134.74,1714.37 L1130.13,1702.79 L1128.41,1695.6 L1123.69,1680.59 L1122.09,1659.57 L1128.12,1654.27 L1128.2,1654.21 L1127.13,1632.11 L1128.09,1628.57 L1128.2,1623.53 L1126.11,1618.29 L1124.97,1614.44 L1115.48,1612.18 L1112.54,1619.42 L1108.68,1624.82 L1102.37,1630.05 L1096.26,1633.21 L1091.29,1634.12 L1079.98,1630.05 L1067.09,1623.04 L1056.92,1615.8 L1053.3,1610.6 L1046.07,1605.4 L1039.96,1601.56 L1041.65,1606.05 L1041.32,1609.02 L1045.61,1613.31 L1047.65,1616.25 L1045.39,1618.74 L1040.19,1619.19 L1033.86,1618.52 L1028.2,1615.12 L1024.14,1611.51 L1018.59,1603.8 L1014.3,1599.72 L1012.79,1600.31 L1009.58,1601.55 L1006.9,1600.8 L1007.76,1598.54 L1008.31,1598.1 L1010.33,1596.51 L1006.27,1595.9 L1000.85,1594.1 L999.038,1590.03 L999.49,1585.28 L1002.88,1580.08 L1007.18,1574.2 L1012.16,1571.3 L1009.9,1569.59 L1009.66,1566.06 L1011.25,1563.57 L1011.25,1560.41 L1009.21,1557.47 L1007.63,1552.94 L1002.88,1550.46 L998.585,1549.1 L994.063,1539.6 L987.054,1533.05 L983.888,1524.45 L982.305,1517.22 L981.853,1510.44 L983.888,1499.58 L985.244,1492.8 L988.025,1479.39 L992.208,1473.28 L993.945,1464.02 L998.329,1445.29 L999.191,1444.69 L1002.31,1442.5 L1010.43,1439.08 L1015.27,1437.03 L1020.25,1434.93 L1022.49,1424.61 L1024.23,1416.6 L1024.23,1416.59 L1027.02,1405.83 L1027.59,1405.74 L1034.59,1404.64 L1037.52,1411.2 L1039.27,1414.07 L1042.2,1420.22"/>
   <path fill-rule="evenodd" vector-effect="none" d="M1473.25,1800.89 L1482.4,1810.05 L1487.08,1816.96 L1488.1,1823.27 L1497.45,1835.27 L1490.95,1838.11 L1486.88,1836.28 L1478.45,1824.7 L1469.39,1814.32 L1458.81,1806.39 L1454.34,1807 L1456.76,1809.49 L1461.66,1814.52 L1450.07,1821.03 L1440.31,1813.3 L1431.36,1804.35 L1438.92,1799.95 L1450.27,1796.62 L1465.12,1796.01 L1473.25,1800.89"/>
   <path fill-rule="evenodd" vector-effect="none" d="M1403.9,1791.95 L1391.7,1801.71 L1375.02,1799.88 L1367.7,1795.2 L1375.02,1784.22 L1382.75,1776.69 L1390.07,1774.66 L1403.09,1779.13 L1410,1787.47 L1403.9,1791.95"/>
   <path fill-rule="evenodd" vector-effect="none" d="M1426.07,1812.89 L1437.66,1819.81 L1436.6,1828.89 L1428.1,1831.6 L1425.46,1824.49 L1417.32,1819.81 L1406.55,1821.44 L1393.12,1814.93 L1405.94,1810.86 L1418.14,1812.89 L1426.07,1812.89"/>
  </g>
  <g stroke="#232323" font-family="MS Shell Dlg 2" fill="#0000ff" font-weight="400" stroke-opacity="1" stroke-linejoin="bevel" stroke-linecap="square" stroke-width="3.07087" transform="matrix(0.999607,0,0,0.999607,0,0)" font-size="34.375" fill-opacity="1" font-style="normal">
   <path fill-rule="evenodd" vector-effect="none" d="M1355.33,873.909 L1355.64,882.498 L1355.58,882.622 L1352.65,888.815 L1350.6,893.126 L1347.25,899.839 L1351.07,900.601 L1351.3,901.909 L1352.29,903.367 L1354.27,904.53 L1357.17,904.525 L1351.16,911.586 L1354.42,914.29 L1354.73,915.453 L1356.26,916.179 L1355.36,922.494 L1355.92,926.969 L1359.76,927.974 L1362.81,929.572 L1366.48,930.88 L1362.63,937.597 L1365.71,941.512 L1369.62,944.869 L1367.67,947.106 L1362.91,950.463 L1362.63,952.42 L1368.78,961.65 L1371.58,966.405 L1369.62,971.439 L1375.93,972.232 L1378.06,973.249 L1380.35,972.522 L1383.33,978.432 L1379.41,985.144 L1375.47,992.625 L1372.26,989.278 L1371.5,988.406 L1370.27,987.534 L1368.75,987.389 L1366.91,987.394 L1362.91,986.822 L1360.95,989.899 L1364.31,995.772 L1372.7,1004.44 L1370.74,1008.36 L1366.55,1010.6 L1362.77,1010.92 L1361.87,1008.95 L1362.48,1005.9 L1361.71,1003.71 L1359.42,1001.53 L1356.21,1001.1 L1348.65,999.129 L1343.89,1005.84 L1338.86,1014.79 L1339.42,1018.71 L1341.43,1020.27 L1341.38,1020.34 L1341.38,1022.23 L1342.21,1027.94 L1334.66,1034.09 L1332.14,1038.29 L1332.11,1038.39 L1329.35,1047.24 L1325.99,1051.43 L1322.91,1050.8 L1321.04,1047.83 L1322.45,1039.59 L1322.81,1034.04 L1317.73,1036.41 L1313.32,1048.27 L1314.68,1058.43 L1318.74,1063.17 L1321.84,1063.92 L1324.13,1065.37 L1329.33,1065.36 L1329.91,1074.92 L1333.82,1079.4 L1337.46,1082.48 L1335.22,1088.91 L1332.98,1092.55 L1331.31,1098.7 L1328.4,1101.63 L1328.4,1100.9 L1327.94,1098.94 L1326.88,1096.83 L1325.66,1095.08 L1323.98,1094.5 L1321.85,1094.5 L1319.28,1092.82 L1316.48,1095.62 L1322.92,1109.33 L1322.36,1112.96 L1317.04,1116.04 L1310.05,1119.12 L1305.39,1120.57 L1304.15,1120.96 L1301.25,1118.7 L1294.38,1109.97 L1290.75,1107.09 L1283.2,1109.05 L1281.24,1113.8 L1281.8,1118.84 L1286.28,1121.07 L1288.13,1121.07 L1288.54,1121.93 L1290.98,1123.23 L1295.41,1123.96 L1300.15,1123.66 L1303.06,1130.3 L1294.95,1132.26 L1289.91,1132.54 L1287.67,1136.46 L1289.63,1140.93 L1292.59,1141.52 L1297.7,1142.54 L1306.08,1140.29 L1308.98,1140.93 L1312.66,1143.46 L1314.24,1149.88 L1311.14,1150.74 L1308.54,1149.87 L1305.49,1150.16 L1301.94,1148.48 L1299.14,1151.56 L1296.62,1160.23 L1291.87,1161.91 L1283.2,1161.35 L1278.72,1163.31 L1278.72,1166.1 L1282.64,1169.18 L1286.7,1171.18 L1292.37,1175.41 L1294.81,1178.49 L1284.04,1181.77 L1285.72,1188.2 L1293.27,1194.35 L1298.02,1197.29 L1300.82,1207.22 L1304.61,1208.21 L1311.48,1210.12 L1318.6,1213.64 L1317.88,1220.08 L1317.88,1225.68 L1319.28,1229.87 L1321.6,1230.56 L1327.18,1232.83 L1330.56,1238.65 L1332.14,1246.65 L1329.63,1252.25 L1318.72,1258.4 L1317.04,1264.27 L1318.72,1267.63 L1321.08,1269.29 L1321.17,1270.03 L1321.4,1271.92 L1329.49,1275.37 L1331.53,1280.77 L1330.75,1289.28 L1327.97,1300.88 L1326.78,1310.94 L1324.37,1315.2 L1319.54,1317.92 L1317.13,1322.18 L1321.38,1331.94 L1326.12,1331.94 L1333.2,1324.65 L1337.3,1320.43 L1339.33,1317.72 L1344.75,1317.72 L1344.19,1322.08 L1344.21,1325.56 L1343,1328.65 L1337.78,1335.24 L1336.17,1337.96 L1343.38,1346.77 L1345.47,1352.3 L1341.5,1356.78 L1341.51,1361.13 L1349.59,1368.62 L1354.41,1369.03 L1362.44,1367.42 L1374.08,1372.24 L1385.73,1379.46 L1387.65,1386.46 L1385.25,1391.5 L1377.98,1393.45 L1377.96,1393.47 L1370.87,1394.32 L1368.86,1397.13 L1367.52,1403.54 L1366.49,1407.33 L1369.67,1411.18 L1376.09,1419.61 L1378.9,1426.03 L1385.73,1428.84 L1398.17,1434.87 L1413.03,1442.09 L1408.61,1444.5 L1408.25,1444.73 L1398.57,1450.93 L1391.35,1456.15 L1381.71,1458.96 L1368.46,1465.38 L1358.43,1467.39 L1364.83,1473.8 L1363.23,1475.43 L1362.56,1476.76 L1363.29,1478.71 L1365.45,1481.48 L1368.65,1484.32 L1371.24,1487.49 L1369.85,1488.94 L1367.61,1491.41 L1365.29,1493.95 L1365.09,1494.22 L1356.02,1491.88 L1339.17,1490.34 L1337.73,1489.84 L1336.64,1490.92 L1335.3,1492.94 L1330.72,1492.28 L1325.91,1491.47 L1317.58,1491.54 L1316.6,1488.88 L1305.65,1469.66 L1307.04,1460.56 L1287.77,1435.27 L1271.31,1416.8 L1266.09,1418.41 L1252.44,1415.6 L1242.48,1414.91 L1239.57,1414.04 L1237.73,1414.85 L1234.59,1414.95 L1233.17,1416.45 L1233.1,1418.79 L1232.9,1420.94 L1233.01,1423.75 L1232.07,1427.98 L1231.53,1428.36 L1231.03,1428.7 L1230.03,1428.9 L1227.24,1429.44 L1226.24,1430.96 L1226.9,1434.8 L1227.38,1435.99 L1226.58,1437.87 L1224.1,1439.64 L1223.34,1440.1 L1222.44,1441.14 L1222.88,1442.52 L1225.08,1443.34 L1226.26,1442.93 L1227.64,1442.56 L1228.2,1443.58 L1228.99,1445.61 L1228.61,1447.65 L1226.54,1449.15 L1222.51,1449.1 L1218.08,1448.82 L1214.87,1449.34 L1212.66,1449.82 L1211.44,1449.36 L1210.7,1447.33 L1210.42,1445.19 L1209.89,1440.86 L1210.03,1439.07 L1209.63,1435.46 L1208.83,1433.15 L1208.4,1428.82 L1207.27,1423.73 L1206.27,1418.01 L1199.44,1407.57 L1192.62,1406.36 L1177.76,1408.37 L1170.94,1408.37 L1164.48,1412.02 L1161.7,1413.59 L1153.69,1411.99 L1149.66,1411.18 L1141.63,1409.98 L1140.09,1411.16 L1134.81,1415.19 L1127.06,1413.96 L1124.77,1413.59 L1117.94,1415.19 L1115.53,1420.01 L1109.97,1419.62 L1109.91,1419.61 L1104.29,1420.82 L1100.39,1418.59 L1096.26,1416.23 L1093.44,1417.21 L1088.4,1415.8 L1082.59,1416.8 L1079.68,1419.38 L1074.36,1420.78 L1072.98,1417.42 L1068.47,1416.99 L1059.9,1415.93 L1058.42,1415.74 L1051.43,1415.18 L1050.46,1417.53 L1049.95,1418.77 L1048.07,1421.06 L1042.2,1420.22 L1039.27,1414.07 L1037.52,1411.2 L1034.59,1404.64 L1027.59,1405.74 L1027.02,1405.83 L1024.23,1416.59 L1024.23,1416.6 L1022.49,1424.61 L1020.25,1434.93 L1015.27,1437.03 L1010.43,1439.08 L1002.31,1442.5 L999.191,1444.69 L997.757,1442.25 L993.446,1441.42 L991.436,1439.81 L989.828,1431.78 L988.331,1422.19 L985.935,1397.25 L982.313,1384.29 L977.356,1376.85 L975.087,1365.57 L974.553,1360.22 L972.543,1351.38 L970.935,1336.11 L971.826,1325.76 L972.542,1319.63 L972.542,1314 L968.924,1312.79 L964.2,1310.12 L957.268,1311.59 L953.523,1310.5 L950.434,1305.56 L949.9,1300.21 L948.753,1294.23 L948.022,1285.46 L948.022,1278.63 L946.414,1268.17 L941.993,1256.52 L937.169,1249.28 L927.54,1243.75 L917.473,1240.84 L909.032,1234.01 L909.032,1223.56 L909.836,1207.08 L912.649,1193.81 L915.864,1183.36 L916.266,1174.52 L915.92,1160.2 L917.322,1147.58 L912.881,1136.36 L921.061,1127.48 L920.126,1119.77 L917.322,1111.59 L919.659,1108.79 L919.893,1106.45 L916.621,1100.84 L917.088,1086.58 L916.387,1073.03 L914.284,1066.02 L909.376,1059.94 L898.243,1053.25 L888.06,1047.9 L886.208,1046.7 L878.949,1042 L875.721,1036.57 L881.33,1023.95 L883.433,1014.13 L890.211,1004.08 L895.603,1002.02 L912.881,999.408 L906.018,991.888 L913.675,989.735 L927.781,985.767 L942.291,979.34 L955.678,973.411 L966.657,967.921 L966.837,967.832 L975.206,970.621 L979.59,979.788 L976.003,989.353 L970.424,998.918 L965.243,1008.48 L965.642,1019.64 L972.816,1026.82 L977.683,1027.27 L981.02,1027.59 L985.525,1028.01 L985.569,1028.01 L989.373,1026.94 L998.321,1024.42 L999.517,1015.66 L1003.5,1006.09 L1008.68,1005.69 L1013.47,1014.06 L1017.45,1022.43 L1021.42,1024.19 L1022.53,1024.69 L1024.62,1025.62 L1031,1022.03 L1031.01,1021.99 L1031.93,1018.37 L1032.01,1018.08 L1032.87,1014.7 L1033.4,1012.56 L1032.82,1009.29 L1034.91,1006.21 L1037.56,1003.68 L1039.81,1001.54 L1039.84,1001.52 L1051.1,998.701 L1052.77,998.239 L1054.62,997.727 L1057.9,996.824 L1061.42,991.194 L1061.5,990.051 L1061.62,988.505 L1061.88,984.944 L1061.89,984.861 L1061.83,984.783 L1057.28,978.878 L1057.19,978.762 L1056.81,978.642 L1048.88,976.156 L1041.71,977.589 L1036.08,973.601 L1035.95,973.387 L1034.15,970.387 L1031.86,966.564 L1035.61,959.527 L1036.8,958.705 L1042.79,954.571 L1045.47,952.725 L1054.38,949.441 L1056.3,948.357 L1056.78,948.082 L1059.77,946.391 L1061.79,943.557 L1066.11,937.478 L1069.39,934.428 L1074.19,933.54 L1075.73,933.255 L1082.53,936.539 L1094.02,937.947 L1100.36,939.354 L1102.23,942.638 L1105.34,946.619 L1108.1,950.144 L1110.54,951.571 L1116.54,955.07 L1120.45,960.75 L1128.97,973.132 L1129.46,973.467 L1133.43,976.182 L1140.23,974.305 L1144.69,973.601 L1154.07,980.169 L1158.06,979.935 L1161.34,981.811 L1166.03,980.169 L1169.79,979.231 L1174.95,978.762 L1181.75,977.355 L1186.21,972.663 L1186.44,968.91 L1191.37,969.145 L1196.06,967.033 L1203.33,967.972 L1210.13,963.984 L1216.65,966.955 L1214.96,958.525 L1211.82,952.968 L1210.12,945.719 L1206.98,938.953 L1205.26,937.297 L1205.6,936.567 L1205.36,933.879 L1204.27,928.095 L1206.38,927.391 L1209.67,925.514 L1211.78,923.872 L1216.7,927.391 L1224.52,920.506 L1222.8,917.304 L1225.15,912.378 L1224.44,908.625 L1223.74,906.045 L1227.57,903.185 L1224.34,900.28 L1224.14,897.271 L1222.76,893.395 L1222.37,889.933 L1224.2,886.55 L1224.32,886.499 L1224.21,884.465 L1226.32,882.588 L1229.84,879.773 L1233.83,881.415 L1238.05,884.699 L1236.91,887.115 L1238.15,889.139 L1238.08,892.477 L1242.97,893.144 L1247.9,895.02 L1254.47,898.773 L1259.16,903.934 L1262.21,904.169 L1270.89,905.576 L1275.81,907.453 L1280.04,905.107 L1289.18,907.453 L1299.51,904.169 L1304.9,901.354 L1312.17,904.403 L1319.91,901.588 L1324.46,903.908 L1325.62,901.67 L1326.42,898.314 L1327,893.768 L1330,886.81 L1333.75,882.823 L1340.33,880.997 L1340.78,879.42 L1341.49,876.958 L1348.06,872.267 L1352.05,874.378 L1355.33,873.909"/>
  </g>
  <g stroke="#232323" font-family="MS Shell Dlg 2" fill="#0000ff" font-weight="400" stroke-opacity="1" stroke-linejoin="bevel" stroke-linecap="square" stroke-width="3.07087" transform="matrix(0.999607,0,0,0.999607,0,0)" font-size="34.375" fill-opacity="1" font-style="normal">
   <path fill-rule="evenodd" vector-effect="none" d="M1235.2,196.337 L1228.6,206.531 L1229.85,214.662 L1229.23,219.041 L1228.92,221.856 L1223.91,226.86 L1215.15,227.173 L1210.14,229.732 L1204.83,227.486 L1194.2,233.741 L1192.32,237.181 L1190.13,247.502 L1186.07,255.947 L1183.88,261.264 L1181.06,274.087 L1182.31,277.84 L1182,283.47 L1175.43,287.223 L1171.99,287.223 L1170.43,289.412 L1173.87,294.104 L1180.18,297.642 L1178.87,300.672 L1187.32,305.676 L1190.76,308.178 L1192.64,316.622 L1191.07,322.565 L1196.39,323.816 L1200.14,329.133 L1197.95,336.952 L1199.2,339.454 L1195.76,349.462 L1196.7,354.779 L1199.86,356.901 L1204.83,363.224 L1208.9,366.351 L1208.59,374.17 L1209.84,377.924 L1216.03,380.044 L1221.72,394.813 L1223.91,398.566 L1226.89,397.941 L1228.26,399.399 L1230.55,400.852 L1233.29,402.45 L1235.12,402.741 L1236.34,402.591 L1237.4,402.009 L1238.62,402.3 L1240.61,403.462 L1242.74,404.479 L1244.87,405.06 L1246.09,404.915 L1246.58,404.164 L1248.57,406.695 L1253.71,407.38 L1257.59,411.528 L1261.78,416.361 L1264.35,415.886 L1272.73,414.344 L1274.58,417.123 L1272.25,421.997 L1274.12,422.942 L1275.2,425.88 L1279.27,431.51 L1278.02,439.954 L1278.96,443.082 L1277.39,448.399 L1274.27,454.654 L1269.57,458.095 L1268.64,464.975 L1268.05,477.422 L1268.05,479.316 L1268.81,481.355 L1270.8,483.099 L1271.71,484.412 L1271.41,487.323 L1264.67,500.441 L1263.45,502.48 L1259.75,509.099 L1260.24,514.576 L1259.79,516.324 L1261.92,519.381 L1262.69,520.979 L1265.89,524.181 L1266.66,525.348 L1266.5,527.387 L1266.66,529.422 L1267.12,531.025 L1267.12,531.757 L1266.96,532.629 L1265.28,534.087 L1265.28,534.813 L1266.2,535.981 L1267.88,536.998 L1269.71,537.288 L1270.94,538.16 L1271.55,539.177 L1271.39,539.904 L1270.78,540.199 L1270.32,541.217 L1270.63,542.093 L1272.16,542.529 L1272.92,542.524 L1273.99,543.106 L1275.06,544.563 L1276.59,545.581 L1278.88,546.016 L1280.56,546.012 L1282.24,546.883 L1283.44,548.922 L1284.97,550.816 L1285.89,551.979 L1285.12,553.146 L1283.59,553.146 L1282.22,553.437 L1280.69,554.9 L1280.69,556.939 L1281.76,558.828 L1282.37,559.7 L1282.37,560.722 L1281.15,561.744 L1279.62,564.365 L1279.01,567.863 L1278.85,569.757 L1278.39,571.36 L1277.02,572.382 L1277.47,575.003 L1278.54,575.874 L1278.54,577.768 L1277.93,578.79 L1276.41,579.808 L1275.95,580.83 L1275.79,581.707 L1276.1,582.942 L1278.69,585.49 L1279.15,586.507 L1278.99,587.965 L1277.77,588.987 L1276.55,590.15 L1276.55,591.753 L1278.38,595.1 L1279.14,597.139 L1281.43,599.614 L1286.47,601.648 L1289.37,604.264 L1291.35,609.8 L1292.26,614.315 L1292.11,617.372 L1290.13,619.706 L1287.83,622.913 L1287.22,625.824 L1288.74,627.568 L1291.1,629.753 L1291.33,631.065 L1292.4,632.228 L1294.07,633.39 L1294.84,634.262 L1296.06,634.843 L1297.73,635.134 L1299.26,635.134 L1300.32,636.296 L1300.32,636.725 L1300.32,638.19 L1300.62,639.793 L1302.15,640.956 L1303.98,641.101 L1305.51,641.827 L1307.79,643.426 L1308.88,644.223 L1309.45,646.756 L1314.55,650.627 L1313.14,655.729 L1314.55,658.72 L1316.82,660.166 L1320.17,661.473 L1323.68,663.943 L1327.34,664.96 L1323.52,672.09 L1319.12,675.081 L1320.35,679.479 L1326.51,688.275 L1327.8,684.476 L1329.33,687.388 L1329.18,689.427 L1330.25,690.59 L1331.01,689.572 L1331.32,687.678 L1334.06,690.148 L1334.82,691.316 L1336.35,691.461 L1338.65,695.489 L1338.3,697.424 L1340.76,700.59 L1342.31,701.357 L1343.67,704.122 L1345.96,704.989 L1347.95,704.698 L1349.63,702.799 L1351.31,700.615 L1352.53,699.447 L1354.13,705.868 L1354.13,710.266 L1355.01,713.785 L1348.33,717.655 L1343.58,718.887 L1341.82,721.702 L1343.52,724.801 L1344.12,726.84 L1345.5,728.003 L1349.32,728.143 L1351.91,727.266 L1353.29,727.411 L1354.5,728.578 L1356.18,729.305 L1357.71,729.663 L1358.48,730.026 L1359.24,731.048 L1358.33,732.797 L1358.33,734.836 L1360.32,736.144 L1364.45,737.519 L1366.59,743.722 L1361.9,751.228 L1361.67,754.278 L1362.14,759.204 L1362.14,765.303 L1359.09,765.068 L1354.63,764.13 L1351.11,765.772 L1349.7,770.698 L1338.44,774.216 L1335.16,776.093 L1334.69,779.611 L1334.46,781.488 L1336.1,787.821 L1333.28,792.513 L1332.35,796.266 L1333.26,799.975 L1333.49,801.573 L1334.94,802.009 L1336.01,801.573 L1337.08,799.824 L1338.31,797.926 L1340.29,797.489 L1342.74,797.194 L1345.64,797.92 L1346.89,801.896 L1342.67,806.822 L1342.2,809.402 L1347.44,808.988 L1346.38,809.57 L1345.61,811.028 L1347.29,812.486 L1349.27,812.335 L1350.19,810.732 L1351.1,809.855 L1352.05,811.748 L1350.64,815.032 L1349,817.143 L1351.81,819.958 L1349.23,822.538 L1349.7,825.118 L1352.99,829.81 L1356.27,833.328 L1358.12,832.76 L1358.89,834.316 L1359.34,834.316 L1361.02,834.461 L1354.86,835.674 L1351.58,838.254 L1351.58,842.476 L1353.93,844.588 L1358.62,850.452 L1361.63,850.916 L1361.2,856.551 L1359.32,858.896 L1360.49,862.18 L1363.75,864.029 L1364.37,864.319 L1365.42,868.279 L1370.01,870.137 L1371.84,871.013 L1373.21,871.449 L1373.83,872.321 L1375.04,873.047 L1375.5,874.796 L1375.35,875.959 L1374.89,876.69 L1373.21,876.981 L1370.92,876.986 L1369.24,875.819 L1366.65,873.784 L1365.28,873.058 L1363.75,872.622 L1360.02,870.39 L1356.51,870.859 L1355.33,873.909 L1352.05,874.378 L1348.06,872.267 L1341.49,876.958 L1340.78,879.42 L1340.33,880.997 L1333.75,882.823 L1330,886.81 L1327,893.768 L1326.42,898.314 L1325.62,901.67 L1324.46,903.908 L1319.91,901.588 L1312.17,904.403 L1304.9,901.354 L1299.51,904.169 L1289.18,907.453 L1280.04,905.107 L1275.81,907.453 L1270.89,905.576 L1262.21,904.169 L1259.16,903.934 L1254.47,898.773 L1247.9,895.02 L1242.97,893.144 L1238.08,892.477 L1238.15,889.139 L1236.91,887.115 L1238.05,884.699 L1233.83,881.415 L1229.84,879.773 L1226.32,882.588 L1224.21,884.465 L1224.32,886.499 L1224.2,886.55 L1222.37,889.933 L1222.76,893.395 L1224.14,897.271 L1224.34,900.28 L1227.57,903.185 L1223.74,906.045 L1224.44,908.625 L1225.15,912.378 L1222.8,917.304 L1224.52,920.506 L1216.7,927.391 L1211.78,923.872 L1209.67,925.514 L1206.38,927.391 L1204.27,928.095 L1205.36,933.879 L1205.6,936.567 L1205.26,937.297 L1206.98,938.953 L1210.12,945.719 L1211.82,952.968 L1214.96,958.525 L1216.65,966.955 L1210.13,963.984 L1203.33,967.972 L1196.06,967.033 L1191.37,969.145 L1186.44,968.91 L1186.21,972.663 L1181.75,977.355 L1174.95,978.762 L1169.79,979.231 L1166.03,980.169 L1161.34,981.811 L1158.06,979.935 L1154.07,980.169 L1144.69,973.601 L1140.23,974.305 L1133.43,976.182 L1129.46,973.467 L1128.97,973.132 L1120.45,960.75 L1116.54,955.07 L1110.54,951.571 L1108.1,950.144 L1105.34,946.619 L1102.23,942.638 L1100.36,939.354 L1094.02,937.947 L1082.53,936.539 L1075.73,933.255 L1074.19,933.54 L1069.39,934.428 L1066.11,937.478 L1061.79,943.557 L1059.77,946.391 L1056.78,948.082 L1056.3,948.357 L1054.38,949.441 L1045.47,952.725 L1042.79,954.571 L1036.8,958.705 L1035.61,959.527 L1031.86,966.564 L1034.15,970.387 L1035.95,973.387 L1036.08,973.601 L1041.71,977.589 L1048.88,976.156 L1056.81,978.642 L1057.19,978.762 L1057.28,978.878 L1061.83,984.783 L1061.89,984.861 L1061.88,984.944 L1061.62,988.505 L1061.5,990.051 L1061.42,991.194 L1057.9,996.824 L1054.62,997.727 L1052.77,998.239 L1051.1,998.701 L1039.84,1001.52 L1039.81,1001.54 L1037.56,1003.68 L1034.91,1006.21 L1032.82,1009.29 L1033.4,1012.56 L1032.87,1014.7 L1032.01,1018.08 L1031.93,1018.37 L1031.01,1021.99 L1031,1022.03 L1024.62,1025.62 L1022.53,1024.69 L1021.42,1024.19 L1017.45,1022.43 L1013.47,1014.06 L1008.68,1005.69 L1003.5,1006.09 L999.517,1015.66 L998.321,1024.42 L989.373,1026.94 L985.569,1028.01 L985.525,1028.01 L981.02,1027.59 L977.683,1027.27 L972.816,1026.82 L965.642,1019.64 L965.243,1008.48 L970.424,998.918 L976.003,989.353 L979.59,979.788 L975.206,970.621 L966.837,967.832 L966.657,967.921 L955.678,973.411 L942.291,979.34 L927.781,985.767 L913.675,989.735 L906.018,991.888 L907.367,989.899 L893.636,987.891 L881.592,986.78 L879.217,986.659 L871.445,986.26 L871.438,986.262 L863.406,987.868 L863.442,987.976 L865.009,992.709 L861.893,996.136 L859.655,1013.06 L857.842,1030.1 L851.921,1041.32 L843.507,1050.67 L841.97,1058.08 L843.042,1067.19 L850.012,1082.61 L850.714,1095 L846.794,1104.71 L840.899,1117.57 L839.15,1123.33 L837.392,1129.12 L826.965,1143.3 L825.358,1154.55 L829.114,1167.69 L829.913,1170.49 L833.265,1174.96 L835.344,1177.73 L837.626,1180.77 L846.507,1188.25 L849.078,1200.4 L849.078,1223.54 L843.702,1237.8 L831.791,1260.67 L821.733,1272.62 L811.683,1275.89 L795.557,1271.68 L786.676,1257.43 L782.333,1246.24 L778.964,1237.56 L772.301,1221.55 L766.406,1208.15 L757.462,1191.75 L754.079,1188.32 L745.309,1173.52 L744.195,1169.57 L740.635,1156.93 L735.493,1152.26 L727.943,1147.22 L723.574,1144.31 L720.068,1134.49 L720.488,1132.03 L724.601,1107.93 L734.791,1090.65 L736.927,1087.02 L746.038,1058.08 L756.153,1041.2 L762.986,1028.74 L767.407,1017.08 L770.623,999.393 L771.024,987.334 L769.28,977.451 L768.612,973.667 L766.2,960.402 L761.377,949.549 L754.945,936.284 L744.494,922.215 L732.034,911.764 L711.132,902.117 L688.622,892.47 L663.444,884.369 L649.318,875.644 L635.564,862.725 L618.682,848.656 L608.633,837.803 L606.672,833.881 L610.989,833.813 L635.901,833.421 L647.176,833.349 L691.595,833.064 L716.555,831.487 L725.512,830.922 L724.644,823.545 L724.084,818.783 L723.232,805.438 L723.012,802.004 L723.765,800.102 L723.777,800.072 L725.619,795.419 L726.79,792.46 L728.75,787.509 L729.796,784.867 L730.011,780.142 L730.097,778.242 L730.867,761.304 L738.007,757.377 L740.945,756.686 L750.146,754.521 L755.184,753.849 L755.501,753.807 L757.643,761.661 L757.683,762.078 L758.714,772.728 L763.712,777.727 L773.709,770.943 L775.041,769.611 L776.565,768.087 L777.479,769.423 L781.206,774.871 L786.918,778.798 L788.49,779.129 L793.701,780.226 L799.771,782.368 L801.813,784.562 L809.41,792.721 L809.516,792.769 L810.904,793.389 L822.977,798.791 L837.614,802.718 L845.825,799.505 L850.11,790.579 L855.465,783.439 L854.394,776.656 L851.538,765.231 L849.72,760.536 L849.254,759.331 L848.526,757.451 L847.254,754.164 L848.325,744.881 L856.179,742.739 L860.924,737.678 L861.534,737.027 L861.267,731.024 L860.973,724.402 L860.82,720.961 L866.889,710.965 L867.494,709.252 L869.031,704.896 L863.676,703.111 L857.964,700.612 L852.252,688.116 L848.661,685.921 L846.449,684.57 L845.825,684.189 L845.985,680.829 L846.182,676.692 L842.255,668.48 L836.543,668.48 L835.829,664.553 L836.049,663.38 L836.9,658.841 L839.756,650.629 L842.612,642.418 L849.039,634.921 L856.179,627.781 L859.749,627.781 L869.388,628.495 L876.172,630.637 L882.955,638.134 L883.669,629.923 L888.667,620.64 L897.236,622.782 L902.234,621.354 L909.353,619.998 L909.731,619.926 L909.731,617.427 L906.875,609.93 L906.018,605.819 L905.959,605.533 L905.676,604.176 L905.09,601.361 L906.826,600.397 L908.303,599.576 L907.946,597.077 L909.519,590.56 L909.544,590.456 L909.9,588.981 L910.445,586.724 L915.8,581.726 L915.87,579.555 L915.926,577.841 L915.959,576.813 L916.007,575.328 L916.064,573.544 L916.066,573.49 L916.157,570.658 L914.477,568.075 L912.23,565.303 L914.015,552.808 L919.013,549.594 L922.32,546.287 L925.797,542.811 L931.152,542.454 L941.505,543.525 L950.074,546.738 L958.999,546.381 L965.782,538.884 L971.514,538.679 L972.116,538.658 L975.779,538.527 L975.422,533.529 L967.924,531.03 L963.283,525.317 L956.857,518.177 L953.287,515.321 L954.001,509.609 L954.001,503.897 L946.147,506.396 L937.221,502.111 L932.223,503.183 L927.225,508.895 L924.012,509.252 L923.298,506.753 L923.655,498.184 L917.228,495.328 L915.086,486.046 L911.159,482.476 L878.314,472.836 L865.582,475.541 L864.932,475.679 L864.14,472.543 L875.399,460.658 L887.909,455.967 L899.169,454.09 L907.301,454.09 L916.058,460.033 L920.436,459.72 L928.619,456.666 L930.103,455.156 L931.566,453.651 L932.884,452.322 L935.229,450.89 L936.485,449.484 L939.536,447.341 L942.509,445.95 L944.388,446.064 L946.059,445.11 L949.458,442.884 L950.485,441.597 L952.218,439.91 L955.129,439.013 L957.231,438.971 L960.324,437.44 L962.363,435.889 L964.299,434.618 L966.032,433.268 L967.557,432.256 L970.655,431.416 L973.831,431.369 L976.555,430.591 L979.342,430.446 L982.912,431.587 L986.56,430.035 L986.601,428.255 L985.179,427.031 L983.586,425.926 L982.019,424.784 L980.094,424.514 L978.2,424.556 L976.072,424.006 L975.429,421.935 L976.544,420.093 L977.53,418.189 L978.273,417.109 L978.47,417.084 L979.397,416.725 L979.715,418.625 L981.703,420.373 L984.759,421.826 L987.665,423.86 L990.182,420.836 L994.253,415.944 L1001.39,414.873 L1006.39,415.944 L1008.18,405.591 L1006.75,398.808 L1002.11,389.882 L1002.46,378.815 L1000.68,370.246 L1001.75,367.39 L1012.82,369.532 L1023.53,369.889 L1031.38,357.394 L1036.38,339.9 L1039.27,341.795 L1041.41,341.209 L1043.85,341.209 L1045.83,342.226 L1047.2,342.371 L1049.04,340.477 L1051.32,335.376 L1053.92,331.293 L1055.45,330.125 L1057.89,329.98 L1060.63,332.309 L1063.83,337.841 L1067.18,340.897 L1071.15,344.971 L1074.2,344.821 L1079.11,343.933 L1082.62,342.911 L1088.42,344.359 L1095.9,347.114 L1103.68,352.495 L1105.05,357.155 L1106.27,359.63 L1108.25,361.374 L1111.15,361.369 L1112.68,358.748 L1113.9,355.541 L1112.84,350.009 L1112.53,343.746 L1111.93,338.21 L1113.15,335.153 L1115.9,329.466 L1120.95,325.387 L1124.3,324.215 L1126.14,323.047 L1130.56,319.254 L1131.63,317.069 L1130.87,313.136 L1129.5,308.772 L1129.81,303.381 L1130.13,296.095 L1134.1,287.061 L1136.7,278.318 L1138.38,272.926 L1141.43,269.574 L1144.79,268.261 L1147.69,268.111 L1149.16,249.379 L1147.29,233.741 L1153.23,232.49 L1157.61,233.741 L1167.84,240.271 L1172.62,237.181 L1177.62,236.868 L1177.62,231.551 L1177.15,217.965 L1177,213.724 L1176.68,197.773 L1182.94,184.637 L1193.06,184.307 L1200.4,187.213 L1206.21,192.449 L1211.56,196.812 L1215.54,203.797 L1218.14,205.691 L1221.81,206.412 L1223.08,201.438 L1216.05,189.325 L1219.17,181.901 L1224.35,179.611 L1227.1,179.315 L1229.54,181.499 L1231.07,186.445 L1232.08,188.987 L1233.66,192.998 L1235.2,196.337"/>
  </g>
  <g stroke="#232323" font-family="MS Shell Dlg 2" fill="#0000ff" font-weight="400" stroke-opacity="1" stroke-linejoin="bevel" stroke-linecap="square" stroke-width="3.07087" transform="matrix(0.999607,0,0,0.999607,0,0)" font-size="34.375" fill-opacity="1" font-style="normal">
   <path fill-rule="evenodd" vector-effect="none" d="M513.376,334.611 L516.352,330.291 L516.347,330.13 L516.696,329.791 L519.58,329.839 L521.945,329.741 L524.058,329.31 L529.172,323.669 L529.485,320.229 L529.172,316.163 L532.926,315.85 L534.802,318.352 L542.934,313.035 L551.066,310.533 L552.942,312.097 L556.696,316.903 L557.169,318.32 L557.044,318.435 L557.946,322.418 L557.55,324.907 L558.352,326.103 L558.58,327.956 L566.704,326.171 L570.77,326.484 L573.585,322.731 L576.399,321.167 L584.531,320.229 L587.972,319.603 L590.161,316.163 L592.976,314.912 L598.23,322.871 L598.77,320.681 L597.903,318.304 L596.85,316.685 L598.204,314.936 L596.729,310.846 L599.544,307.093 L607.05,305.529 L611.429,306.467 L612.09,311.86 L618.309,316.475 L627.067,318.039 L628.943,318.978 L638.013,326.484 L640.583,330.224 L642.705,329.611 L647.396,326.797 L654.59,327.735 L661.783,325.233 L670.853,323.669 L673.981,324.607 L673.866,327.842 L676.237,329.969 L676.824,330.405 L677.312,330.768 L677.872,332.445 L678.147,334.484 L678.272,335.864 L678.401,336.892 L678.734,339.009 L681.8,338.994 L683.989,343.06 L686.178,343.06 L688.681,348.377 L691.183,350.879 L693.998,357.447 L698.063,359.636 L699.627,361.826 L702.755,368.081 L706.508,374.649 L707.759,380.591 L710.887,381.217 L717.455,381.842 L726.837,386.221 L739.035,386.221 L749.982,387.472 L762.492,394.353 L769.373,399.044 L769.686,406.551 L773.752,412.18 L777.641,414.67 L791.892,417.184 L802.213,419.374 L813.159,425.316 L812.847,429.695 L815.974,433.761 L816.485,438.99 L816.674,439.246 L817.479,440.273 L816.783,442.053 L814.495,442.91 L812.248,443.569 L809.752,444.508 L808.003,445.504 L806.618,447.092 L805.653,448.239 L805.347,450.101 L805.829,451.819 L805.788,453.578 L805.689,455.934 L805.773,457.87 L805.86,458.7 L805.943,460.838 L806.089,462.581 L806.54,464.361 L806.54,466.063 L814.671,477.556 L815.532,488.969 L816.062,490.805 L815.808,492.632 L816.13,494.701 L816.384,496.305 L816.747,498.214 L816.892,499.434 L817.65,500.259 L818.859,500.596 L819.897,501.048 L821.656,501.619 L823.789,502.029 L826.606,501.935 L829.507,501.666 L837.242,496.939 L842.872,497.877 L848.814,490.996 L856.32,491.622 L860.074,483.177 L864.242,477.941 L865.047,476.135 L864.932,475.679 L865.582,475.541 L878.314,472.836 L911.159,482.476 L915.086,486.046 L917.228,495.328 L923.655,498.184 L923.298,506.753 L924.012,509.252 L927.225,508.895 L932.223,503.183 L937.221,502.111 L946.147,506.396 L954.001,503.897 L954.001,509.609 L953.287,515.321 L956.857,518.177 L963.283,525.317 L967.924,531.03 L975.422,533.529 L975.779,538.527 L972.116,538.658 L971.514,538.679 L965.782,538.884 L958.999,546.381 L950.074,546.738 L941.505,543.525 L931.152,542.454 L925.797,542.811 L922.32,546.287 L919.013,549.594 L914.015,552.808 L912.23,565.303 L914.477,568.075 L916.157,570.658 L916.066,573.49 L916.064,573.544 L916.007,575.328 L915.959,576.813 L915.926,577.841 L915.87,579.555 L915.8,581.726 L910.445,586.724 L909.9,588.981 L909.544,590.456 L909.519,590.56 L907.946,597.077 L908.303,599.576 L906.826,600.397 L905.09,601.361 L905.676,604.176 L905.959,605.533 L906.018,605.819 L906.875,609.93 L909.731,617.427 L909.731,619.926 L909.353,619.998 L902.234,621.354 L897.236,622.782 L888.667,620.64 L883.669,629.923 L882.955,638.134 L876.172,630.637 L869.388,628.495 L859.749,627.781 L856.179,627.781 L849.039,634.921 L842.612,642.418 L839.756,650.629 L836.9,658.841 L836.049,663.38 L835.829,664.553 L836.543,668.48 L842.255,668.48 L846.182,676.692 L845.985,680.829 L845.825,684.189 L846.449,684.57 L848.661,685.921 L852.252,688.116 L857.964,700.612 L863.676,703.111 L869.031,704.896 L867.494,709.252 L866.889,710.965 L860.82,720.961 L860.973,724.402 L861.267,731.024 L861.534,737.027 L860.924,737.678 L856.179,742.739 L848.325,744.881 L847.254,754.164 L848.526,757.451 L849.254,759.331 L849.72,760.536 L851.538,765.231 L854.394,776.656 L855.465,783.439 L850.11,790.579 L845.825,799.505 L837.614,802.718 L822.977,798.791 L810.904,793.389 L809.516,792.769 L809.41,792.721 L801.813,784.562 L799.771,782.368 L793.701,780.226 L788.49,779.129 L786.918,778.798 L781.206,774.871 L777.479,769.423 L776.565,768.087 L775.041,769.611 L773.709,770.943 L763.712,777.727 L758.714,772.728 L757.683,762.078 L757.643,761.661 L755.501,753.807 L755.184,753.849 L750.146,754.521 L740.945,756.686 L738.007,757.377 L730.867,761.304 L730.097,778.242 L730.011,780.142 L729.796,784.867 L728.75,787.509 L726.79,792.46 L725.619,795.419 L723.777,800.072 L723.765,800.102 L723.012,802.004 L723.232,805.438 L724.084,818.783 L724.644,823.545 L725.512,830.922 L716.555,831.487 L691.595,833.064 L647.176,833.349 L635.901,833.421 L610.989,833.813 L606.672,833.881 L603.809,828.156 L600.996,818.107 L601.397,800.018 L602.603,792.381 L608.632,782.332 L612.25,772.684 L614.259,763.439 L609.837,752.586 L608.23,748.164 L600.19,740.125 L594.161,734.899 L584.916,732.488 L571.652,735.302 L555.172,740.126 L544.319,738.92 L531.858,734.498 L527.437,730.881 L524.623,724.449 L523.417,716.812 L526.231,705.155 L529.044,696.311 L518.909,693.278 L522.298,687.771 L534.608,673.601 L540.01,658.013 L540.718,640.3 L535.758,614.084 L529.381,593.537 L518.753,574.407 L510.251,562.362 L512.46,544.351 L511.998,541.928 L512.092,539.349 L512.066,536.946 L514.795,527.195 L514.484,509.756 L516.975,483.599 L511.365,472.025 L510.914,468.891 L510.592,465.824 L510.285,461.979 L510.415,457.631 L510.504,453.288 L511.053,449.858 L510.913,446.947 L511.142,443.537 L511.272,440.808 L511.38,438.073 L511.48,437.202 L507.771,435.193 L502.789,428.343 L502.477,414.33 L514.992,387.257 L515.241,384.844 L515.641,381.974 L515.086,378.28 L513.664,374.508 L511.598,370.678 L510.073,367.523 L517.667,355.198 L513.726,345.877 L511.819,340.839 L513.376,334.611"/>
  </g>
  <g stroke="#000000" font-family="MS Shell Dlg 2" fill="none" font-weight="400" stroke-opacity="1" stroke-linejoin="bevel" stroke-linecap="square" stroke-width="1" transform="matrix(11.8064,0,0,11.8064,0,0)" font-size="34.375" font-style="normal"/>
  <g stroke="#000000" font-family="MS Shell Dlg 2" fill="none" font-weight="400" stroke-opacity="1" stroke-linejoin="bevel" stroke-linecap="square" stroke-width="1" transform="matrix(11.8064,0,0,11.8064,0,0)" font-size="34.375" font-style="normal"/>
  <g stroke="#000000" font-family="MS Shell Dlg 2" fill="none" font-weight="400" stroke-opacity="1" stroke-linejoin="bevel" stroke-linecap="square" stroke-width="1" transform="matrix(11.8064,0,0,11.8064,0,0)" font-size="34.375" font-style="normal"/>
  <g stroke="#000000" font-family="MS Shell Dlg 2" fill="none" font-weight="400" stroke-opacity="1" stroke-linejoin="bevel" stroke-linecap="square" stroke-width="1" transform="matrix(1,0,0,1,0,0)" font-size="34.375" font-style="normal"/>
  <g stroke="#000000" font-family="MS Shell Dlg 2" fill="none" font-weight="400" stroke-opacity="1" stroke-linejoin="bevel" stroke-linecap="square" stroke-width="1" transform="matrix(11.8064,0,0,11.8064,0,0)" font-size="34.375" font-style="normal"/>
  <g stroke="#000000" font-family="MS Shell Dlg 2" fill="none" font-weight="400" stroke-opacity="1" stroke-linejoin="bevel" stroke-linecap="square" stroke-width="1" transform="matrix(11.8064,0,0,11.8064,0,0)" font-size="34.375" font-style="normal"/>
  <g stroke="#000000" font-family="MS Shell Dlg 2" fill="none" font-weight="400" stroke-opacity="1" stroke-linejoin="bevel" stroke-linecap="square" stroke-width="1" transform="matrix(11.8064,0,0,11.8064,0,0)" font-size="34.375" font-style="normal"/>
  <g stroke="#000000" font-family="MS Shell Dlg 2" fill="none" font-weight="400" stroke-opacity="1" stroke-linejoin="bevel" stroke-linecap="square" stroke-width="1" transform="matrix(11.8064,0,0,11.8064,0,0)" font-size="34.375" font-style="normal"/>
  <g stroke="#000000" font-family="MS Shell Dlg 2" fill="none" font-weight="400" stroke-opacity="1" stroke-linejoin="bevel" stroke-linecap="square" stroke-width="1" transform="matrix(1,0,0,1,0,0)" font-size="34.375" font-style="normal"/>
 </g>
 <metadata>
  <rdf:RDF xmlns:dc="http://purl.org/dc/elements/1.1/" xmlns:rdf="http://www.w3.org/1999/02/22-rdf-syntax-ns#" xmlns:rdfs="http://www.w3.org/2000/01/rdf-schema#">
   <rdf:Description dc:format="image/svg+xml" dc:description="" dc:identifier="" dc:date="2020-12-09T09:03:21" dc:title="">
    <dc:creator>
     <rdf:Bag>
      <rdf:li>MSH</rdf:li>
     </rdf:Bag>
    </dc:creator>
    <dc:publisher>
     <rdf:Bag>
      <rdf:li>QGIS 3.12.2-București</rdf:li>
     </rdf:Bag>
    </dc:publisher>
    <dc:subject>
     <rdf:Bag/>
    </dc:subject>
   </rdf:Description>
   <cc:Work rdf:about="">
    <dc:format>image/svg+xml</dc:format>
    <dc:title></dc:title>
    <dc:date>2020-12-09T09:03:21</dc:date>
    <dc:identifier></dc:identifier>
    <dc:description></dc:description>
    <dc:creator>
     <cc:Agent>
      <dc:title>MSH</dc:title>
     </cc:Agent>
    </dc:creator>
    <dc:publisher>
     <cc:Agent>
      <dc:title>QGIS 3.12.2-București</dc:title>
     </cc:Agent>
    </dc:publisher>
   </cc:Work>
  </rdf:RDF>
 </metadata>
</svg>
