<?xml version='1.0' encoding='UTF-8' standalone='no'?>
<svg baseProfile="tiny" xmlns:xlink="http://www.w3.org/1999/xlink" width="186.605mm" xmlns="http://www.w3.org/2000/svg" xmlns:cc="http://creativecommons.org/ns#" version="1.2" height="166.116mm" viewBox="0 0 2204 1962">
 <defs/>
 <g stroke="black" fill="none" fill-rule="evenodd" stroke-linejoin="bevel" stroke-linecap="square" stroke-width="1">
  <g stroke="#000000" font-family="MS Shell Dlg 2" fill="none" font-weight="400" stroke-opacity="1" stroke-linejoin="bevel" stroke-linecap="square" stroke-width="1" transform="matrix(1,0,0,1,0,0)" font-size="34.375" font-style="normal"/>
  <g stroke="#000000" font-family="MS Shell Dlg 2" fill="none" font-weight="400" stroke-opacity="1" stroke-linejoin="bevel" stroke-linecap="square" stroke-width="1" transform="matrix(1,0,0,1,0,0)" font-size="34.375" font-style="normal"/>
  <g stroke="#000000" font-family="MS Shell Dlg 2" fill="none" font-weight="400" stroke-opacity="1" stroke-linejoin="bevel" stroke-linecap="square" stroke-width="1" transform="matrix(11.809,0,0,11.809,0,0)" font-size="34.375" font-style="normal"/>
  <g stroke="#000000" font-family="MS Shell Dlg 2" fill="none" font-weight="400" stroke-opacity="1" stroke-linejoin="bevel" stroke-linecap="square" stroke-width="1" transform="matrix(0.999826,0,0,0.999826,0,0)" font-size="34.375" font-style="normal"/>
  <g stroke="none" font-family="MS Shell Dlg 2" fill="#ffffff" font-weight="400" transform="matrix(0.999826,0,0,0.999826,0,0)" font-size="34.375" fill-opacity="1" font-style="normal">
   <path fill-rule="evenodd" vector-effect="none" d="M-2,-2 L2207,-2 L2207,1965 L-2,1965 L-2,-2"/>
  </g>
  <g stroke="#000000" font-family="MS Shell Dlg 2" fill="none" font-weight="400" stroke-opacity="1" stroke-linejoin="bevel" stroke-linecap="square" stroke-width="1" transform="matrix(0.999826,0,0,0.999826,0,0)" font-size="34.375" font-style="normal"/>
  <g stroke="#000000" font-family="MS Shell Dlg 2" fill="none" font-weight="400" stroke-opacity="1" stroke-linejoin="bevel" stroke-linecap="square" stroke-width="1" transform="matrix(11.809,0,0,11.809,0,0)" font-size="34.375" font-style="normal"/>
  <g stroke="#000000" font-family="MS Shell Dlg 2" fill="none" font-weight="400" stroke-opacity="1" stroke-linejoin="bevel" stroke-linecap="square" stroke-width="1" transform="matrix(11.809,0,0,11.809,0,0)" font-size="34.375" font-style="normal"/>
  <g stroke="#000000" font-family="MS Shell Dlg 2" fill="none" font-weight="400" stroke-opacity="1" stroke-linejoin="bevel" stroke-linecap="square" stroke-width="1" transform="matrix(11.809,0,0,11.809,0,0)" font-size="34.375" font-style="normal"/>
  <g stroke="#000000" font-family="MS Shell Dlg 2" fill="none" font-weight="400" stroke-opacity="1" stroke-linejoin="bevel" stroke-linecap="square" stroke-width="1" transform="matrix(11.809,0,0,11.809,0,0)" font-size="34.375" font-style="normal"/>
  <g stroke="#000000" font-family="MS Shell Dlg 2" fill="none" font-weight="400" stroke-opacity="1" stroke-linejoin="bevel" stroke-linecap="square" stroke-width="1" transform="matrix(11.809,0,0,11.809,0,0)" font-size="34.375" font-style="normal"/>
  <g stroke="#000000" font-family="MS Shell Dlg 2" fill="none" font-weight="400" stroke-opacity="1" stroke-linejoin="bevel" stroke-linecap="square" stroke-width="1" transform="matrix(11.809,0,0,11.809,0,0)" font-size="34.375" font-style="normal"/>
  <g stroke="none" font-family="MS Shell Dlg 2" fill="#000000" font-weight="400" transform="matrix(0.999826,0,0,0.999826,0,0)" font-size="34.375" fill-opacity="0" font-style="normal">
   <rect x="0" y="0" width="2204" height="1962"/>
  </g>
  <g stroke="#232323" font-family="MS Shell Dlg 2" fill="#0000ff" font-weight="400" stroke-opacity="1" stroke-linejoin="bevel" stroke-linecap="square" stroke-width="3.07087" transform="matrix(0.999826,0,0,0.999826,0,0)" font-size="34.375" fill-opacity="1" font-style="normal">
   <path fill-rule="evenodd" vector-effect="none" d="M1129.3,1414.1 L1135.67,1415.01 L1137.7,1412.53 L1138.25,1411.19 L1139.3,1408.65 L1146.88,1409.25 L1148.49,1409.45 L1157.77,1410.61 L1162.66,1411.07 L1164.16,1414.71 L1169.91,1413.19 L1173.07,1410.4 L1179.36,1409.31 L1184.82,1410.84 L1187.88,1409.78 L1192.36,1412.34 L1196.58,1414.75 L1202.67,1413.45 L1202.74,1413.45 L1208.76,1413.88 L1211.37,1408.66 L1218.77,1406.92 L1221.25,1407.32 L1229.64,1408.66 L1235.37,1404.29 L1237.04,1403.01 L1245.74,1404.31 L1250.1,1405.18 L1258.79,1406.92 L1261.79,1405.22 L1268.8,1401.27 L1276.19,1401.27 L1292.29,1399.09 L1299.68,1400.4 L1307.08,1411.71 L1308.16,1417.91 L1309.39,1423.42 L1309.85,1428.12 L1310.72,1430.61 L1311.15,1434.53 L1311,1436.47 L1311.58,1441.16 L1311.88,1443.48 L1312.68,1445.68 L1314.01,1446.18 L1316.4,1445.66 L1319.87,1445.1 L1324.67,1445.4 L1329.04,1445.45 L1331.28,1443.83 L1331.69,1441.61 L1330.84,1439.41 L1330.23,1438.32 L1328.74,1438.71 L1327.46,1439.16 L1325.08,1438.26 L1324.6,1436.78 L1325.58,1435.64 L1326.4,1435.15 L1329.08,1433.23 L1329.96,1431.19 L1329.43,1429.9 L1328.72,1425.74 L1329.8,1424.1 L1332.82,1423.51 L1333.9,1423.3 L1334.44,1422.92 L1335.03,1422.51 L1336.06,1417.93 L1335.93,1414.88 L1336.15,1412.56 L1336.22,1410.02 L1337.76,1408.39 L1341.16,1408.29 L1343.16,1407.41 L1346.32,1408.35 L1357.1,1409.1 L1371.89,1412.14 L1377.55,1410.4 L1395.38,1430.41 L1416.26,1457.82 L1414.75,1467.68 L1426.62,1488.5 L1427.69,1491.39 L1436.71,1491.31 L1441.93,1492.18 L1446.89,1492.9 L1448.34,1490.71 L1449.52,1489.54 L1451.08,1490.08 L1469.33,1491.75 L1479.16,1494.28 L1479.38,1494 L1481.89,1491.25 L1484.32,1488.56 L1485.83,1486.99 L1483.02,1483.56 L1479.56,1480.48 L1477.21,1477.48 L1476.42,1475.36 L1477.15,1473.93 L1478.88,1472.16 L1471.94,1465.21 L1482.82,1463.04 L1497.17,1456.08 L1507.61,1453.03 L1515.44,1447.38 L1525.93,1440.66 L1526.32,1440.42 L1531.1,1437.81 L1534.15,1432.59 L1540.67,1429.54 L1547.2,1432.59 L1553.39,1436.87 L1558.51,1440.42 L1565.03,1446.07 L1563.39,1452.27 L1559.04,1458.99 L1551.62,1463.2 L1551.64,1470.32 L1555.18,1479.52 L1556.95,1483.7 L1559.94,1487.38 L1558.51,1497.4 L1558.94,1506.1 L1562.86,1518.28 L1561.99,1526.11 L1563.73,1540.03 L1570.71,1539.76 L1576.41,1541.42 L1581.66,1542.24 L1586.93,1548.08 L1593.11,1561.46 L1594.88,1567.73 L1601.48,1576.08 L1607.62,1581.92 L1625,1607.95 L1637.09,1632.13 L1641.02,1638.34 L1636.58,1640.36 L1640.82,1646.9 L1645.07,1656.04 L1647.36,1664.21 L1646.38,1673.35 L1643.11,1682.5 L1638.54,1690.34 L1638.54,1698.18 L1636.58,1713.21 L1632.99,1722.68 L1630.7,1738.36 L1629.07,1748.81 L1630.05,1770.7 L1632.01,1778.54 L1636.25,1788.01 L1639.52,1801.4 L1646.71,1814.14 L1650.63,1824.27 L1651.93,1830.8 L1648.34,1834.07 L1645.33,1834.76 L1634.7,1832.74 L1617.73,1821.29 L1612.05,1822.96 L1606.5,1824.59 L1588.98,1815.51 L1577.85,1810.27 L1571.68,1809.83 L1564.21,1814.58 L1539.95,1815.12 L1533.89,1810.84 L1532.45,1809.83 L1525.62,1803.66 L1516.37,1797.71 L1505.57,1795.28 L1492.57,1796.39 L1485.3,1800.79 L1481.11,1807.4 L1471.49,1811.13 L1461.49,1811.13 L1456.01,1809.69 L1452.77,1808.78 L1444.22,1808.9 L1427.49,1812.12 L1413.11,1809.83 L1406.45,1806.73 L1396.37,1804.56 L1390.18,1803.63 L1382.59,1807.04 L1369.26,1811.07 L1358.1,1816.18 L1344.93,1824.86 L1340.6,1825.48 L1330.52,1827.41 L1322.06,1830.44 L1305.01,1842.68 L1290.55,1850.34 L1289.16,1852.51 L1287.14,1853.9 L1286.68,1850.65 L1284.82,1849.25 L1282.03,1850.8 L1278.93,1857 L1274.9,1857.31 L1268.86,1855.45 L1264.24,1850.13 L1259.76,1844.38 L1257.01,1840.84 L1253.08,1828.85 L1250.03,1799.41 L1251.19,1795.81 L1255.37,1795 L1255.93,1792.11 L1255.95,1791.97 L1251.65,1780.7 L1249.31,1773.73 L1245.73,1763.04 L1237.94,1751.42 L1237.24,1747.82 L1238.29,1745.96 L1236.2,1743.87 L1229.81,1741.42 L1228.3,1738.05 L1229.23,1735.85 L1229.57,1732.83 L1224.58,1720.28 L1222.72,1712.49 L1217.61,1696.22 L1215.86,1673.44 L1222.4,1667.71 L1222.49,1667.63 L1221.32,1643.7 L1222.37,1639.86 L1222.49,1634.4 L1220.22,1628.72 L1218.99,1624.55 L1208.7,1622.1 L1205.52,1629.94 L1201.34,1635.79 L1194.5,1641.46 L1187.88,1644.89 L1182.49,1645.87 L1170.24,1641.46 L1156.28,1633.86 L1145.25,1626.02 L1141.33,1620.39 L1133.49,1614.75 L1126.88,1610.59 L1128.71,1615.46 L1128.35,1618.67 L1133,1623.33 L1135.21,1626.51 L1132.76,1629.21 L1127.12,1629.7 L1120.27,1628.96 L1114.14,1625.29 L1109.73,1621.37 L1103.72,1613.02 L1099.08,1608.6 L1097.44,1609.23 L1093.96,1610.58 L1091.06,1609.76 L1091.99,1607.32 L1092.59,1606.85 L1094.78,1605.12 L1090.38,1604.46 L1084.5,1602.5 L1082.54,1598.09 L1083.03,1592.95 L1086.7,1587.31 L1091.36,1580.94 L1096.75,1577.81 L1094.31,1575.95 L1094.05,1572.12 L1095.77,1569.43 L1095.77,1566 L1093.56,1562.81 L1091.85,1557.91 L1086.7,1555.22 L1082.05,1553.75 L1077.15,1543.46 L1069.55,1536.36 L1066.12,1527.05 L1064.41,1519.21 L1063.92,1511.86 L1066.12,1500.1 L1067.59,1492.75 L1070.6,1478.22 L1075.14,1471.59 L1077.02,1461.57 L1081.77,1441.27 L1082.7,1440.62 L1086.09,1438.25 L1094.88,1434.54 L1100.13,1432.32 L1105.52,1430.04 L1107.95,1418.86 L1109.84,1410.18 L1109.84,1410.18 L1112.86,1398.52 L1113.48,1398.42 L1121.06,1397.22 L1124.24,1404.33 L1126.13,1407.44 L1129.3,1414.1"/>
   <path fill-rule="evenodd" vector-effect="none" d="M1596.36,1826.57 L1606.28,1836.49 L1611.34,1843.98 L1612.45,1850.81 L1622.58,1863.82 L1615.53,1866.9 L1611.12,1864.92 L1601.99,1852.36 L1592.17,1841.12 L1580.71,1832.52 L1575.87,1833.19 L1578.49,1835.88 L1583.8,1841.34 L1571.24,1848.39 L1560.66,1840.02 L1550.96,1830.32 L1559.16,1825.55 L1571.46,1821.95 L1587.54,1821.29 L1596.36,1826.57"/>
   <path fill-rule="evenodd" vector-effect="none" d="M1521.22,1816.88 L1507.99,1827.46 L1489.92,1825.47 L1481.99,1820.4 L1489.92,1808.51 L1498.3,1800.35 L1506.23,1798.15 L1520.33,1803 L1527.83,1812.03 L1521.22,1816.88"/>
   <path fill-rule="evenodd" vector-effect="none" d="M1545.24,1839.58 L1557.8,1847.07 L1556.64,1856.91 L1547.44,1859.85 L1544.57,1852.14 L1535.76,1847.07 L1524.08,1848.83 L1509.54,1841.78 L1523.42,1837.37 L1536.64,1839.58 L1545.24,1839.58"/>
  </g>
  <g stroke="#232323" font-family="MS Shell Dlg 2" fill="#e31a1c" font-weight="400" stroke-opacity="1" stroke-linejoin="bevel" stroke-linecap="square" stroke-width="3.07087" transform="matrix(0.999826,0,0,0.999826,0,0)" font-size="34.375" fill-opacity="1" font-style="normal">
   <path fill-rule="evenodd" vector-effect="none" d="M1468.59,822.165 L1468.92,831.472 L1468.86,831.606 L1465.68,838.316 L1463.47,842.988 L1459.83,850.261 L1463.97,851.087 L1464.22,852.505 L1465.29,854.084 L1467.44,855.344 L1470.59,855.338 L1464.07,862.989 L1467.61,865.919 L1467.94,867.179 L1469.59,867.966 L1468.62,874.808 L1469.23,879.657 L1473.39,880.746 L1476.7,882.478 L1480.67,883.894 L1476.5,891.173 L1479.83,895.415 L1484.08,899.052 L1481.95,901.476 L1476.8,905.113 L1476.5,907.234 L1483.17,917.235 L1486.2,922.387 L1484.08,927.842 L1490.91,928.7 L1493.22,929.802 L1495.7,929.015 L1498.92,935.418 L1494.68,942.691 L1490.41,950.796 L1486.93,947.17 L1486.1,946.225 L1484.78,945.281 L1483.12,945.124 L1481.13,945.129 L1476.8,944.509 L1474.68,947.843 L1478.32,954.207 L1487.41,963.602 L1485.29,967.844 L1480.74,970.269 L1476.65,970.624 L1475.67,968.49 L1476.33,965.178 L1475.51,962.811 L1473.02,960.445 L1469.54,959.978 L1461.35,957.844 L1456.19,965.117 L1450.74,974.814 L1451.35,979.057 L1453.53,980.749 L1453.48,980.826 L1453.48,982.878 L1454.38,989.058 L1446.19,995.725 L1443.47,1000.27 L1443.43,1000.39 L1440.44,1009.97 L1436.8,1014.51 L1433.46,1013.84 L1431.44,1010.62 L1432.97,1001.69 L1433.35,995.671 L1427.85,998.24 L1423.07,1011.09 L1424.54,1022.1 L1428.95,1027.24 L1432.3,1028.04 L1434.78,1029.62 L1440.42,1029.61 L1441.04,1039.97 L1445.28,1044.82 L1449.22,1048.15 L1446.8,1055.12 L1444.38,1059.06 L1442.56,1065.73 L1439.41,1068.91 L1439.41,1068.12 L1438.91,1065.99 L1437.76,1063.7 L1436.44,1061.81 L1434.62,1061.18 L1432.31,1061.18 L1429.53,1059.37 L1426.5,1062.4 L1433.47,1077.25 L1432.86,1081.19 L1427.1,1084.52 L1419.53,1087.85 L1414.48,1089.43 L1413.13,1089.85 L1409.99,1087.4 L1402.55,1077.94 L1398.62,1074.82 L1390.43,1076.94 L1388.31,1082.09 L1388.92,1087.55 L1393.77,1089.97 L1395.77,1089.97 L1396.22,1090.9 L1398.87,1092.31 L1403.67,1093.1 L1408.79,1092.78 L1411.95,1099.97 L1403.16,1102.1 L1397.71,1102.4 L1395.28,1106.64 L1397.4,1111.49 L1400.61,1112.13 L1406.15,1113.24 L1415.23,1110.79 L1418.37,1111.49 L1422.36,1114.22 L1424.07,1121.19 L1420.7,1122.11 L1417.89,1121.17 L1414.58,1121.49 L1410.74,1119.67 L1407.71,1123.01 L1404.98,1132.4 L1399.83,1134.22 L1390.43,1133.61 L1385.58,1135.73 L1385.58,1138.76 L1389.83,1142.1 L1394.23,1144.26 L1400.37,1148.85 L1403.01,1152.19 L1391.34,1155.74 L1393.16,1162.71 L1401.34,1169.37 L1406.49,1172.56 L1409.52,1183.31 L1413.63,1184.39 L1421.07,1186.46 L1428.79,1190.28 L1428.01,1197.25 L1428.01,1203.31 L1429.53,1207.86 L1432.04,1208.6 L1438.09,1211.06 L1441.75,1217.37 L1443.47,1226.04 L1440.74,1232.1 L1428.92,1238.77 L1427.1,1245.14 L1428.92,1248.77 L1431.48,1250.56 L1431.58,1251.37 L1431.82,1253.42 L1440.59,1257.16 L1442.8,1263.01 L1441.96,1272.23 L1438.94,1284.8 L1437.65,1295.7 L1435.05,1300.31 L1429.81,1303.26 L1427.2,1307.87 L1431.8,1318.45 L1436.94,1318.45 L1444.61,1310.56 L1449.05,1305.98 L1451.25,1303.04 L1457.13,1303.04 L1456.52,1307.77 L1456.53,1311.54 L1455.23,1314.89 L1449.57,1322.03 L1447.83,1324.97 L1455.64,1334.52 L1457.91,1340.51 L1453.6,1345.37 L1453.62,1350.08 L1462.37,1358.2 L1467.59,1358.64 L1476.29,1356.9 L1488.91,1362.12 L1501.52,1369.95 L1503.61,1377.53 L1501,1382.98 L1493.13,1385.1 L1493.11,1385.12 L1485.43,1386.04 L1483.25,1389.09 L1481.8,1396.03 L1480.69,1400.14 L1484.12,1404.31 L1491.08,1413.45 L1494.13,1420.41 L1501.52,1423.45 L1515.01,1429.98 L1531.1,1437.81 L1526.32,1440.42 L1525.93,1440.66 L1515.44,1447.38 L1507.61,1453.03 L1497.17,1456.08 L1482.82,1463.04 L1471.94,1465.21 L1478.88,1472.16 L1477.15,1473.93 L1476.42,1475.36 L1477.21,1477.48 L1479.56,1480.48 L1483.02,1483.56 L1485.83,1486.99 L1484.32,1488.56 L1481.89,1491.25 L1479.38,1494 L1479.16,1494.28 L1469.33,1491.75 L1451.08,1490.08 L1449.52,1489.54 L1448.34,1490.71 L1446.89,1492.9 L1441.93,1492.18 L1436.71,1491.31 L1427.69,1491.39 L1426.62,1488.5 L1414.75,1467.68 L1416.26,1457.82 L1395.38,1430.41 L1377.55,1410.4 L1371.89,1412.14 L1357.1,1409.1 L1346.32,1408.35 L1343.16,1407.41 L1341.16,1408.29 L1337.76,1408.39 L1336.22,1410.02 L1336.15,1412.56 L1335.93,1414.88 L1336.06,1417.93 L1335.03,1422.51 L1334.44,1422.92 L1333.9,1423.3 L1332.82,1423.51 L1329.8,1424.1 L1328.72,1425.74 L1329.43,1429.9 L1329.96,1431.19 L1329.08,1433.23 L1326.4,1435.15 L1325.58,1435.64 L1324.6,1436.78 L1325.08,1438.26 L1327.46,1439.16 L1328.74,1438.71 L1330.23,1438.32 L1330.84,1439.41 L1331.69,1441.61 L1331.28,1443.83 L1329.04,1445.45 L1324.67,1445.4 L1319.87,1445.1 L1316.4,1445.66 L1314.01,1446.18 L1312.68,1445.68 L1311.88,1443.48 L1311.58,1441.16 L1311,1436.47 L1311.15,1434.53 L1310.72,1430.61 L1309.85,1428.12 L1309.39,1423.42 L1308.16,1417.91 L1307.08,1411.71 L1299.68,1400.4 L1292.29,1399.09 L1276.19,1401.27 L1268.8,1401.27 L1261.79,1405.22 L1258.79,1406.92 L1250.1,1405.18 L1245.74,1404.31 L1237.04,1403.01 L1235.37,1404.29 L1229.64,1408.66 L1221.25,1407.32 L1218.77,1406.92 L1211.37,1408.66 L1208.76,1413.88 L1202.74,1413.45 L1202.67,1413.45 L1196.58,1414.75 L1192.36,1412.34 L1187.88,1409.78 L1184.82,1410.84 L1179.36,1409.31 L1173.07,1410.4 L1169.91,1413.19 L1164.16,1414.71 L1162.66,1411.07 L1157.77,1410.61 L1148.49,1409.45 L1146.88,1409.25 L1139.3,1408.65 L1138.25,1411.19 L1137.7,1412.53 L1135.67,1415.01 L1129.3,1414.1 L1126.13,1407.44 L1124.24,1404.33 L1121.06,1397.22 L1113.48,1398.42 L1112.86,1398.52 L1109.84,1410.18 L1109.84,1410.18 L1107.95,1418.86 L1105.52,1430.04 L1100.13,1432.32 L1094.88,1434.54 L1086.09,1438.25 L1082.7,1440.62 L1081.15,1437.98 L1076.48,1437.08 L1074.3,1435.34 L1072.56,1426.63 L1070.94,1416.24 L1068.34,1389.22 L1064.42,1375.17 L1059.04,1367.12 L1056.59,1354.89 L1056.01,1349.1 L1053.83,1339.52 L1052.09,1322.97 L1053.05,1311.75 L1053.83,1305.11 L1053.83,1299.01 L1049.91,1297.71 L1044.79,1294.81 L1037.28,1296.4 L1033.22,1295.22 L1029.87,1289.87 L1029.3,1284.07 L1028.05,1277.59 L1027.26,1268.09 L1027.26,1260.68 L1025.52,1249.36 L1020.73,1236.73 L1015.5,1228.89 L1005.07,1222.9 L994.161,1219.74 L985.014,1212.34 L985.014,1201.02 L985.885,1183.16 L988.933,1168.79 L992.417,1157.46 L992.853,1147.88 L992.477,1132.37 L993.997,1118.7 L989.185,1106.54 L998.048,1096.92 L997.035,1088.56 L993.997,1079.7 L996.529,1076.66 L996.782,1074.13 L993.237,1068.05 L993.743,1052.6 L992.984,1037.92 L990.705,1030.32 L985.387,1023.73 L973.325,1016.49 L962.291,1010.68 L960.284,1009.38 L952.419,1004.3 L948.921,998.411 L954.999,984.736 L957.278,974.1 L964.622,963.211 L970.464,960.979 L989.185,958.147 L981.748,949.999 L990.045,947.665 L1005.33,943.366 L1021.05,936.403 L1035.56,929.978 L1047.45,924.03 L1047.65,923.933 L1056.72,926.955 L1061.47,936.887 L1057.58,947.252 L1051.53,957.616 L1045.92,967.98 L1046.35,980.071 L1054.13,987.844 L1059.4,988.338 L1063.02,988.677 L1067.9,989.135 L1067.94,989.139 L1072.07,987.98 L1081.76,985.253 L1083.06,975.752 L1087.37,965.388 L1092.99,964.956 L1098.17,974.025 L1102.49,983.093 L1106.79,985.003 L1107.99,985.54 L1110.26,986.548 L1117.17,982.661 L1117.18,982.615 L1118.18,978.691 L1118.26,978.382 L1119.19,974.72 L1119.77,972.392 L1119.14,968.85 L1121.41,965.513 L1124.28,962.775 L1126.72,960.457 L1126.74,960.43 L1138.94,957.38 L1140.76,956.88 L1142.77,956.325 L1146.31,955.347 L1150.13,949.247 L1150.22,948.008 L1150.34,946.333 L1150.63,942.475 L1150.63,942.384 L1150.57,942.3 L1145.65,935.902 L1145.55,935.776 L1145.14,935.646 L1136.54,932.952 L1128.78,934.505 L1122.68,930.184 L1122.54,929.952 L1120.59,926.701 L1118.1,922.56 L1122.17,914.935 L1123.46,914.044 L1129.95,909.565 L1132.84,907.564 L1142.5,904.006 L1144.58,902.832 L1145.11,902.533 L1148.35,900.702 L1150.53,897.631 L1155.21,891.043 L1158.77,887.739 L1163.97,886.777 L1165.63,886.468 L1173,890.027 L1185.45,891.552 L1192.32,893.077 L1194.35,896.635 L1197.72,900.948 L1200.7,904.768 L1203.35,906.314 L1209.85,910.106 L1214.09,916.26 L1223.32,929.676 L1223.85,930.039 L1228.15,932.98 L1235.52,930.947 L1240.35,930.184 L1250.52,937.301 L1254.84,937.047 L1258.4,939.08 L1263.48,937.301 L1267.55,936.284 L1273.14,935.776 L1280.51,934.251 L1285.34,929.168 L1285.59,925.101 L1290.93,925.355 L1296.02,923.068 L1303.89,924.085 L1311.27,919.764 L1318.32,922.982 L1316.49,913.849 L1313.09,907.827 L1311.25,899.973 L1307.85,892.642 L1305.98,890.848 L1306.35,890.057 L1306.09,887.144 L1304.91,880.877 L1307.2,880.114 L1310.76,878.081 L1313.04,876.302 L1318.38,880.114 L1326.86,872.655 L1324.99,869.185 L1327.53,863.848 L1326.77,859.781 L1326.01,856.986 L1330.16,853.887 L1326.66,850.739 L1326.44,847.478 L1324.95,843.279 L1324.52,839.527 L1326.5,835.862 L1326.63,835.807 L1326.51,833.603 L1328.8,831.569 L1332.61,828.519 L1336.94,830.299 L1341.51,833.857 L1340.27,836.475 L1341.62,838.667 L1341.55,842.284 L1346.85,843.007 L1352.19,845.04 L1359.3,849.107 L1364.39,854.698 L1367.69,854.952 L1377.09,856.477 L1382.43,858.511 L1387.01,855.969 L1396.92,858.511 L1408.1,854.952 L1413.95,851.902 L1421.83,855.206 L1430.21,852.157 L1435.14,854.67 L1436.39,852.245 L1437.27,848.609 L1437.89,843.683 L1441.14,836.144 L1445.21,831.824 L1452.33,829.846 L1452.83,828.137 L1453.6,825.469 L1460.71,820.386 L1465.03,822.674 L1468.59,822.165"/>
  </g>
  <g stroke="#232323" font-family="MS Shell Dlg 2" fill="#0000ff" font-weight="400" stroke-opacity="1" stroke-linejoin="bevel" stroke-linecap="square" stroke-width="3.07087" transform="matrix(0.999826,0,0,0.999826,0,0)" font-size="34.375" fill-opacity="1" font-style="normal">
   <path fill-rule="evenodd" vector-effect="none" d="M1338.42,88.0011 L1331.28,99.0463 L1332.63,107.857 L1331.95,112.602 L1331.62,115.652 L1326.19,121.074 L1316.7,121.413 L1311.27,124.186 L1305.52,121.751 L1294,128.529 L1291.97,132.257 L1289.59,143.44 L1285.19,152.59 L1282.82,158.351 L1279.77,172.245 L1281.12,176.312 L1280.78,182.412 L1273.67,186.478 L1269.94,186.478 L1268.24,188.85 L1271.97,193.934 L1278.81,197.767 L1277.39,201.05 L1286.54,206.472 L1290.27,209.183 L1292.3,218.333 L1290.61,224.772 L1296.37,226.128 L1300.44,231.889 L1298.07,240.361 L1299.42,243.072 L1295.69,253.916 L1296.71,259.677 L1300.13,261.976 L1305.52,268.827 L1309.93,272.216 L1309.59,280.688 L1310.94,284.754 L1317.65,287.052 L1323.82,303.054 L1326.19,307.121 L1329.42,306.444 L1330.91,308.023 L1333.39,309.598 L1336.35,311.33 L1338.34,311.644 L1339.66,311.482 L1340.81,310.852 L1342.13,311.167 L1344.28,312.426 L1346.59,313.528 L1348.9,314.158 L1350.23,314 L1350.76,313.186 L1352.91,315.929 L1358.48,316.671 L1362.69,321.165 L1367.22,326.402 L1370.01,325.888 L1379.09,324.217 L1381.09,327.228 L1378.57,332.508 L1380.6,333.533 L1381.77,336.716 L1386.18,342.816 L1384.82,351.966 L1385.84,355.355 L1384.14,361.116 L1380.75,367.894 L1375.67,371.621 L1374.65,379.077 L1374.01,392.563 L1374.01,394.616 L1374.84,396.825 L1376.99,398.714 L1377.98,400.137 L1377.66,403.291 L1370.36,417.504 L1369.04,419.714 L1365.02,426.886 L1365.56,432.82 L1365.06,434.715 L1367.38,438.026 L1368.21,439.758 L1371.68,443.227 L1372.51,444.492 L1372.34,446.702 L1372.51,448.906 L1373.01,450.643 L1373.01,451.436 L1372.84,452.381 L1371.02,453.961 L1371.02,454.748 L1372.01,456.013 L1373.83,457.115 L1375.82,457.429 L1377.15,458.374 L1377.81,459.476 L1377.64,460.264 L1376.98,460.584 L1376.48,461.686 L1376.81,462.636 L1378.47,463.108 L1379.3,463.103 L1380.46,463.733 L1381.62,465.312 L1383.27,466.414 L1385.75,466.887 L1387.58,466.881 L1389.4,467.826 L1390.7,470.035 L1392.35,472.087 L1393.34,473.347 L1392.51,474.612 L1390.86,474.612 L1389.37,474.927 L1387.72,476.512 L1387.72,478.722 L1388.87,480.769 L1389.53,481.713 L1389.53,482.821 L1388.21,483.928 L1386.55,486.768 L1385.89,490.557 L1385.73,492.61 L1385.23,494.347 L1383.74,495.454 L1384.23,498.294 L1385.39,499.239 L1385.39,501.291 L1384.72,502.398 L1383.07,503.501 L1382.58,504.608 L1382.41,505.558 L1382.74,506.896 L1385.55,509.657 L1386.04,510.759 L1385.88,512.339 L1384.55,513.446 L1383.23,514.706 L1383.23,516.443 L1385.21,520.07 L1386.03,522.279 L1388.51,524.961 L1393.97,527.165 L1397.12,529.999 L1399.26,535.998 L1400.25,540.89 L1400.09,544.202 L1397.94,546.731 L1395.45,550.206 L1394.79,553.36 L1396.44,555.25 L1399,557.617 L1399.24,559.039 L1400.4,560.298 L1402.22,561.558 L1403.04,562.503 L1404.36,563.133 L1406.18,563.447 L1407.83,563.447 L1408.99,564.707 L1408.99,565.172 L1408.99,566.759 L1409.31,568.496 L1410.96,569.756 L1412.95,569.913 L1414.6,570.7 L1417.08,572.432 L1418.26,573.296 L1418.87,576.041 L1424.4,580.234 L1422.87,585.762 L1424.4,589.003 L1426.86,590.57 L1430.49,591.987 L1434.29,594.663 L1438.26,595.765 L1434.12,603.49 L1429.36,606.731 L1430.69,611.496 L1437.36,621.027 L1438.76,616.911 L1440.42,620.065 L1440.25,622.275 L1441.41,623.535 L1442.24,622.432 L1442.57,620.38 L1445.54,623.057 L1446.37,624.322 L1448.03,624.479 L1450.51,628.843 L1450.13,630.94 L1452.8,634.371 L1454.48,635.201 L1455.96,638.198 L1458.44,639.137 L1460.59,638.822 L1462.41,636.764 L1464.23,634.397 L1465.55,633.132 L1467.29,640.09 L1467.29,644.855 L1468.24,648.668 L1461,652.861 L1455.85,654.196 L1453.95,657.246 L1455.79,660.604 L1456.45,662.813 L1457.94,664.073 L1462.07,664.225 L1464.88,663.274 L1466.37,663.432 L1467.69,664.696 L1469.51,665.483 L1471.17,665.872 L1472,666.266 L1472.83,667.373 L1471.84,669.267 L1471.84,671.477 L1473.99,672.894 L1478.47,674.384 L1480.79,681.105 L1475.71,689.238 L1475.45,692.542 L1475.96,697.88 L1475.96,704.488 L1472.66,704.234 L1467.83,703.217 L1464.02,704.996 L1462.49,710.334 L1450.29,714.146 L1446.73,716.18 L1446.23,719.992 L1445.97,722.025 L1447.75,728.888 L1444.7,733.971 L1443.68,738.038 L1444.67,742.056 L1444.92,743.788 L1446.5,744.26 L1447.66,743.788 L1448.82,741.893 L1450.14,739.836 L1452.3,739.363 L1454.94,739.043 L1458.09,739.83 L1459.44,744.137 L1454.87,749.475 L1454.36,752.271 L1460.04,751.822 L1458.89,752.453 L1458.06,754.032 L1459.87,755.612 L1462.02,755.449 L1463.02,753.712 L1464.01,752.762 L1465.03,754.812 L1463.51,758.371 L1461.73,760.658 L1464.78,763.708 L1461.98,766.504 L1462.49,769.3 L1466.05,774.383 L1469.61,778.195 L1471.61,777.579 L1472.44,779.266 L1472.94,779.266 L1474.76,779.423 L1468.08,780.737 L1464.53,783.533 L1464.53,788.108 L1467.07,790.395 L1472.15,796.749 L1475.42,797.252 L1474.95,803.357 L1472.91,805.899 L1474.18,809.457 L1477.72,811.46 L1478.38,811.775 L1479.52,816.065 L1484.5,818.078 L1486.47,819.028 L1487.96,819.5 L1488.63,820.445 L1489.95,821.232 L1490.44,823.127 L1490.28,824.386 L1489.78,825.179 L1487.96,825.494 L1485.48,825.499 L1483.66,824.235 L1480.85,822.03 L1479.37,821.243 L1477.71,820.771 L1473.68,818.353 L1469.86,818.861 L1468.59,822.165 L1465.03,822.674 L1460.71,820.386 L1453.6,825.469 L1452.83,828.137 L1452.33,829.846 L1445.21,831.824 L1441.14,836.144 L1437.89,843.683 L1437.27,848.609 L1436.39,852.245 L1435.14,854.67 L1430.21,852.157 L1421.83,855.206 L1413.95,851.902 L1408.1,854.952 L1396.92,858.511 L1387.01,855.969 L1382.43,858.511 L1377.09,856.477 L1367.69,854.952 L1364.39,854.698 L1359.3,849.107 L1352.19,845.04 L1346.85,843.007 L1341.55,842.284 L1341.62,838.667 L1340.27,836.475 L1341.51,833.857 L1336.94,830.299 L1332.61,828.519 L1328.8,831.569 L1326.51,833.603 L1326.63,835.807 L1326.5,835.862 L1324.52,839.527 L1324.95,843.279 L1326.44,847.478 L1326.66,850.739 L1330.16,853.887 L1326.01,856.986 L1326.77,859.781 L1327.53,863.848 L1324.99,869.185 L1326.86,872.655 L1318.38,880.114 L1313.04,876.302 L1310.76,878.081 L1307.2,880.114 L1304.91,880.877 L1306.09,887.144 L1306.35,890.057 L1305.98,890.848 L1307.85,892.642 L1311.25,899.973 L1313.09,907.827 L1316.49,913.849 L1318.32,922.982 L1311.27,919.764 L1303.89,924.085 L1296.02,923.068 L1290.93,925.355 L1285.59,925.101 L1285.34,929.168 L1280.51,934.251 L1273.14,935.776 L1267.55,936.284 L1263.48,937.301 L1258.4,939.08 L1254.84,937.047 L1250.52,937.301 L1240.35,930.184 L1235.52,930.947 L1228.15,932.98 L1223.85,930.039 L1223.32,929.676 L1214.09,916.26 L1209.85,910.106 L1203.35,906.314 L1200.7,904.768 L1197.72,900.948 L1194.35,896.635 L1192.32,893.077 L1185.45,891.552 L1173,890.027 L1165.63,886.468 L1163.97,886.777 L1158.77,887.739 L1155.21,891.043 L1150.53,897.631 L1148.35,900.702 L1145.11,902.533 L1144.58,902.832 L1142.5,904.006 L1132.84,907.564 L1129.95,909.565 L1123.46,914.044 L1122.17,914.935 L1118.1,922.56 L1120.59,926.701 L1122.54,929.952 L1122.68,930.184 L1128.78,934.505 L1136.54,932.952 L1145.14,935.646 L1145.55,935.776 L1145.65,935.902 L1150.57,942.3 L1150.63,942.384 L1150.63,942.475 L1150.34,946.333 L1150.22,948.008 L1150.13,949.247 L1146.31,955.347 L1142.77,956.325 L1140.76,956.88 L1138.94,957.38 L1126.74,960.43 L1126.72,960.457 L1124.28,962.775 L1121.41,965.513 L1119.14,968.85 L1119.77,972.392 L1119.19,974.72 L1118.26,978.382 L1118.18,978.691 L1117.18,982.615 L1117.17,982.661 L1110.26,986.548 L1107.99,985.54 L1106.79,985.003 L1102.49,983.093 L1098.17,974.025 L1092.99,964.956 L1087.37,965.388 L1083.06,975.752 L1081.76,985.253 L1072.07,987.98 L1067.94,989.139 L1067.9,989.135 L1063.02,988.677 L1059.4,988.338 L1054.13,987.844 L1046.35,980.071 L1045.92,967.98 L1051.53,957.616 L1057.58,947.252 L1061.47,936.887 L1056.72,926.955 L1047.65,923.933 L1047.45,924.03 L1035.56,929.978 L1021.05,936.403 L1005.33,943.366 L990.045,947.665 L981.748,949.999 L983.21,947.843 L968.333,945.667 L955.283,944.464 L952.709,944.332 L944.288,943.901 L944.28,943.902 L935.578,945.643 L935.616,945.759 L937.315,950.887 L933.938,954.601 L931.514,972.937 L929.549,991.405 L923.133,1003.56 L914.017,1013.69 L912.351,1021.72 L913.513,1031.59 L921.065,1048.3 L921.825,1061.72 L917.578,1072.24 L911.191,1086.18 L909.296,1092.42 L907.391,1098.69 L896.093,1114.05 L894.351,1126.25 L898.421,1140.49 L899.287,1143.51 L902.919,1148.36 L905.172,1151.36 L907.644,1154.66 L917.267,1162.76 L920.052,1175.93 L920.052,1201 L914.228,1216.44 L901.322,1241.23 L890.424,1254.18 L879.535,1257.72 L862.062,1253.16 L852.439,1237.72 L847.733,1225.6 L844.082,1216.19 L836.863,1198.84 L830.476,1184.32 L820.785,1166.56 L817.119,1162.84 L807.617,1146.81 L806.41,1142.52 L802.552,1128.83 L796.981,1123.76 L788.8,1118.31 L784.066,1115.15 L780.268,1104.52 L780.723,1101.85 L785.179,1075.73 L796.22,1057 L798.535,1053.08 L808.406,1021.72 L819.367,1003.43 L826.77,989.925 L831.561,977.294 L835.045,958.13 L835.48,945.064 L833.59,934.356 L832.867,930.255 L830.253,915.882 L825.027,904.123 L818.058,889.75 L806.734,874.506 L793.233,863.182 L770.585,852.729 L746.196,842.277 L718.915,833.5 L703.608,824.046 L688.706,810.048 L670.414,794.804 L659.525,783.044 L657.401,778.794 L662.078,778.721 L689.071,778.296 L701.287,778.217 L749.417,777.909 L776.461,776.201 L786.166,775.588 L785.226,767.595 L784.619,762.436 L783.696,747.976 L783.458,744.254 L784.274,742.194 L784.287,742.162 L786.282,737.12 L787.551,733.914 L789.675,728.55 L790.808,725.686 L791.041,720.566 L791.134,718.508 L791.968,700.155 L799.705,695.9 L802.888,695.151 L812.857,692.806 L818.317,692.078 L818.66,692.032 L820.981,700.542 L821.025,700.994 L822.141,712.534 L827.557,717.95 L838.388,710.6 L839.832,709.156 L841.483,707.505 L842.474,708.953 L846.512,714.855 L852.701,719.11 L854.404,719.469 L860.051,720.658 L866.627,722.979 L868.841,725.356 L877.072,734.197 L877.186,734.248 L878.69,734.921 L891.771,740.773 L907.631,745.028 L916.529,741.547 L921.171,731.876 L926.973,724.139 L925.813,716.789 L922.718,704.411 L920.749,699.324 L920.243,698.017 L919.455,695.981 L918.076,692.419 L919.236,682.361 L927.747,680.04 L932.888,674.556 L933.549,673.851 L933.26,667.346 L932.941,660.171 L932.776,656.443 L939.352,645.612 L940.007,643.757 L941.673,639.036 L935.87,637.102 L929.681,634.394 L923.492,620.855 L919.6,618.477 L917.204,617.012 L916.529,616.6 L916.702,612.959 L916.915,608.476 L912.66,599.579 L906.471,599.579 L905.697,595.324 L905.936,594.053 L906.858,589.134 L909.952,580.237 L913.047,571.34 L920.01,563.217 L927.747,555.48 L931.615,555.48 L942.06,556.254 L949.409,558.575 L956.759,566.698 L957.533,557.801 L962.949,547.743 L972.233,550.064 L977.648,548.517 L985.362,547.048 L985.772,546.97 L985.772,544.262 L982.677,536.138 L981.749,531.684 L981.685,531.375 L981.378,529.904 L980.743,526.854 L982.624,525.809 L984.224,524.92 L983.838,522.212 L985.542,515.151 L985.569,515.038 L985.955,513.44 L986.545,510.994 L992.348,505.578 L992.424,503.227 L992.484,501.369 L992.52,500.255 L992.572,498.647 L992.634,496.713 L992.636,496.655 L992.735,493.587 L990.914,490.788 L988.48,487.784 L990.414,474.245 L995.829,470.763 L999.413,467.18 L1003.18,463.414 L1008.98,463.027 L1020.2,464.187 L1029.48,467.669 L1039.15,467.282 L1046.5,459.158 L1052.71,458.937 L1053.37,458.913 L1057.34,458.772 L1056.95,453.356 L1048.83,450.648 L1043.8,444.459 L1036.83,436.722 L1032.97,433.628 L1033.74,427.438 L1033.74,421.249 L1025.23,423.957 L1015.56,419.315 L1010.14,420.475 L1004.73,426.665 L1001.25,427.051 L1000.47,424.344 L1000.86,415.06 L993.895,411.965 L991.574,401.907 L987.319,398.039 L951.73,387.594 L937.935,390.524 L937.231,390.674 L936.372,387.277 L948.572,374.399 L962.127,369.316 L974.327,367.283 L983.138,367.283 L992.627,373.721 L997.371,373.383 L1006.24,370.073 L1007.84,368.437 L1009.43,366.807 L1010.86,365.367 L1013.4,363.816 L1014.76,362.292 L1018.07,359.97 L1021.29,358.463 L1023.32,358.586 L1025.13,357.552 L1028.82,355.14 L1029.93,353.746 L1031.81,351.918 L1034.96,350.946 L1037.24,350.901 L1040.59,349.242 L1042.8,347.561 L1044.9,346.184 L1046.78,344.722 L1048.43,343.625 L1051.78,342.715 L1055.23,342.664 L1058.18,341.821 L1061.2,341.663 L1065.06,342.9 L1069.02,341.219 L1069.06,339.29 L1067.52,337.963 L1065.8,336.766 L1064.1,335.529 L1062.01,335.236 L1059.96,335.282 L1057.65,334.686 L1056.96,332.442 L1058.17,330.446 L1059.23,328.383 L1060.04,327.213 L1060.25,327.185 L1061.26,326.796 L1061.6,328.855 L1063.75,330.75 L1067.07,332.324 L1070.21,334.528 L1072.94,331.251 L1077.35,325.951 L1085.09,324.79 L1090.51,325.951 L1092.44,314.732 L1090.89,307.383 L1085.86,297.712 L1086.25,285.72 L1084.32,276.436 L1085.48,273.341 L1097.47,275.662 L1109.07,276.049 L1117.58,262.51 L1123,243.555 L1126.13,245.609 L1128.45,244.974 L1131.09,244.973 L1133.24,246.075 L1134.73,246.233 L1136.71,244.18 L1139.19,238.653 L1142.01,234.229 L1143.66,232.964 L1146.3,232.806 L1149.28,235.33 L1152.74,241.324 L1156.37,244.636 L1160.67,249.05 L1163.98,248.887 L1169.3,247.925 L1173.11,246.817 L1179.39,248.386 L1187.49,251.372 L1195.92,257.202 L1197.4,262.251 L1198.72,264.933 L1200.88,266.822 L1204.01,266.817 L1205.67,263.977 L1207,260.502 L1205.84,254.509 L1205.51,247.722 L1204.86,241.724 L1206.18,238.411 L1209.16,232.25 L1214.63,227.83 L1218.27,226.56 L1220.25,225.295 L1225.05,221.185 L1226.2,218.818 L1225.38,214.556 L1223.9,209.827 L1224.23,203.985 L1224.57,196.092 L1228.88,186.303 L1231.69,176.829 L1233.51,170.987 L1236.83,167.355 L1240.46,165.932 L1243.6,165.77 L1245.2,145.473 L1243.17,128.529 L1249.61,127.174 L1254.35,128.529 L1265.44,135.605 L1270.62,132.257 L1276.04,131.918 L1276.04,126.157 L1275.52,111.436 L1275.36,106.841 L1275.02,89.5575 L1281.8,75.3244 L1292.77,74.9666 L1300.72,78.115 L1307.02,83.7882 L1312.81,88.5166 L1317.12,96.0847 L1319.94,98.1364 L1323.91,98.9183 L1325.29,93.5283 L1317.67,80.4036 L1321.06,72.3595 L1326.67,69.8781 L1329.65,69.5577 L1332.3,71.9244 L1333.95,77.2833 L1335.04,80.0374 L1336.76,84.3839 L1338.42,88.0011"/>
  </g>
  <g stroke="#232323" font-family="MS Shell Dlg 2" fill="#0000ff" font-weight="400" stroke-opacity="1" stroke-linejoin="bevel" stroke-linecap="square" stroke-width="3.07087" transform="matrix(0.999826,0,0,0.999826,0,0)" font-size="34.375" fill-opacity="1" font-style="normal">
   <path fill-rule="evenodd" vector-effect="none" d="M556.313,237.825 L559.537,233.144 L559.531,232.969 L559.91,232.602 L563.034,232.654 L565.597,232.548 L567.886,232.081 L573.428,225.968 L573.767,222.241 L573.428,217.835 L577.495,217.496 L579.528,220.207 L588.339,214.446 L597.15,211.735 L599.183,213.43 L603.251,218.638 L603.763,220.173 L603.627,220.297 L604.605,224.613 L604.176,227.309 L605.045,228.606 L605.292,230.613 L614.094,228.679 L618.5,229.018 L621.55,224.952 L624.6,223.257 L633.411,222.241 L637.138,221.563 L639.51,217.835 L642.56,216.48 L648.253,225.103 L648.838,222.73 L647.9,220.156 L646.758,218.402 L648.225,216.506 L646.627,212.074 L649.677,208.007 L657.81,206.313 L662.555,207.33 L663.271,213.173 L670.01,218.174 L679.499,219.868 L681.532,220.885 L691.36,229.018 L694.144,233.071 L696.443,232.407 L701.526,229.357 L709.32,230.374 L717.115,227.663 L726.942,225.968 L730.331,226.985 L730.207,230.49 L732.776,232.795 L733.412,233.267 L733.94,233.661 L734.547,235.477 L734.845,237.686 L734.98,239.182 L735.121,240.296 L735.481,242.589 L738.803,242.574 L741.175,246.979 L743.548,246.979 L746.259,252.74 L748.97,255.451 L752.02,262.568 L756.425,264.94 L758.12,267.312 L761.508,274.09 L765.575,281.206 L766.931,287.645 L770.319,288.323 L777.436,289.001 L787.603,293.745 L800.819,293.745 L812.68,295.1 L826.235,302.556 L833.691,307.639 L834.03,315.772 L838.435,321.872 L842.65,324.57 L858.09,327.294 L869.273,329.667 L881.134,336.105 L880.795,340.85 L884.184,345.255 L884.737,350.921 L884.943,351.199 L885.815,352.312 L885.061,354.241 L882.581,355.168 L880.147,355.883 L877.443,356.9 L875.548,357.979 L874.047,359.7 L873.001,360.943 L872.669,362.961 L873.192,364.822 L873.147,366.728 L873.04,369.281 L873.131,371.378 L873.226,372.278 L873.315,374.594 L873.473,376.483 L873.962,378.411 L873.962,380.256 L882.772,392.709 L883.705,405.074 L884.279,407.064 L884.004,409.043 L884.353,411.286 L884.628,413.023 L885.022,415.092 L885.179,416.414 L886,417.307 L887.31,417.673 L888.434,418.162 L890.34,418.781 L892.651,419.225 L895.704,419.124 L898.847,418.832 L907.228,413.71 L913.328,414.726 L919.767,407.271 L927.9,407.949 L931.967,398.799 L936.484,393.125 L937.356,391.169 L937.231,390.674 L937.935,390.524 L951.73,387.594 L987.319,398.039 L991.574,401.907 L993.895,411.965 L1000.86,415.06 L1000.47,424.344 L1001.25,427.051 L1004.73,426.665 L1010.14,420.475 L1015.56,419.315 L1025.23,423.957 L1033.74,421.249 L1033.74,427.438 L1032.97,433.628 L1036.83,436.722 L1043.8,444.459 L1048.83,450.648 L1056.95,453.356 L1057.34,458.772 L1053.37,458.913 L1052.71,458.937 L1046.5,459.158 L1039.15,467.282 L1029.48,467.669 L1020.2,464.187 L1008.98,463.027 L1003.18,463.414 L999.413,467.18 L995.829,470.763 L990.414,474.245 L988.48,487.784 L990.914,490.788 L992.735,493.587 L992.636,496.655 L992.634,496.713 L992.572,498.647 L992.52,500.255 L992.484,501.369 L992.424,503.227 L992.348,505.578 L986.545,510.994 L985.955,513.44 L985.569,515.038 L985.542,515.151 L983.838,522.212 L984.224,524.92 L982.624,525.809 L980.743,526.854 L981.378,529.904 L981.685,531.375 L981.749,531.684 L982.677,536.138 L985.772,544.262 L985.772,546.97 L985.362,547.048 L977.648,548.517 L972.233,550.064 L962.949,547.743 L957.533,557.801 L956.759,566.698 L949.409,558.575 L942.06,556.254 L931.615,555.48 L927.747,555.48 L920.01,563.217 L913.047,571.34 L909.952,580.237 L906.858,589.134 L905.936,594.053 L905.697,595.324 L906.471,599.579 L912.66,599.579 L916.915,608.476 L916.702,612.959 L916.529,616.6 L917.204,617.012 L919.6,618.477 L923.492,620.855 L929.681,634.394 L935.87,637.102 L941.673,639.036 L940.007,643.757 L939.352,645.612 L932.776,656.443 L932.941,660.171 L933.26,667.346 L933.549,673.851 L932.888,674.556 L927.747,680.04 L919.236,682.361 L918.076,692.419 L919.455,695.981 L920.243,698.017 L920.749,699.324 L922.718,704.411 L925.813,716.789 L926.973,724.139 L921.171,731.876 L916.529,741.547 L907.631,745.028 L891.771,740.773 L878.69,734.921 L877.186,734.248 L877.072,734.197 L868.841,725.356 L866.627,722.979 L860.051,720.658 L854.404,719.469 L852.701,719.11 L846.512,714.855 L842.474,708.953 L841.483,707.505 L839.832,709.156 L838.388,710.6 L827.557,717.95 L822.141,712.534 L821.025,700.994 L820.981,700.542 L818.66,692.032 L818.317,692.078 L812.857,692.806 L802.888,695.151 L799.705,695.9 L791.968,700.155 L791.134,718.508 L791.041,720.566 L790.808,725.686 L789.675,728.55 L787.551,733.914 L786.282,737.12 L784.287,742.162 L784.274,742.194 L783.458,744.254 L783.696,747.976 L784.619,762.436 L785.226,767.595 L786.166,775.588 L776.461,776.201 L749.417,777.909 L701.287,778.217 L689.071,778.296 L662.078,778.721 L657.401,778.794 L654.299,772.591 L651.25,761.703 L651.685,742.103 L652.992,733.828 L659.524,722.939 L663.444,712.486 L665.621,702.469 L660.83,690.709 L659.088,685.918 L650.378,677.207 L643.845,671.545 L633.828,668.932 L619.455,671.981 L601.599,677.208 L589.84,675.902 L576.338,671.111 L571.548,667.191 L568.499,660.223 L567.192,651.947 L570.241,639.316 L573.289,629.734 L562.308,626.448 L565.979,620.481 L579.317,605.127 L585.171,588.237 L585.938,569.045 L580.564,540.64 L573.654,518.376 L562.139,497.648 L552.927,484.598 L555.32,465.082 L554.82,462.456 L554.921,459.662 L554.892,457.059 L557.85,446.493 L557.512,427.598 L560.212,399.256 L554.134,386.716 L553.645,383.32 L553.295,379.997 L552.964,375.831 L553.105,371.119 L553.2,366.413 L553.796,362.697 L553.644,359.542 L553.892,355.848 L554.032,352.891 L554.15,349.928 L554.258,348.984 L550.239,346.807 L544.841,339.384 L544.503,324.201 L558.063,294.867 L558.333,292.253 L558.766,289.143 L558.165,285.141 L556.624,281.053 L554.386,276.903 L552.733,273.485 L560.962,260.131 L556.691,250.031 L554.626,244.573 L556.313,237.825"/>
  </g>
  <g stroke="#000000" font-family="MS Shell Dlg 2" fill="none" font-weight="400" stroke-opacity="1" stroke-linejoin="bevel" stroke-linecap="square" stroke-width="1" transform="matrix(11.809,0,0,11.809,0,0)" font-size="34.375" font-style="normal"/>
  <g stroke="#000000" font-family="MS Shell Dlg 2" fill="none" font-weight="400" stroke-opacity="1" stroke-linejoin="bevel" stroke-linecap="square" stroke-width="1" transform="matrix(11.809,0,0,11.809,0,0)" font-size="34.375" font-style="normal"/>
  <g stroke="#000000" font-family="MS Shell Dlg 2" fill="none" font-weight="400" stroke-opacity="1" stroke-linejoin="bevel" stroke-linecap="square" stroke-width="1" transform="matrix(11.809,0,0,11.809,0,0)" font-size="34.375" font-style="normal"/>
  <g stroke="#000000" font-family="MS Shell Dlg 2" fill="none" font-weight="400" stroke-opacity="1" stroke-linejoin="bevel" stroke-linecap="square" stroke-width="1" transform="matrix(1,0,0,1,0,0)" font-size="34.375" font-style="normal"/>
  <g stroke="#000000" font-family="MS Shell Dlg 2" fill="none" font-weight="400" stroke-opacity="1" stroke-linejoin="bevel" stroke-linecap="square" stroke-width="1" transform="matrix(11.809,0,0,11.809,0,0)" font-size="34.375" font-style="normal"/>
  <g stroke="#000000" font-family="MS Shell Dlg 2" fill="none" font-weight="400" stroke-opacity="1" stroke-linejoin="bevel" stroke-linecap="square" stroke-width="1" transform="matrix(11.809,0,0,11.809,0,0)" font-size="34.375" font-style="normal"/>
  <g stroke="#000000" font-family="MS Shell Dlg 2" fill="none" font-weight="400" stroke-opacity="1" stroke-linejoin="bevel" stroke-linecap="square" stroke-width="1" transform="matrix(11.809,0,0,11.809,0,0)" font-size="34.375" font-style="normal"/>
  <g stroke="#000000" font-family="MS Shell Dlg 2" fill="none" font-weight="400" stroke-opacity="1" stroke-linejoin="bevel" stroke-linecap="square" stroke-width="1" transform="matrix(11.809,0,0,11.809,0,0)" font-size="34.375" font-style="normal"/>
  <g stroke="#000000" font-family="MS Shell Dlg 2" fill="none" font-weight="400" stroke-opacity="1" stroke-linejoin="bevel" stroke-linecap="square" stroke-width="1" transform="matrix(1,0,0,1,0,0)" font-size="34.375" font-style="normal"/>
 </g>
 <metadata>
  <rdf:RDF xmlns:dc="http://purl.org/dc/elements/1.1/" xmlns:rdf="http://www.w3.org/1999/02/22-rdf-syntax-ns#" xmlns:rdfs="http://www.w3.org/2000/01/rdf-schema#">
   <rdf:Description dc:format="image/svg+xml" dc:description="" dc:identifier="" dc:date="2020-12-09T09:03:21" dc:title="">
    <dc:creator>
     <rdf:Bag>
      <rdf:li>MSH</rdf:li>
     </rdf:Bag>
    </dc:creator>
    <dc:publisher>
     <rdf:Bag>
      <rdf:li>QGIS 3.12.2-București</rdf:li>
     </rdf:Bag>
    </dc:publisher>
    <dc:subject>
     <rdf:Bag/>
    </dc:subject>
   </rdf:Description>
   <cc:Work rdf:about="">
    <dc:format>image/svg+xml</dc:format>
    <dc:title></dc:title>
    <dc:date>2020-12-09T09:03:21</dc:date>
    <dc:identifier></dc:identifier>
    <dc:description></dc:description>
    <dc:creator>
     <cc:Agent>
      <dc:title>MSH</dc:title>
     </cc:Agent>
    </dc:creator>
    <dc:publisher>
     <cc:Agent>
      <dc:title>QGIS 3.12.2-București</dc:title>
     </cc:Agent>
    </dc:publisher>
   </cc:Work>
  </rdf:RDF>
 </metadata>
</svg>
